<ttFont>
<head>
    <!-- Most of this table will be recalculated by the compiler -->
    <tableVersion value="1.0"/>
    <fontRevision value="1.0"/>
    <checkSumAdjustment value="0xb923dd3b"/>
    <magicNumber value="0x5f0f3cf5"/>
    <flags value="00000000 00000011"/>
    <unitsPerEm value="1000"/>
    <created value="Wed May 16 09:51:28 2007"/>
    <modified value="Wed May 16 09:51:28 2007"/>
    <xMin value="-190"/>
    <yMin value="-250"/>
    <xMax value="1149"/>
    <yMax value="1032"/>
    <macStyle value="00000000 00000000"/>
    <lowestRecPPEM value="6"/>
    <fontDirectionHint value="2"/>
    <indexToLocFormat value="0"/>
    <glyphDataFormat value="0"/>
  </head>
        <CharString name=".notdef">
          -277 endchar
        </CharString>
        <CharString name="A">
          81 -3 22 215 40 434 20 hstem
          -35 693 vstem
          308 728 rmoveto
          -257 -623 rlineto
          -25 -60 -14 -26 -40 0 rrcurveto
          -7 hlineto
          -22 vlineto
          23 3 30 3 37 0 rrcurveto
          36 0 29 -3 23 -3 rrcurveto
          22 vlineto
          -41 3 -17 8 0 24 rrcurveto
          0 9 2 10 5 12 rrcurveto
          60 149 rlineto
          259 hlineto
          50 -137 rlineto
          9 -24 4 -16 0 -9 rrcurveto
          -22 -13 -7 -31 vhcurveto
          -7 hlineto
          -22 vlineto
          30 3 38 3 49 0 rrcurveto
          48 0 39 -3 31 -3 rrcurveto
          22 vlineto
          -45 0 -14 13 -16 40 rrcurveto
          -263 656 rlineto
          -33 -164 rmoveto
          108 -290 rlineto
          -225 hlineto
          endchar
        </CharString>
        <CharString name="AE">
          382 2 17 -17 37 237 38 40 37 283 41 hstemhm
          427 100 228 21 vstemhm
          hintmask 10101100
          319 715 rmoveto
          -19 vlineto
          38 18 -7 -22 hvcurveto
          0 -17 -9 -18 -13 -21 rrcurveto
          -302 -506 rlineto
          -33 -56 -23 -30 -47 0 rrcurveto
          -7 hlineto
          -22 vlineto
          26 3 35 3 42 0 rrcurveto
          42 0 35 -3 27 -3 rrcurveto
          22 vlineto
          -6 hlineto
          -41 -22 11 19 hvcurveto
          0 8 5 16 11 19 rrcurveto
          111 184 rlineto
          221 hlineto
          -173 vlineto
          0 -70 0 -12 -82 -2 rrcurveto
          -22 vlineto
          60 5 93 0 127 0 rrcurveto
          111 0 79 -2 45 -3 rrcurveto
          38 177 rlineto
          -20 hlineto
          hintmask 01111110
          -31 -110 -59 -25 -122 0 rrcurveto
          -57 hlineto
          -66 -16 4 40 hvcurveto
          271 vlineto
          131 hlineto
          66 0 24 -21 8 -76 rrcurveto
          21 hlineto
          0 76 -1 77 0 78 rrcurveto
          -21 hlineto
          -8 -78 -24 -19 -66 0 rrcurveto
          -130 hlineto
          259 vlineto
          23 6 1 26 vhcurveto
          101 hlineto
          107 0 51 -30 14 -85 rrcurveto
          20 hlineto
          -9 156 rlineto
          -61 -2 -78 -1 -95 0 rrcurveto
          hintmask 10101100
          -116 0 -96 0 -78 3 rrcurveto
          hintmask 01111110
          108 -46 rmoveto
          -355 vlineto
          -200 hlineto
          endchar
        </CharString>
        <CharString name="Aacute">
          81 -3 22 215 40 434 20 62 20 159 20 hstemhm
          -35 693 -438 255 vstemhm
          hintmask 11100100
          308 728 rmoveto
          -257 -623 rlineto
          -25 -60 -14 -26 -40 0 rrcurveto
          -7 hlineto
          -22 vlineto
          23 3 30 3 37 0 rrcurveto
          36 0 29 -3 23 -3 rrcurveto
          22 vlineto
          -41 3 -17 8 0 24 rrcurveto
          0 9 2 10 5 12 rrcurveto
          60 149 rlineto
          259 hlineto
          50 -137 rlineto
          9 -24 4 -16 0 -9 rrcurveto
          -22 -13 -7 -31 vhcurveto
          -7 hlineto
          -22 vlineto
          30 3 38 3 49 0 rrcurveto
          48 0 39 -3 31 -3 rrcurveto
          22 vlineto
          -45 0 -14 13 -16 40 rrcurveto
          -263 656 rlineto
          -33 -164 rmoveto
          108 -290 rlineto
          -225 hlineto
          hintmask 00011010
          271 630 rmoveto
          23 14 11 16 0 16 rrcurveto
          23 -17 16 -23 vhcurveto
          -19 0 -16 -12 -20 -21 rrcurveto
          -160 -166 rlineto
          37 hlineto
          endchar
        </CharString>
        <CharString name="Acircumflex">
          81 -3 22 215 40 434 20 62 20 154 20 hstemhm
          -35 693 -502 324 vstemhm
          hintmask 11100100
          308 728 rmoveto
          -257 -623 rlineto
          -25 -60 -14 -26 -40 0 rrcurveto
          -7 hlineto
          -22 vlineto
          23 3 30 3 37 0 rrcurveto
          36 0 29 -3 23 -3 rrcurveto
          22 vlineto
          -41 3 -17 8 0 24 rrcurveto
          0 9 2 10 5 12 rrcurveto
          60 149 rlineto
          259 hlineto
          50 -137 rlineto
          9 -24 4 -16 0 -9 rrcurveto
          -22 -13 -7 -31 vhcurveto
          -7 hlineto
          -22 vlineto
          30 3 38 3 49 0 rrcurveto
          48 0 39 -3 31 -3 rrcurveto
          22 vlineto
          -45 0 -14 13 -16 40 rrcurveto
          -263 656 rlineto
          -33 -164 rmoveto
          108 -290 rlineto
          -225 hlineto
          hintmask 00011010
          115 710 rmoveto
          -129 -194 rlineto
          33 hlineto
          129 117 rlineto
          130 -117 rlineto
          32 hlineto
          -129 194 rlineto
          endchar
        </CharString>
        <CharString name="Adieresis">
          81 -3 22 215 40 434 20 92 112 hstemhm
          -35 693 -493 111 84 111 vstemhm
          hintmask 11101000
          308 728 rmoveto
          -257 -623 rlineto
          -25 -60 -14 -26 -40 0 rrcurveto
          -7 hlineto
          -22 vlineto
          23 3 30 3 37 0 rrcurveto
          36 0 29 -3 23 -3 rrcurveto
          22 vlineto
          -41 3 -17 8 0 24 rrcurveto
          0 9 2 10 5 12 rrcurveto
          60 149 rlineto
          259 hlineto
          50 -137 rlineto
          9 -24 4 -16 0 -9 rrcurveto
          -22 -13 -7 -31 vhcurveto
          -7 hlineto
          -22 vlineto
          30 3 38 3 49 0 rrcurveto
          48 0 39 -3 31 -3 rrcurveto
          22 vlineto
          -45 0 -14 13 -16 40 rrcurveto
          -263 656 rlineto
          -33 -164 rmoveto
          108 -290 rlineto
          -225 hlineto
          hintmask 00010110
          51 658 rmoveto
          -30 -26 -26 -30 hvcurveto
          -32 25 -24 31 vhcurveto
          31 24 25 31 hvcurveto
          30 -25 26 -30 vhcurveto
          195 hmoveto
          -30 -26 -26 -30 hvcurveto
          -32 25 -24 31 vhcurveto
          31 24 25 31 hvcurveto
          30 -25 26 -30 vhcurveto
          endchar
        </CharString>
        <CharString name="Agrave">
          81 -3 22 215 40 434 20 62 20 159 20 hstemhm
          -35 693 -497 255 vstemhm
          hintmask 11100100
          308 728 rmoveto
          -257 -623 rlineto
          -25 -60 -14 -26 -40 0 rrcurveto
          -7 hlineto
          -22 vlineto
          23 3 30 3 37 0 rrcurveto
          36 0 29 -3 23 -3 rrcurveto
          22 vlineto
          -41 3 -17 8 0 24 rrcurveto
          0 9 2 10 5 12 rrcurveto
          60 149 rlineto
          259 hlineto
          50 -137 rlineto
          9 -24 4 -16 0 -9 rrcurveto
          -22 -13 -7 -31 vhcurveto
          -7 hlineto
          -22 vlineto
          30 3 38 3 49 0 rrcurveto
          48 0 39 -3 31 -3 rrcurveto
          22 vlineto
          -45 0 -14 13 -16 40 rrcurveto
          -263 656 rlineto
          -33 -164 rmoveto
          108 -290 rlineto
          -225 hlineto
          hintmask 00011010
          86 682 rmoveto
          -20 21 -16 12 -20 0 rrcurveto
          -22 -17 -17 -23 hvcurveto
          0 -16 12 -15 23 -14 rrcurveto
          183 -114 rlineto
          37 hlineto
          endchar
        </CharString>
        <CharString name="Aring">
          81 -3 22 215 40 434 20 37 51 166 50 hstemhm
          -35 693 -475 51 166 51 vstemhm
          hintmask 00011011
          317 1032 rmoveto
          -75 -59 -58 -75 hvcurveto
          -75 59 -59 75 vhcurveto
          75 59 59 75 hvcurveto
          75 -59 58 -75 vhcurveto
          -1 -50 rmoveto
          46 38 -38 -46 hvcurveto
          -46 -38 -36 -46 vhcurveto
          -46 -36 36 46 hvcurveto
          47 36 37 46 vhcurveto
          hintmask 11100100
          -29 -418 rmoveto
          108 -290 rlineto
          -225 hlineto
          138 454 rmoveto
          -257 -623 rlineto
          -25 -60 -14 -26 -40 0 rrcurveto
          -7 hlineto
          -22 vlineto
          23 3 30 3 37 0 rrcurveto
          36 0 29 -3 23 -3 rrcurveto
          22 vlineto
          -41 3 -17 8 0 24 rrcurveto
          0 9 2 10 5 12 rrcurveto
          60 149 rlineto
          259 hlineto
          50 -137 rlineto
          9 -24 4 -16 0 -9 rrcurveto
          -22 -13 -7 -31 vhcurveto
          -7 hlineto
          -22 vlineto
          30 3 38 3 49 0 rrcurveto
          48 0 39 -3 31 -3 rrcurveto
          22 vlineto
          -45 0 -14 13 -16 40 rrcurveto
          -263 656 rlineto
          endchar
        </CharString>
        <CharString name="Atilde">
          81 -3 22 215 40 434 20 114 66 -42 68 hstemhm
          -35 693 -500 319 vstemhm
          hintmask 11100100
          308 728 rmoveto
          -257 -623 rlineto
          -25 -60 -14 -26 -40 0 rrcurveto
          -7 hlineto
          -22 vlineto
          23 3 30 3 37 0 rrcurveto
          36 0 29 -3 23 -3 rrcurveto
          22 vlineto
          -41 3 -17 8 0 24 rrcurveto
          0 9 2 10 5 12 rrcurveto
          60 149 rlineto
          259 hlineto
          50 -137 rlineto
          9 -24 4 -16 0 -9 rrcurveto
          -22 -13 -7 -31 vhcurveto
          -7 hlineto
          -22 vlineto
          30 3 38 3 49 0 rrcurveto
          48 0 39 -3 31 -3 rrcurveto
          22 vlineto
          -45 0 -14 13 -16 40 rrcurveto
          -263 656 rlineto
          -33 -164 rmoveto
          108 -290 rlineto
          -225 hlineto
          hintmask 00010010
          278 681 rmoveto
          -10 -34 -15 -13 -28 0 rrcurveto
          -8 0 -9 2 -13 3 rrcurveto
          -61 16 rlineto
          hintmask 00001010
          -11 3 -12 2 -12 0 rrcurveto
          -60 0 -38 -40 -13 -78 rrcurveto
          29 hlineto
          11 36 14 14 29 0 rrcurveto
          9 0 9 -1 9 -2 rrcurveto
          60 -16 rlineto
          hintmask 00010010
          14 -4 14 -1 13 0 rrcurveto
          58 0 36 37 14 76 rrcurveto
          endchar
        </CharString>
        <CharString name="B">
          87 0 30 336 34 287 29 hstemhm
          130 106 207 108 -71 109 vstemhm
          hintmask 11010100
          49 717 rmoveto
          -21 vlineto
          80 -2 1 -11 0 -66 rrcurveto
          -519 vlineto
          0 -66 -1 -11 -80 -2 rrcurveto
          -22 vlineto
          38 3 39 3 42 0 rrcurveto
          46 0 50 -3 54 0 rrcurveto
          183 88 62 141 hvcurveto
          0 106 -60 56 -131 26 rrcurveto
          hintmask 01111000
          99 21 54 62 0 83 rrcurveto
          107 -79 52 -160 vhcurveto
          -43 0 -49 -4 -54 0 rrcurveto
          hintmask 11010100
          -38 0 -39 1 -40 4 rrcurveto
          hintmask 01111000
          187 -317 rmoveto
          250 vlineto
          35 11 2 48 vhcurveto
          91 57 -55 -84 hvcurveto
          -113 -58 -35 -124 vhcurveto
          hintmask 11010100
          -25 -311 rmoveto
          277 vlineto
          15 1 13 1 13 0 rrcurveto
          135 68 -62 -121 hvcurveto
          -100 -58 -55 -111 vhcurveto
          -60 -15 11 48 hvcurveto
          endchar
        </CharString>
        <CharString name="C">
          155 -13 60 642 38 hstem
          53 109 vstem
          623 697 rmoveto
          -17 -3 -14 -2 -11 0 rrcurveto
          -49 0 -61 35 -81 0 rrcurveto
          -81 0 -75 -29 -60 -56 rrcurveto
          -79 -73 -42 -103 0 -119 rrcurveto
          0 -110 36 -94 70 -68 rrcurveto
          59 -58 76 -30 87 0 rrcurveto
          119 0 95 57 67 112 rrcurveto
          -21 13 rlineto
          -65 -81 -75 -41 -73 0 rrcurveto
          -98 0 -83 59 -50 111 rrcurveto
          -23 50 -12 60 0 65 rrcurveto
          181 101 116 143 vhcurveto
          111 0 67 -72 24 -145 rrcurveto
          22 hlineto
          endchar
        </CharString>
        <CharString name="Ccedilla">
          155 -248 45 98 43 42 20 -13 60 642 38 hstemhm
          53 109 187 35 62 74 vstemhm
          hintmask 00011100
          623 697 rmoveto
          -17 -3 -14 -2 -11 0 rrcurveto
          -49 0 -61 35 -81 0 rrcurveto
          -81 0 -75 -29 -60 -56 rrcurveto
          -79 -73 -42 -103 0 -119 rrcurveto
          0 -110 36 -94 70 -68 rrcurveto
          59 -58 76 -30 87 0 rrcurveto
          119 0 95 57 67 112 rrcurveto
          -21 13 rlineto
          -65 -81 -75 -41 -73 0 rrcurveto
          -98 0 -83 59 -50 111 rrcurveto
          -23 50 -12 60 0 65 rrcurveto
          181 101 116 143 vhcurveto
          111 0 67 -72 24 -145 rrcurveto
          22 hlineto
          hintmask 11100011
          -281 -472 rmoveto
          -105 vlineto
          12 2 12 2 10 0 rrcurveto
          41 22 -19 -31 hvcurveto
          -36 -22 -16 -46 vhcurveto
          -29 0 -44 13 -51 28 rrcurveto
          -19 -44 rlineto
          63 -26 52 -16 47 0 rrcurveto
          78 45 38 60 hvcurveto
          56 -38 35 -65 vhcurveto
          -10 0 -11 -1 -12 -2 rrcurveto
          62 vlineto
          endchar
        </CharString>
        <CharString name="D">
          249 0 39 311 34 299 32 hstem
          131 105 401 113 vstem
          49 717 rmoveto
          -21 vlineto
          82 -2 0 -12 0 -70 rrcurveto
          -509 vlineto
          0 -70 0 -12 -82 -2 rrcurveto
          -22 vlineto
          37 4 44 2 53 0 rrcurveto
          69 0 55 -3 39 0 rrcurveto
          254 150 142 230 hvcurveto
          215 -138 128 -249 vhcurveto
          -180 hlineto
          -45 0 -45 0 -44 2 rrcurveto
          187 -602 rmoveto
          534 vlineto
          31 2 3 32 vhcurveto
          37 hlineto
          213 117 -118 -210 hvcurveto
          -210 -105 -106 -208 vhcurveto
          -81 -7 11 65 hvcurveto
          endchar
        </CharString>
        <CharString name="E">
          92 2 37 315 37 283 43 hstem
          131 105 228 21 vstem
          49 717 rmoveto
          -21 vlineto
          82 -2 0 -12 0 -70 rrcurveto
          -509 vlineto
          0 -70 0 -12 -82 -2 rrcurveto
          -22 vlineto
          60 5 95 0 130 0 rrcurveto
          111 0 79 -2 45 -3 rrcurveto
          39 177 rlineto
          -21 hlineto
          -31 -110 -59 -25 -122 0 rrcurveto
          -57 hlineto
          -67 -15 4 40 hvcurveto
          271 vlineto
          131 hlineto
          66 0 24 -21 8 -76 rrcurveto
          21 hlineto
          0 76 -1 77 0 78 rrcurveto
          -21 hlineto
          -8 -77 -24 -20 -66 0 rrcurveto
          -130 hlineto
          259 vlineto
          23 6 1 26 vhcurveto
          101 hlineto
          107 0 51 -30 14 -85 rrcurveto
          20 hlineto
          -8 158 rlineto
          -61 -4 -90 -1 -117 0 rrcurveto
          -94 0 -79 0 -63 5 rrcurveto
          endchar
        </CharString>
        <CharString name="Eacute">
          92 2 37 315 37 283 43 73 20 159 20 hstemhm
          131 105 -11 255 -16 21 vstemhm
          hintmask 11100101
          49 717 rmoveto
          -21 vlineto
          82 -2 0 -12 0 -70 rrcurveto
          -509 vlineto
          0 -70 0 -12 -82 -2 rrcurveto
          -22 vlineto
          60 5 95 0 130 0 rrcurveto
          111 0 79 -2 45 -3 rrcurveto
          39 177 rlineto
          -21 hlineto
          -31 -110 -59 -25 -122 0 rrcurveto
          -57 hlineto
          -67 -15 4 40 hvcurveto
          271 vlineto
          131 hlineto
          66 0 24 -21 8 -76 rrcurveto
          21 hlineto
          0 76 -1 77 0 78 rrcurveto
          -21 hlineto
          -8 -77 -24 -20 -66 0 rrcurveto
          -130 hlineto
          259 vlineto
          23 6 1 26 vhcurveto
          101 hlineto
          107 0 51 -30 14 -85 rrcurveto
          20 hlineto
          -8 158 rlineto
          -61 -4 -90 -1 -117 0 rrcurveto
          -94 0 -79 0 -63 5 rrcurveto
          hintmask 00011010
          397 187 rmoveto
          23 14 11 16 0 16 rrcurveto
          23 -17 16 -23 vhcurveto
          -19 0 -16 -12 -20 -21 rrcurveto
          -160 -166 rlineto
          37 hlineto
          endchar
        </CharString>
        <CharString name="Ecircumflex">
          92 2 37 315 37 283 43 73 20 154 20 hstemhm
          131 105 -75 324 -21 21 vstemhm
          hintmask 11100101
          49 717 rmoveto
          -21 vlineto
          82 -2 0 -12 0 -70 rrcurveto
          -509 vlineto
          0 -70 0 -12 -82 -2 rrcurveto
          -22 vlineto
          60 5 95 0 130 0 rrcurveto
          111 0 79 -2 45 -3 rrcurveto
          39 177 rlineto
          -21 hlineto
          -31 -110 -59 -25 -122 0 rrcurveto
          -57 hlineto
          -67 -15 4 40 hvcurveto
          271 vlineto
          131 hlineto
          66 0 24 -21 8 -76 rrcurveto
          21 hlineto
          0 76 -1 77 0 78 rrcurveto
          -21 hlineto
          -8 -77 -24 -20 -66 0 rrcurveto
          -130 hlineto
          259 vlineto
          23 6 1 26 vhcurveto
          101 hlineto
          107 0 51 -30 14 -85 rrcurveto
          20 hlineto
          -8 158 rlineto
          -61 -4 -90 -1 -117 0 rrcurveto
          -94 0 -79 0 -63 5 rrcurveto
          hintmask 00011010
          241 267 rmoveto
          -129 -194 rlineto
          33 hlineto
          129 117 rlineto
          130 -117 rlineto
          32 hlineto
          -129 194 rlineto
          endchar
        </CharString>
        <CharString name="Edieresis">
          92 2 37 315 37 283 43 103 112 hstemhm
          131 105 -66 111 84 111 -12 21 vstemhm
          hintmask 11101001
          49 717 rmoveto
          -21 vlineto
          82 -2 0 -12 0 -70 rrcurveto
          -509 vlineto
          0 -70 0 -12 -82 -2 rrcurveto
          -22 vlineto
          60 5 95 0 130 0 rrcurveto
          111 0 79 -2 45 -3 rrcurveto
          39 177 rlineto
          -21 hlineto
          -31 -110 -59 -25 -122 0 rrcurveto
          -57 hlineto
          -67 -15 4 40 hvcurveto
          271 vlineto
          131 hlineto
          66 0 24 -21 8 -76 rrcurveto
          21 hlineto
          0 76 -1 77 0 78 rrcurveto
          -21 hlineto
          -8 -77 -24 -20 -66 0 rrcurveto
          -130 hlineto
          259 vlineto
          23 6 1 26 vhcurveto
          101 hlineto
          107 0 51 -30 14 -85 rrcurveto
          20 hlineto
          -8 158 rlineto
          -61 -4 -90 -1 -117 0 rrcurveto
          -94 0 -79 0 -63 5 rrcurveto
          hintmask 00010110
          177 215 rmoveto
          -30 -26 -26 -30 hvcurveto
          -32 25 -24 31 vhcurveto
          31 24 25 31 hvcurveto
          30 -25 26 -30 vhcurveto
          195 hmoveto
          -30 -26 -26 -30 hvcurveto
          -32 25 -24 31 vhcurveto
          31 24 25 31 hvcurveto
          30 -25 26 -30 vhcurveto
          endchar
        </CharString>
        <CharString name="Egrave">
          92 2 37 315 37 283 43 73 20 159 20 hstemhm
          131 105 -70 255 43 21 vstemhm
          hintmask 11100101
          49 717 rmoveto
          -21 vlineto
          82 -2 0 -12 0 -70 rrcurveto
          -509 vlineto
          0 -70 0 -12 -82 -2 rrcurveto
          -22 vlineto
          60 5 95 0 130 0 rrcurveto
          111 0 79 -2 45 -3 rrcurveto
          39 177 rlineto
          -21 hlineto
          -31 -110 -59 -25 -122 0 rrcurveto
          -57 hlineto
          -67 -15 4 40 hvcurveto
          271 vlineto
          131 hlineto
          66 0 24 -21 8 -76 rrcurveto
          21 hlineto
          0 76 -1 77 0 78 rrcurveto
          -21 hlineto
          -8 -77 -24 -20 -66 0 rrcurveto
          -130 hlineto
          259 vlineto
          23 6 1 26 vhcurveto
          101 hlineto
          107 0 51 -30 14 -85 rrcurveto
          20 hlineto
          -8 158 rlineto
          -61 -4 -90 -1 -117 0 rrcurveto
          -94 0 -79 0 -63 5 rrcurveto
          hintmask 00011010
          212 239 rmoveto
          -20 21 -16 12 -20 0 rrcurveto
          -22 -17 -17 -23 hvcurveto
          0 -16 12 -15 23 -14 rrcurveto
          183 -114 rlineto
          37 hlineto
          endchar
        </CharString>
        <CharString name="Eth">
          249 0 39 311 34 299 32 hstem
          82 105 401 113 vstem
          49 717 rmoveto
          -21 vlineto
          82 -2 0 -12 0 -70 rrcurveto
          -228 vlineto
          -131 hlineto
          -34 vlineto
          131 hlineto
          -247 vlineto
          0 -70 0 -12 -82 -2 rrcurveto
          -22 vlineto
          37 4 44 2 53 0 rrcurveto
          69 0 55 -3 39 0 rrcurveto
          254 150 142 230 hvcurveto
          215 -138 128 -249 vhcurveto
          -180 hlineto
          -45 0 -45 0 -44 2 rrcurveto
          187 -602 rmoveto
          235 vlineto
          185 hlineto
          34 vlineto
          -185 hlineto
          265 vlineto
          31 2 3 32 vhcurveto
          37 hlineto
          213 117 -118 -210 hvcurveto
          -210 -105 -106 -208 vhcurveto
          -81 -7 11 65 hvcurveto
          endchar
        </CharString>
        <CharString name="Euro">
          -12 57 92 20 122 28 94 29 72 20 140 37 hstem
          90 96 vstem
          28 307 rmoveto
          -10 -28 rlineto
          75 hlineto
          15 -162 85 -129 134 0 rrcurveto
          87 0 69 49 49 108 rrcurveto
          -18 12 rlineto
          -48 -78 -51 -34 -54 0 rrcurveto
          -104 0 -52 110 -14 124 rrcurveto
          199 hlineto
          10 28 rlineto
          -211 hlineto
          -2 23 -1 24 0 22 rrcurveto
          25 vlineto
          230 hlineto
          10 29 rlineto
          -239 hlineto
          10 143 51 89 93 0 rrcurveto
          67 0 65 -48 16 -112 rrcurveto
          20 hlineto
          -5 168 rlineto
          -13 -3 -10 -2 -8 0 rrcurveto
          -36 0 -44 34 -60 0 rrcurveto
          -125 0 -84 -121 -25 -148 rrcurveto
          -64 hlineto
          -10 -29 rlineto
          69 hlineto
          -2 -23 -2 -22 0 -23 rrcurveto
          0 -9 1 -8 0 -9 rrcurveto
          endchar
        </CharString>
        <CharString name="F">
          42 -3 22 335 37 283 43 hstem
          130 105 229 21 vstem
          48 717 rmoveto
          -21 vlineto
          82 -2 0 -12 0 -70 rrcurveto
          -509 vlineto
          0 -70 0 -12 -82 -2 rrcurveto
          -22 vlineto
          35 3 45 3 55 0 rrcurveto
          55 0 44 -3 35 -3 rrcurveto
          22 vlineto
          -82 2 0 12 0 70 rrcurveto
          251 vlineto
          132 hlineto
          66 0 24 -21 8 -76 rrcurveto
          21 hlineto
          0 76 -1 77 0 78 rrcurveto
          -21 hlineto
          -8 -77 -24 -20 -66 0 rrcurveto
          -131 hlineto
          259 vlineto
          23 6 1 26 vhcurveto
          102 hlineto
          107 0 50 -30 14 -85 rrcurveto
          21 hlineto
          -9 158 rlineto
          -60 -4 -89 -1 -117 0 rrcurveto
          -95 0 -79 0 -64 5 rrcurveto
          endchar
        </CharString>
        <CharString name="G">
          240 -13 54 293 21 338 35 hstem
          52 109 430 105 vstem
          661 699 rmoveto
          -15 -2 -13 -1 -12 0 rrcurveto
          -48 0 -64 32 -90 0 rrcurveto
          -115 0 -103 -49 -67 -85 rrcurveto
          -54 -69 -28 -82 0 -97 rrcurveto
          -219 140 -140 210 vhcurveto
          110 0 98 38 86 76 rrcurveto
          177 vlineto
          0 45 9 7 59 4 rrcurveto
          21 vlineto
          -33 -4 -41 -1 -48 0 rrcurveto
          -52 0 -44 2 -35 3 rrcurveto
          -21 vlineto
          64 -3 16 -7 0 -46 rrcurveto
          -186 vlineto
          -38 -34 -48 -17 -54 0 rrcurveto
          -108 0 -85 54 -56 105 rrcurveto
          -27 50 -14 61 0 65 rrcurveto
          0 80 22 72 43 61 rrcurveto
          47 66 72 38 78 0 rrcurveto
          108 0 88 -71 32 -125 rrcurveto
          20 hlineto
          endchar
        </CharString>
        <CharString name="H">
          277 -3 22 329 40 308 21 hstem
          131 105 359 105 vstem
          49 717 rmoveto
          -21 vlineto
          82 -2 0 -12 0 -70 rrcurveto
          -509 vlineto
          0 -70 0 -12 -82 -2 rrcurveto
          -22 vlineto
          34 3 45 3 55 0 rrcurveto
          55 0 45 -3 35 -3 rrcurveto
          22 vlineto
          -82 2 0 12 0 70 rrcurveto
          245 vlineto
          359 hlineto
          -245 vlineto
          0 -70 0 -12 -82 -2 rrcurveto
          -22 vlineto
          34 3 45 3 55 0 rrcurveto
          55 0 45 -3 35 -3 rrcurveto
          22 vlineto
          -82 2 0 12 0 70 rrcurveto
          509 vlineto
          0 70 0 12 82 2 rrcurveto
          21 vlineto
          -41 -4 -45 -1 -49 0 rrcurveto
          -49 0 -45 1 -40 4 rrcurveto
          -21 vlineto
          82 -2 0 -12 0 -70 rrcurveto
          -224 vlineto
          -359 hlineto
          224 vlineto
          0 70 0 12 82 2 rrcurveto
          21 vlineto
          -41 -4 -45 -1 -49 0 rrcurveto
          -49 0 -45 1 -40 4 rrcurveto
          endchar
        </CharString>
        <CharString name="I">
          -188 -3 22 145 29 346 28 129 21 hstem
          130 105 219 107 vstem
          48 717 rmoveto
          -21 vlineto
          82 -2 0 -12 0 -70 rrcurveto
          -509 vlineto
          0 -70 0 -12 -82 -2 rrcurveto
          -22 vlineto
          35 3 45 3 55 0 rrcurveto
          55 0 44 -3 35 -3 rrcurveto
          22 vlineto
          -82 2 0 12 0 70 rrcurveto
          509 vlineto
          0 70 0 12 82 2 rrcurveto
          21 vlineto
          -40 -4 -45 -1 -49 0 rrcurveto
          -49 0 -45 1 -41 4 rrcurveto
          endchar
        </CharString>
        <CharString name="Iacute">
          -188 -3 22 145 29 346 28 129 21 73 20 159 20 hstemhm
          85 255 -210 105 219 107 vstemhm
          hintmask 1111000110000000
          48 717 rmoveto
          -21 vlineto
          82 -2 0 -12 0 -70 rrcurveto
          -509 vlineto
          0 -70 0 -12 -82 -2 rrcurveto
          -22 vlineto
          35 3 45 3 55 0 rrcurveto
          55 0 44 -3 35 -3 rrcurveto
          22 vlineto
          -82 2 0 12 0 70 rrcurveto
          509 vlineto
          0 70 0 12 82 2 rrcurveto
          21 vlineto
          -40 -4 -45 -1 -49 0 rrcurveto
          -49 0 -45 1 -41 4 rrcurveto
          hintmask 0000111000000000
          258 187 rmoveto
          23 14 11 16 0 16 rrcurveto
          23 -17 16 -23 vhcurveto
          -19 0 -16 -12 -20 -21 rrcurveto
          -160 -166 rlineto
          37 hlineto
          endchar
        </CharString>
        <CharString name="Icircumflex">
          -188 -3 22 145 29 346 28 129 21 73 20 154 20 hstemhm
          21 324 -215 105 219 107 vstemhm
          hintmask 1111000110000000
          48 717 rmoveto
          -21 vlineto
          82 -2 0 -12 0 -70 rrcurveto
          -509 vlineto
          0 -70 0 -12 -82 -2 rrcurveto
          -22 vlineto
          35 3 45 3 55 0 rrcurveto
          55 0 44 -3 35 -3 rrcurveto
          22 vlineto
          -82 2 0 12 0 70 rrcurveto
          509 vlineto
          0 70 0 12 82 2 rrcurveto
          21 vlineto
          -40 -4 -45 -1 -49 0 rrcurveto
          -49 0 -45 1 -41 4 rrcurveto
          hintmask 0000111000000000
          102 267 rmoveto
          -129 -194 rlineto
          33 hlineto
          129 117 rlineto
          130 -117 rlineto
          32 hlineto
          -129 194 rlineto
          endchar
        </CharString>
        <CharString name="Idieresis">
          -188 -3 22 145 29 346 28 129 21 103 112 hstemhm
          30 111 -11 105 -10 111 118 107 vstemhm
          hintmask 1111001010000000
          48 717 rmoveto
          -21 vlineto
          82 -2 0 -12 0 -70 rrcurveto
          -509 vlineto
          0 -70 0 -12 -82 -2 rrcurveto
          -22 vlineto
          35 3 45 3 55 0 rrcurveto
          55 0 44 -3 35 -3 rrcurveto
          22 vlineto
          -82 2 0 12 0 70 rrcurveto
          509 vlineto
          0 70 0 12 82 2 rrcurveto
          21 vlineto
          -40 -4 -45 -1 -49 0 rrcurveto
          -49 0 -45 1 -41 4 rrcurveto
          hintmask 0000110100000000
          38 215 rmoveto
          -30 -26 -26 -30 hvcurveto
          -32 25 -24 31 vhcurveto
          31 24 25 31 hvcurveto
          30 -25 26 -30 vhcurveto
          195 hmoveto
          -30 -26 -26 -30 hvcurveto
          -32 25 -24 31 vhcurveto
          31 24 25 31 hvcurveto
          30 -25 26 -30 vhcurveto
          endchar
        </CharString>
        <CharString name="Igrave">
          -188 -3 22 145 29 346 28 129 21 73 20 159 20 hstemhm
          26 255 -151 105 219 107 vstemhm
          hintmask 1111000110000000
          48 717 rmoveto
          -21 vlineto
          82 -2 0 -12 0 -70 rrcurveto
          -509 vlineto
          0 -70 0 -12 -82 -2 rrcurveto
          -22 vlineto
          35 3 45 3 55 0 rrcurveto
          55 0 44 -3 35 -3 rrcurveto
          22 vlineto
          -82 2 0 12 0 70 rrcurveto
          509 vlineto
          0 70 0 12 82 2 rrcurveto
          21 vlineto
          -40 -4 -45 -1 -49 0 rrcurveto
          -49 0 -45 1 -41 4 rrcurveto
          hintmask 0000111000000000
          73 239 rmoveto
          -20 21 -16 12 -20 0 rrcurveto
          -22 -17 -17 -23 hvcurveto
          0 -16 12 -15 23 -14 rrcurveto
          183 -114 rlineto
          37 hlineto
          endchar
        </CharString>
        <CharString name="J">
          -195 -182 20 858 21 hstem
          130 105 vstem
          48 717 rmoveto
          -21 vlineto
          82 -2 0 -12 0 -70 rrcurveto
          -576 vlineto
          0 -107 -13 -59 -80 -39 rrcurveto
          19 -13 rlineto
          74 37 53 53 22 51 rrcurveto
          28 63 2 79 0 100 rrcurveto
          411 vlineto
          0 70 0 12 82 2 rrcurveto
          21 vlineto
          -40 -4 -45 -1 -49 0 rrcurveto
          -49 0 -45 1 -41 4 rrcurveto
          endchar
        </CharString>
        <CharString name="K">
          162 -3 22 145 29 346 28 129 21 hstem
          130 105 219 107 vstem
          48 717 rmoveto
          -21 vlineto
          82 -2 0 -12 0 -70 rrcurveto
          -509 vlineto
          0 -70 0 -12 -82 -2 rrcurveto
          -22 vlineto
          35 3 45 3 55 0 rrcurveto
          55 0 44 -3 35 -3 rrcurveto
          22 vlineto
          -82 2 0 12 0 70 rrcurveto
          509 vlineto
          0 70 0 12 82 2 rrcurveto
          21 vlineto
          -40 -4 -45 -1 -49 0 rrcurveto
          -49 0 -45 1 -41 4 rrcurveto
          415 hmoveto
          -21 vlineto
          41 20 -8 -18 hvcurveto
          0 -12 -14 -16 -24 -24 rrcurveto
          -239 -241 rlineto
          249 -280 rlineto
          22 -24 12 -17 0 -11 rrcurveto
          -19 -22 -7 -46 vhcurveto
          -22 vlineto
          37 4 48 2 63 0 rrcurveto
          59 0 49 -2 38 -4 rrcurveto
          22 vlineto
          -43 2 -36 26 -44 48 rrcurveto
          -295 322 rlineto
          207 197 rlineto
          52 49 42 30 56 3 rrcurveto
          21 vlineto
          -35 -4 -39 -1 -42 0 rrcurveto
          -43 0 -38 1 -35 4 rrcurveto
          endchar
        </CharString>
        <CharString name="L">
          70 -3 42 657 21 hstem
          131 105 vstem
          49 717 rmoveto
          -21 vlineto
          82 -2 0 -12 0 -70 rrcurveto
          -509 vlineto
          0 -70 0 -12 -82 -2 rrcurveto
          -22 vlineto
          60 5 95 0 130 0 rrcurveto
          111 0 79 -2 45 -3 rrcurveto
          39 193 rlineto
          -21 hlineto
          -29 -135 -64 -16 -145 0 rrcurveto
          -29 hlineto
          -69 -15 2 42 hvcurveto
          542 vlineto
          0 58 3 11 78 2 rrcurveto
          21 vlineto
          -41 -4 -44 -1 -49 0 rrcurveto
          -49 0 -45 1 -40 4 rrcurveto
          endchar
        </CharString>
        <CharString name="Lslash">
          70 2 37 657 21 hstem
          131 105 vstem
          49 717 rmoveto
          -21 vlineto
          82 -2 0 -12 0 -70 rrcurveto
          -261 vlineto
          -146 -98 rlineto
          15 -28 rlineto
          131 88 rlineto
          -210 vlineto
          0 -70 0 -12 -82 -2 rrcurveto
          -22 vlineto
          60 5 95 0 130 0 rrcurveto
          111 0 79 -2 45 -3 rrcurveto
          39 193 rlineto
          -21 hlineto
          -29 -135 -64 -16 -145 0 rrcurveto
          -29 hlineto
          -69 -15 2 42 hvcurveto
          288 vlineto
          176 120 rlineto
          -14 27 rlineto
          -162 -108 rlineto
          215 vlineto
          0 58 3 11 78 2 rrcurveto
          21 vlineto
          -41 -4 -44 -1 -49 0 rrcurveto
          -49 0 -45 1 -40 4 rrcurveto
          endchar
        </CharString>
        <CharString name="M">
          383 -3 22 677 22 hstem
          125 44 537 100 vstem
          57 718 rmoveto
          -22 vlineto
          70 -2 8 -10 0 -57 rrcurveto
          -15 vlineto
          -10 -485 rlineto
          -2 -81 -8 -25 -78 -2 rrcurveto
          -22 vlineto
          27 3 35 3 43 0 rrcurveto
          46 0 34 -2 25 -4 rrcurveto
          22 vlineto
          -69 3 -9 20 0 62 rrcurveto
          13 vlineto
          7 527 rlineto
          73 -173 86 -213 99 -254 rrcurveto
          8 hlineto
          264 640 rlineto
          -554 vlineto
          0 -57 -3 -12 -74 -2 rrcurveto
          -22 vlineto
          33 3 42 3 52 0 rrcurveto
          52 0 43 -3 33 -3 rrcurveto
          22 vlineto
          -77 2 -1 13 0 64 rrcurveto
          519 vlineto
          0 65 1 12 77 2 rrcurveto
          22 vlineto
          -32 -3 -44 -1 -54 0 rrcurveto
          -15 0 -21 1 -28 3 rrcurveto
          -221 -553 rlineto
          -67 169 -73 184 -83 200 rrcurveto
          -25 -3 -27 -1 -29 0 rrcurveto
          -38 0 -37 1 -33 3 rrcurveto
          endchar
        </CharString>
        <CharString name="N">
          241 -3 22 677 21 hstem
          131 43 448 43 vstem
          41 717 rmoveto
          -21 vlineto
          7 hlineto
          19 0 13 -4 9 -9 rrcurveto
          42 -42 rlineto
          -514 vlineto
          0 -83 -4 -23 -85 -2 rrcurveto
          -22 vlineto
          27 3 35 3 43 0 rrcurveto
          43 0 36 -3 27 -3 rrcurveto
          22 vlineto
          -76 5 -3 18 0 65 rrcurveto
          492 vlineto
          191 -238 160 -204 131 -168 rrcurveto
          9 hlineto
          598 vlineto
          0 81 2 25 83 3 rrcurveto
          21 vlineto
          -29 -4 -32 -1 -36 0 rrcurveto
          -41 0 -38 1 -34 4 rrcurveto
          -21 vlineto
          81 -1 1 -25 0 -77 rrcurveto
          -405 vlineto
          -135 177 -139 176 -142 176 rrcurveto
          -25 -3 -26 -1 -28 0 rrcurveto
          -27 0 -28 1 -31 3 rrcurveto
          endchar
        </CharString>
        <CharString name="Ntilde">
          241 -3 22 677 21 125 66 -42 68 hstemhm
          131 43 64 319 65 43 vstemhm
          hintmask 11001010
          41 717 rmoveto
          -21 vlineto
          7 hlineto
          19 0 13 -4 9 -9 rrcurveto
          42 -42 rlineto
          -514 vlineto
          0 -83 -4 -23 -85 -2 rrcurveto
          -22 vlineto
          27 3 35 3 43 0 rrcurveto
          43 0 36 -3 27 -3 rrcurveto
          22 vlineto
          -76 5 -3 18 0 65 rrcurveto
          492 vlineto
          191 -238 160 -204 131 -168 rrcurveto
          9 hlineto
          598 vlineto
          0 81 2 25 83 3 rrcurveto
          21 vlineto
          -29 -4 -32 -1 -36 0 rrcurveto
          -41 0 -38 1 -34 4 rrcurveto
          -21 vlineto
          81 -1 1 -25 0 -77 rrcurveto
          -405 vlineto
          -135 177 -139 176 -142 176 rrcurveto
          -25 -3 -26 -1 -28 0 rrcurveto
          -27 0 -28 1 -31 3 rrcurveto
          hintmask 00100100
          487 238 rmoveto
          -10 -34 -15 -13 -28 0 rrcurveto
          -8 0 -9 2 -13 3 rrcurveto
          -61 16 rlineto
          hintmask 00010100
          -11 3 -12 2 -12 0 rrcurveto
          -60 0 -38 -40 -13 -78 rrcurveto
          29 hlineto
          11 36 14 14 29 0 rrcurveto
          9 0 9 -1 9 -2 rrcurveto
          60 -16 rlineto
          hintmask 00100100
          14 -4 14 -1 13 0 rrcurveto
          58 0 36 37 14 76 rrcurveto
          endchar
        </CharString>
        <CharString name="O">
          258 -13 53 653 35 hstem
          53 106 497 103 vstem
          418 728 rmoveto
          -109 0 -91 -38 -66 -69 rrcurveto
          -67 -70 -32 -87 0 -109 rrcurveto
          -223 139 -145 205 vhcurveto
          215 147 150 223 hvcurveto
          0 104 -34 92 -53 59 rrcurveto
          -67 75 -86 38 -101 0 rrcurveto
          -13 -35 rmoveto
          143 108 -135 -221 hvcurveto
          -185 -89 -112 -129 vhcurveto
          -65 0 -63 29 -48 51 rrcurveto
          -65 70 -38 98 0 110 rrcurveto
          178 105 117 141 vhcurveto
          endchar
        </CharString>
        <CharString name="OE">
          423 -8 46 -36 37 315 37 283 41 -28 38 hstemhm
          43 102 355 100 189 21 vstemhm
          hintmask 01110011
          548 715 rmoveto
          hintmask 10001110
          -47 0 -49 10 -53 0 rrcurveto
          -218 -138 -149 -229 hvcurveto
          -218 124 -137 208 vhcurveto
          hintmask 01110011
          24 0 41 3 59 7 rrcurveto
          181 hlineto
          81 0 74 0 67 -2 rrcurveto
          39 174 rlineto
          -21 hlineto
          -28 -99 -54 -36 -107 0 rrcurveto
          -48 hlineto
          -67 -16 3 41 hvcurveto
          271 vlineto
          92 hlineto
          66 0 24 -21 8 -76 rrcurveto
          21 hlineto
          0 76 -1 77 0 78 rrcurveto
          -21 hlineto
          -8 -78 -24 -19 -66 0 rrcurveto
          -91 hlineto
          259 vlineto
          23 5 1 26 vhcurveto
          70 hlineto
          107 0 50 -30 14 -85 rrcurveto
          20 hlineto
          -8 158 rlineto
          -24 -2 -33 0 -43 0 rrcurveto
          -155 hlineto
          -23 0 -19 -2 -17 0 rrcurveto
          -8 0 -7 1 -7 1 rrcurveto
          hintmask 10001110
          -48 -94 rmoveto
          -516 vlineto
          -47 -27 -20 -62 vhcurveto
          -74 0 -69 35 -47 63 rrcurveto
          -50 67 -26 85 0 97 rrcurveto
          187 102 115 162 vhcurveto
          65 26 -15 -51 hvcurveto
          endchar
        </CharString>
        <CharString name="Oacute">
          258 -13 53 653 35 62 20 159 20 hstem
          53 106 149 255 93 103 vstem
          418 728 rmoveto
          -109 0 -91 -38 -66 -69 rrcurveto
          -67 -70 -32 -87 0 -109 rrcurveto
          -223 139 -145 205 vhcurveto
          215 147 150 223 hvcurveto
          0 104 -34 92 -53 59 rrcurveto
          -67 75 -86 38 -101 0 rrcurveto
          -13 -35 rmoveto
          143 108 -135 -221 hvcurveto
          -185 -89 -112 -129 vhcurveto
          -65 0 -63 29 -48 51 rrcurveto
          -65 70 -38 98 0 110 rrcurveto
          178 105 117 141 vhcurveto
          124 211 rmoveto
          23 14 11 16 0 16 rrcurveto
          23 -17 16 -23 vhcurveto
          -19 0 -16 -12 -20 -21 rrcurveto
          -160 -166 rlineto
          37 hlineto
          endchar
        </CharString>
        <CharString name="Ocircumflex">
          258 -13 53 653 35 62 20 154 20 hstem
          53 106 85 324 88 103 vstem
          418 728 rmoveto
          -109 0 -91 -38 -66 -69 rrcurveto
          -67 -70 -32 -87 0 -109 rrcurveto
          -223 139 -145 205 vhcurveto
          215 147 150 223 hvcurveto
          0 104 -34 92 -53 59 rrcurveto
          -67 75 -86 38 -101 0 rrcurveto
          -13 -35 rmoveto
          143 108 -135 -221 hvcurveto
          -185 -89 -112 -129 vhcurveto
          -65 0 -63 29 -48 51 rrcurveto
          -65 70 -38 98 0 110 rrcurveto
          178 105 117 141 vhcurveto
          -32 291 rmoveto
          -129 -194 rlineto
          33 hlineto
          129 117 rlineto
          130 -117 rlineto
          32 hlineto
          -129 194 rlineto
          endchar
        </CharString>
        <CharString name="Odieresis">
          258 -13 53 653 35 92 112 hstem
          53 106 94 111 84 111 97 103 vstem
          418 728 rmoveto
          -109 0 -91 -38 -66 -69 rrcurveto
          -67 -70 -32 -87 0 -109 rrcurveto
          -223 139 -145 205 vhcurveto
          215 147 150 223 hvcurveto
          0 104 -34 92 -53 59 rrcurveto
          -67 75 -86 38 -101 0 rrcurveto
          -13 -35 rmoveto
          143 108 -135 -221 hvcurveto
          -185 -89 -112 -129 vhcurveto
          -65 0 -63 29 -48 51 rrcurveto
          -65 70 -38 98 0 110 rrcurveto
          178 105 117 141 vhcurveto
          -96 239 rmoveto
          -30 -26 -26 -30 hvcurveto
          -32 25 -24 31 vhcurveto
          31 24 25 31 hvcurveto
          30 -25 26 -30 vhcurveto
          195 hmoveto
          -30 -26 -26 -30 hvcurveto
          -32 25 -24 31 vhcurveto
          31 24 25 31 hvcurveto
          30 -25 26 -30 vhcurveto
          endchar
        </CharString>
        <CharString name="Ograve">
          258 -13 53 653 35 62 20 159 20 hstem
          53 106 90 255 152 103 vstem
          418 728 rmoveto
          -109 0 -91 -38 -66 -69 rrcurveto
          -67 -70 -32 -87 0 -109 rrcurveto
          -223 139 -145 205 vhcurveto
          215 147 150 223 hvcurveto
          0 104 -34 92 -53 59 rrcurveto
          -67 75 -86 38 -101 0 rrcurveto
          -13 -35 rmoveto
          143 108 -135 -221 hvcurveto
          -185 -89 -112 -129 vhcurveto
          -65 0 -63 29 -48 51 rrcurveto
          -65 70 -38 98 0 110 rrcurveto
          178 105 117 141 vhcurveto
          -61 263 rmoveto
          -20 21 -16 12 -20 0 rrcurveto
          -22 -17 -17 -23 hvcurveto
          0 -16 12 -15 23 -14 rrcurveto
          183 -114 rlineto
          37 hlineto
          endchar
        </CharString>
        <CharString name="Oslash">
          258 -13 53 653 35 hstem
          53 106 497 103 vstem
          664 739 rmoveto
          -52 -70 rlineto
          -56 43 -61 16 -77 0 rrcurveto
          -108 0 -92 -38 -66 -69 rrcurveto
          -67 -71 -32 -87 0 -109 rrcurveto
          0 -119 37 -91 79 -75 rrcurveto
          -72 -95 rlineto
          30 -21 rlineto
          71 95 rlineto
          52 -42 65 -19 80 0 rrcurveto
          219 145 150 223 hvcurveto
          0 123 -41 96 -77 65 rrcurveto
          54 74 rlineto
          -123 -106 rmoveto
          -340 -456 rlineto
          -48 72 -25 83 0 91 rrcurveto
          173 106 118 140 vhcurveto
          72 0 58 -30 37 -51 rrcurveto
          21 -33 rmoveto
          44 -64 19 -79 0 -99 rrcurveto
          -185 -89 -112 -127 vhcurveto
          -69 0 -64 30 -49 58 rrcurveto
          endchar
        </CharString>
        <CharString name="Otilde">
          258 -13 53 653 35 114 66 -42 68 hstemhm
          53 106 87 319 91 103 vstemhm
          hintmask 11001010
          418 728 rmoveto
          -109 0 -91 -38 -66 -69 rrcurveto
          -67 -70 -32 -87 0 -109 rrcurveto
          -223 139 -145 205 vhcurveto
          215 147 150 223 hvcurveto
          0 104 -34 92 -53 59 rrcurveto
          -67 75 -86 38 -101 0 rrcurveto
          -13 -35 rmoveto
          143 108 -135 -221 hvcurveto
          -185 -89 -112 -129 vhcurveto
          -65 0 -63 29 -48 51 rrcurveto
          -65 70 -38 98 0 110 rrcurveto
          178 105 117 141 vhcurveto
          hintmask 00100100
          131 262 rmoveto
          -10 -34 -15 -13 -28 0 rrcurveto
          -8 0 -9 2 -13 3 rrcurveto
          -61 16 rlineto
          hintmask 00010100
          -11 3 -12 2 -12 0 rrcurveto
          -60 0 -38 -40 -13 -78 rrcurveto
          29 hlineto
          11 36 14 14 29 0 rrcurveto
          9 0 9 -1 9 -2 rrcurveto
          60 -16 rlineto
          hintmask 00100100
          14 -4 14 -1 13 0 rrcurveto
          58 0 36 37 14 76 rrcurveto
          endchar
        </CharString>
        <CharString name="P">
          52 -3 22 291 29 346 32 hstem
          130 105 219 107 vstem
          57 717 rmoveto
          -21 vlineto
          72 -3 1 -12 0 -64 rrcurveto
          -514 vlineto
          0 -69 0 -13 -80 -2 rrcurveto
          -22 vlineto
          47 3 45 3 41 0 rrcurveto
          46 0 45 -3 42 -3 rrcurveto
          22 vlineto
          -81 2 0 13 0 69 rrcurveto
          209 vlineto
          12 -1 18 -1 22 0 rrcurveto
          184 90 69 142 hvcurveto
          0 83 -35 57 -64 27 rrcurveto
          -56 23 -66 1 -76 0 rrcurveto
          -19 hlineto
          -65 0 -62 0 -61 5 rrcurveto
          178 -378 rmoveto
          320 vlineto
          26 6 0 34 vhcurveto
          109 70 -68 -111 hvcurveto
          -120 -60 -47 -135 vhcurveto
          endchar
        </CharString>
        <CharString name="Q">
          258 -69 24 31 54 653 35 hstem
          53 106 497 105 vstem
          405 693 rmoveto
          143 108 -135 -221 hvcurveto
          -185 -89 -112 -129 vhcurveto
          -65 0 -63 29 -48 51 rrcurveto
          -65 70 -38 98 0 110 rrcurveto
          178 105 117 141 vhcurveto
          198 -643 rmoveto
          105 58 53 98 0 135 rrcurveto
          239 -141 148 -202 vhcurveto
          -109 0 -91 -38 -66 -69 rrcurveto
          -67 -70 -32 -87 0 -109 rrcurveto
          -223 142 -146 198 vhcurveto
          37 0 41 7 44 13 rrcurveto
          68 -43 94 -27 117 -5 rrcurveto
          24 vlineto
          -76 14 -66 34 -49 47 rrcurveto
          endchar
        </CharString>
        <CharString name="R">
          126 -3 22 283 31 348 36 hstem
          130 105 240 110 vstem
          48 717 rmoveto
          -21 vlineto
          82 -2 0 -12 0 -70 rrcurveto
          -509 vlineto
          0 -70 0 -12 -82 -2 rrcurveto
          -22 vlineto
          35 3 45 3 55 0 rrcurveto
          55 0 44 -3 35 -3 rrcurveto
          22 vlineto
          -82 2 0 12 0 70 rrcurveto
          199 vlineto
          19 3 15 1 11 0 rrcurveto
          28 0 10 -5 15 -21 rrcurveto
          210 -283 rlineto
          26 2 27 0 27 0 rrcurveto
          28 0 28 0 29 -2 rrcurveto
          22 vlineto
          -50 0 -24 31 -37 47 rrcurveto
          -182 231 rlineto
          108 27 62 74 0 97 rrcurveto
          0 79 -45 63 -72 24 rrcurveto
          -55 18 -61 2 -71 0 rrcurveto
          -79 hlineto
          -57 0 -51 1 -46 4 rrcurveto
          187 -384 rmoveto
          311 vlineto
          35 5 2 30 vhcurveto
          15 hlineto
          120 70 -66 -113 hvcurveto
          -106 -75 -66 -125 vhcurveto
          -12 0 -14 1 -14 2 rrcurveto
          endchar
        </CharString>
        <CharString name="S">
          72 -14 51 653 38 hstem
          83 86 286 83 vstem
          494 715 rmoveto
          -21 -8 -16 -5 -13 0 rrcurveto
          -31 0 -48 26 -69 0 rrcurveto
          -130 -83 -76 -103 hvcurveto
          0 -59 25 -45 53 -42 rrcurveto
          20 -16 55 -28 85 -45 rrcurveto
          85 -44 49 -30 0 -75 rrcurveto
          -72 -58 -56 -83 vhcurveto
          -107 0 -76 70 -29 130 rrcurveto
          -20 hlineto
          -248 vlineto
          19 20 16 10 21 0 rrcurveto
          36 0 57 -33 79 0 rrcurveto
          134 94 93 121 hvcurveto
          0 107 -59 45 -106 57 rrcurveto
          -124 66 -80 30 0 81 rrcurveto
          59 48 45 73 vhcurveto
          90 0 67 -52 29 -98 rrcurveto
          18 hlineto
          endchar
        </CharString>
        <CharString name="Scaron">
          72 -14 51 653 38 62 20 154 20 hstemhm
          83 86 -18 324 -20 83 vstemhm
          hintmask 11001010
          494 715 rmoveto
          -21 -8 -16 -5 -13 0 rrcurveto
          -31 0 -48 26 -69 0 rrcurveto
          -130 -83 -76 -103 hvcurveto
          0 -59 25 -45 53 -42 rrcurveto
          20 -16 55 -28 85 -45 rrcurveto
          85 -44 49 -30 0 -75 rrcurveto
          -72 -58 -56 -83 vhcurveto
          -107 0 -76 70 -29 130 rrcurveto
          -20 hlineto
          -248 vlineto
          19 20 16 10 21 0 rrcurveto
          36 0 57 -33 79 0 rrcurveto
          134 94 93 121 hvcurveto
          0 107 -59 45 -106 57 rrcurveto
          -124 66 -80 30 0 81 rrcurveto
          59 48 45 73 vhcurveto
          90 0 67 -52 29 -98 rrcurveto
          18 hlineto
          hintmask 00110100
          -343 444 rmoveto
          129 -194 rlineto
          66 hlineto
          129 194 rlineto
          -32 hlineto
          -130 -117 rlineto
          -129 117 rlineto
          endchar
        </CharString>
        <CharString name="T">
          116 -3 22 657 41 hstem
          282 106 vstem
          47 717 rmoveto
          -2 -64 -5 -59 -8 -57 rrcurveto
          23 hlineto
          10 95 58 44 111 0 rrcurveto
          48 hlineto
          -573 vlineto
          0 -70 0 -12 -82 -2 rrcurveto
          -22 vlineto
          35 3 45 3 55 0 rrcurveto
          55 0 44 -3 35 -3 rrcurveto
          22 vlineto
          -80 2 -1 11 0 66 rrcurveto
          578 vlineto
          66 hlineto
          110 0 37 -24 4 -115 rrcurveto
          22 hlineto
          1 67 2 59 4 54 rrcurveto
          -46 -4 -53 -1 -59 0 rrcurveto
          -62 hlineto
          -190 0 -122 0 -55 5 rrcurveto
          endchar
        </CharString>
        <CharString name="Thorn">
          52 -3 22 145 29 346 28 129 21 hstem
          130 105 219 107 vstem
          48 717 rmoveto
          -21 vlineto
          82 -2 0 -12 0 -70 rrcurveto
          -509 vlineto
          0 -70 0 -12 -82 -2 rrcurveto
          -22 vlineto
          35 3 45 3 55 0 rrcurveto
          55 0 44 -3 35 -3 rrcurveto
          22 vlineto
          -82 2 0 12 0 70 rrcurveto
          63 vlineto
          12 -1 18 -1 22 0 rrcurveto
          184 90 69 142 hvcurveto
          134 -82 58 -178 vhcurveto
          -20 0 -23 0 -23 -2 rrcurveto
          56 vlineto
          0 63 4 9 78 3 rrcurveto
          21 vlineto
          -40 -4 -45 -1 -49 0 rrcurveto
          -49 0 -45 1 -41 4 rrcurveto
          187 -524 rmoveto
          320 vlineto
          25 6 1 34 vhcurveto
          108 71 -67 -112 hvcurveto
          -120 -60 -47 -135 vhcurveto
          endchar
        </CharString>
        <CharString name="U">
          232 -13 60 649 21 hstem
          130 105 377 43 vstem
          48 717 rmoveto
          -21 vlineto
          82 -2 0 -12 0 -70 rrcurveto
          -325 vlineto
          0 -97 0 -72 43 -58 rrcurveto
          37 -50 68 -23 99 0 rrcurveto
          118 0 79 33 47 72 rrcurveto
          27 42 7 70 0 100 rrcurveto
          283 vlineto
          0 82 0 24 78 3 rrcurveto
          21 vlineto
          -27 -4 -34 -1 -38 0 rrcurveto
          -36 0 -32 1 -29 4 rrcurveto
          -21 vlineto
          70 -3 5 -17 0 -57 rrcurveto
          -328 vlineto
          -171 -42 -73 -144 vhcurveto
          -80 0 -57 27 -28 42 rrcurveto
          -22 34 -4 63 0 98 rrcurveto
          301 vlineto
          0 70 0 12 82 2 rrcurveto
          21 vlineto
          -40 -4 -45 -1 -49 0 rrcurveto
          -49 0 -45 1 -41 4 rrcurveto
          endchar
        </CharString>
        <CharString name="Uacute">
          232 -13 60 649 21 73 20 159 20 hstem
          130 105 60 255 62 43 vstem
          48 717 rmoveto
          -21 vlineto
          82 -2 0 -12 0 -70 rrcurveto
          -325 vlineto
          0 -97 0 -72 43 -58 rrcurveto
          37 -50 68 -23 99 0 rrcurveto
          118 0 79 33 47 72 rrcurveto
          27 42 7 70 0 100 rrcurveto
          283 vlineto
          0 82 0 24 78 3 rrcurveto
          21 vlineto
          -27 -4 -34 -1 -38 0 rrcurveto
          -36 0 -32 1 -29 4 rrcurveto
          -21 vlineto
          70 -3 5 -17 0 -57 rrcurveto
          -328 vlineto
          -171 -42 -73 -144 vhcurveto
          -80 0 -57 27 -28 42 rrcurveto
          -22 34 -4 63 0 98 rrcurveto
          301 vlineto
          0 70 0 12 82 2 rrcurveto
          21 vlineto
          -40 -4 -45 -1 -49 0 rrcurveto
          -49 0 -45 1 -41 4 rrcurveto
          468 187 rmoveto
          23 14 11 16 0 16 rrcurveto
          23 -17 16 -23 vhcurveto
          -19 0 -16 -12 -20 -21 rrcurveto
          -160 -166 rlineto
          37 hlineto
          endchar
        </CharString>
        <CharString name="Ucircumflex">
          232 -13 60 649 21 73 20 154 20 hstemhm
          130 105 -4 324 57 43 vstemhm
          hintmask 11001010
          48 717 rmoveto
          -21 vlineto
          82 -2 0 -12 0 -70 rrcurveto
          -325 vlineto
          0 -97 0 -72 43 -58 rrcurveto
          37 -50 68 -23 99 0 rrcurveto
          118 0 79 33 47 72 rrcurveto
          27 42 7 70 0 100 rrcurveto
          283 vlineto
          0 82 0 24 78 3 rrcurveto
          21 vlineto
          -27 -4 -34 -1 -38 0 rrcurveto
          -36 0 -32 1 -29 4 rrcurveto
          -21 vlineto
          70 -3 5 -17 0 -57 rrcurveto
          -328 vlineto
          -171 -42 -73 -144 vhcurveto
          -80 0 -57 27 -28 42 rrcurveto
          -22 34 -4 63 0 98 rrcurveto
          301 vlineto
          0 70 0 12 82 2 rrcurveto
          21 vlineto
          -40 -4 -45 -1 -49 0 rrcurveto
          -49 0 -45 1 -41 4 rrcurveto
          hintmask 00110100
          312 267 rmoveto
          -129 -194 rlineto
          33 hlineto
          129 117 rlineto
          130 -117 rlineto
          32 hlineto
          -129 194 rlineto
          endchar
        </CharString>
        <CharString name="Udieresis">
          232 -13 60 649 21 103 112 hstem
          130 105 5 111 84 111 66 43 vstem
          48 717 rmoveto
          -21 vlineto
          82 -2 0 -12 0 -70 rrcurveto
          -325 vlineto
          0 -97 0 -72 43 -58 rrcurveto
          37 -50 68 -23 99 0 rrcurveto
          118 0 79 33 47 72 rrcurveto
          27 42 7 70 0 100 rrcurveto
          283 vlineto
          0 82 0 24 78 3 rrcurveto
          21 vlineto
          -27 -4 -34 -1 -38 0 rrcurveto
          -36 0 -32 1 -29 4 rrcurveto
          -21 vlineto
          70 -3 5 -17 0 -57 rrcurveto
          -328 vlineto
          -171 -42 -73 -144 vhcurveto
          -80 0 -57 27 -28 42 rrcurveto
          -22 34 -4 63 0 98 rrcurveto
          301 vlineto
          0 70 0 12 82 2 rrcurveto
          21 vlineto
          -40 -4 -45 -1 -49 0 rrcurveto
          -49 0 -45 1 -41 4 rrcurveto
          248 215 rmoveto
          -30 -26 -26 -30 hvcurveto
          -32 25 -24 31 vhcurveto
          31 24 25 31 hvcurveto
          30 -25 26 -30 vhcurveto
          195 hmoveto
          -30 -26 -26 -30 hvcurveto
          -32 25 -24 31 vhcurveto
          31 24 25 31 hvcurveto
          30 -25 26 -30 vhcurveto
          endchar
        </CharString>
        <CharString name="Ugrave">
          232 -13 60 649 21 73 20 159 20 hstem
          130 105 1 255 121 43 vstem
          48 717 rmoveto
          -21 vlineto
          82 -2 0 -12 0 -70 rrcurveto
          -325 vlineto
          0 -97 0 -72 43 -58 rrcurveto
          37 -50 68 -23 99 0 rrcurveto
          118 0 79 33 47 72 rrcurveto
          27 42 7 70 0 100 rrcurveto
          283 vlineto
          0 82 0 24 78 3 rrcurveto
          21 vlineto
          -27 -4 -34 -1 -38 0 rrcurveto
          -36 0 -32 1 -29 4 rrcurveto
          -21 vlineto
          70 -3 5 -17 0 -57 rrcurveto
          -328 vlineto
          -171 -42 -73 -144 vhcurveto
          -80 0 -57 27 -28 42 rrcurveto
          -22 34 -4 63 0 98 rrcurveto
          301 vlineto
          0 70 0 12 82 2 rrcurveto
          21 vlineto
          -40 -4 -45 -1 -49 0 rrcurveto
          -49 0 -45 1 -41 4 rrcurveto
          283 239 rmoveto
          -20 21 -16 12 -20 0 rrcurveto
          -22 -17 -17 -23 hvcurveto
          0 -16 12 -15 23 -14 rrcurveto
          183 -114 rlineto
          37 hlineto
          endchar
        </CharString>
        <CharString name="V">
          129 -22 20 698 21 hstem
          -13 709 vstem
          -13 717 rmoveto
          -21 vlineto
          50 -1 15 -25 22 -53 rrcurveto
          261 -639 rlineto
          9 hlineto
          268 647 rlineto
          20 49 20 22 44 0 rrcurveto
          21 vlineto
          -32 -4 -33 -1 -33 0 rrcurveto
          -31 0 -31 2 -34 3 rrcurveto
          -21 vlineto
          47 -1 23 -8 0 -21 rrcurveto
          0 -5 -2 -12 -7 -18 rrcurveto
          -191 -484 rlineto
          -182 459 rlineto
          -9 23 -5 15 0 11 rrcurveto
          31 22 10 49 vhcurveto
          21 vlineto
          -39 -4 -44 -1 -47 0 rrcurveto
          -47 0 -44 1 -39 4 rrcurveto
          endchar
        </CharString>
        <CharString name="W">
          411 -22 20 698 21 hstem
          -13 992 vstem
          -13 717 rmoveto
          -21 vlineto
          45 0 22 -24 20 -55 rrcurveto
          228 -639 rlineto
          9 hlineto
          175 472 rlineto
          161 -472 rlineto
          11 hlineto
          238 647 rlineto
          18 50 23 21 42 0 rrcurveto
          21 vlineto
          -32 -4 -32 -1 -33 0 rrcurveto
          -31 0 -31 2 -34 3 rrcurveto
          -21 vlineto
          48 -1 21 -7 0 -23 rrcurveto
          0 -10 -3 -10 -5 -14 rrcurveto
          -165 -477 rlineto
          -148 444 rlineto
          -10 29 -5 20 0 8 rrcurveto
          0 24 25 13 51 4 rrcurveto
          21 vlineto
          -39 -4 -44 -1 -47 0 rrcurveto
          -47 0 -44 1 -39 4 rrcurveto
          -21 vlineto
          49 -5 18 -16 15 -40 rrcurveto
          49 -127 rlineto
          -129 -338 rlineto
          -147 436 rlineto
          -7 22 -5 16 0 11 rrcurveto
          27 21 14 40 vhcurveto
          8 hlineto
          21 vlineto
          -39 -4 -44 -1 -47 0 rrcurveto
          -47 0 -44 1 -39 4 rrcurveto
          endchar
        </CharString>
        <CharString name="X">
          116 -3 22 676 21 hstem
          -30 729 vstem
          -22 716 rmoveto
          -21 vlineto
          28 -1 20 -3 13 -7 rrcurveto
          11 -6 13 -15 15 -21 rrcurveto
          207 -291 rlineto
          -191 -257 rlineto
          -37 -49 -25 -26 -53 0 rrcurveto
          -9 hlineto
          -22 vlineto
          36 3 36 2 36 0 rrcurveto
          26 0 36 -2 47 -3 rrcurveto
          22 vlineto
          -46 1 -19 3 0 23 rrcurveto
          0 12 8 12 10 14 rrcurveto
          169 235 rlineto
          159 -234 rlineto
          11 -15 5 -13 0 -11 rrcurveto
          0 -19 -19 -7 -40 -1 rrcurveto
          -22 vlineto
          35 3 45 3 56 0 rrcurveto
          56 0 46 -3 36 -3 rrcurveto
          22 vlineto
          -51 1 -18 15 -25 36 rrcurveto
          -230 327 rlineto
          161 221 rlineto
          36 49 26 27 53 0 rrcurveto
          9 hlineto
          21 vlineto
          -35 -3 -36 -2 -37 0 rrcurveto
          -31 0 -36 2 -41 3 rrcurveto
          -21 vlineto
          44 21 -9 -17 hvcurveto
          0 -8 -7 -13 -12 -18 rrcurveto
          -139 -199 rlineto
          -136 197 rlineto
          -12 17 -5 15 0 7 rrcurveto
          0 21 18 6 39 1 rrcurveto
          21 vlineto
          -42 -4 -45 -1 -51 0 rrcurveto
          -51 0 -46 1 -42 4 rrcurveto
          endchar
        </CharString>
        <CharString name="Y">
          75 -3 22 677 21 hstem
          278 102 vstem
          -27 717 rmoveto
          -21 vlineto
          51 -4 37 -36 44 -67 rrcurveto
          173 -264 rlineto
          -226 vlineto
          0 -69 -1 -7 -92 -4 rrcurveto
          -22 vlineto
          36 3 47 3 58 0 rrcurveto
          57 0 46 -3 37 -3 rrcurveto
          22 vlineto
          -85 1 -1 11 0 67 rrcurveto
          250 vlineto
          167 244 rlineto
          40 58 25 40 51 6 rrcurveto
          21 vlineto
          -33 -4 -34 -1 -34 0 rrcurveto
          -32 0 -32 2 -36 3 rrcurveto
          -21 vlineto
          48 -2 23 -10 0 -21 rrcurveto
          0 -11 -10 -14 -14 -22 rrcurveto
          -157 -240 rlineto
          -152 249 rlineto
          -10 17 -7 11 0 10 rrcurveto
          0 22 19 6 42 5 rrcurveto
          21 vlineto
          -41 -4 -45 -1 -49 0 rrcurveto
          -49 0 -46 1 -41 4 rrcurveto
          endchar
        </CharString>
        <CharString name="Yacute">
          75 -3 22 677 21 73 20 159 20 hstemhm
          217 255 -194 102 vstemhm
          hintmask 11000100
          -27 717 rmoveto
          -21 vlineto
          51 -4 37 -36 44 -67 rrcurveto
          173 -264 rlineto
          -226 vlineto
          0 -69 -1 -7 -92 -4 rrcurveto
          -22 vlineto
          36 3 47 3 58 0 rrcurveto
          57 0 46 -3 37 -3 rrcurveto
          22 vlineto
          -85 1 -1 11 0 67 rrcurveto
          250 vlineto
          167 244 rlineto
          40 58 25 40 51 6 rrcurveto
          21 vlineto
          -33 -4 -34 -1 -34 0 rrcurveto
          -32 0 -32 2 -36 3 rrcurveto
          -21 vlineto
          48 -2 23 -10 0 -21 rrcurveto
          0 -11 -10 -14 -14 -22 rrcurveto
          -157 -240 rlineto
          -152 249 rlineto
          -10 17 -7 11 0 10 rrcurveto
          0 22 19 6 42 5 rrcurveto
          21 vlineto
          -41 -4 -45 -1 -49 0 rrcurveto
          -49 0 -46 1 -41 4 rrcurveto
          hintmask 00111000
          465 187 rmoveto
          23 14 11 16 0 16 rrcurveto
          23 -17 16 -23 vhcurveto
          -19 0 -16 -12 -20 -21 rrcurveto
          -160 -166 rlineto
          37 hlineto
          endchar
        </CharString>
        <CharString name="Ydieresis">
          75 -3 22 677 21 103 112 hstemhm
          162 111 5 102 -23 111 vstemhm
          hintmask 11001000
          -27 717 rmoveto
          -21 vlineto
          51 -4 37 -36 44 -67 rrcurveto
          173 -264 rlineto
          -226 vlineto
          0 -69 -1 -7 -92 -4 rrcurveto
          -22 vlineto
          36 3 47 3 58 0 rrcurveto
          57 0 46 -3 37 -3 rrcurveto
          22 vlineto
          -85 1 -1 11 0 67 rrcurveto
          250 vlineto
          167 244 rlineto
          40 58 25 40 51 6 rrcurveto
          21 vlineto
          -33 -4 -34 -1 -34 0 rrcurveto
          -32 0 -32 2 -36 3 rrcurveto
          -21 vlineto
          48 -2 23 -10 0 -21 rrcurveto
          0 -11 -10 -14 -14 -22 rrcurveto
          -157 -240 rlineto
          -152 249 rlineto
          -10 17 -7 11 0 10 rrcurveto
          0 22 19 6 42 5 rrcurveto
          21 vlineto
          -41 -4 -45 -1 -49 0 rrcurveto
          -49 0 -46 1 -41 4 rrcurveto
          hintmask 00110100
          245 215 rmoveto
          -30 -26 -26 -30 hvcurveto
          -32 25 -24 31 vhcurveto
          31 24 25 31 hvcurveto
          30 -25 26 -30 vhcurveto
          195 hmoveto
          -30 -26 -26 -30 hvcurveto
          -32 25 -24 31 vhcurveto
          31 24 25 31 hvcurveto
          30 -25 26 -30 vhcurveto
          endchar
        </CharString>
        <CharString name="Z">
          114 -3 49 626 45 hstem
          -3 649 vstem
          78 717 rmoveto
          -2 -52 -3 -58 -5 -65 rrcurveto
          22 hlineto
          22 105 37 25 95 0 rrcurveto
          244 hlineto
          -491 -675 rlineto
          100 3 140 1 179 0 rrcurveto
          80 0 71 -1 63 -3 rrcurveto
          -1 26 -1 25 0 24 rrcurveto
          0 41 2 40 3 39 rrcurveto
          -22 hlineto
          -7 -52 -12 -37 -26 -25 rrcurveto
          -31 -29 -53 -3 -86 0 rrcurveto
          -240 hlineto
          490 671 rlineto
          -82 -4 -109 -1 -138 0 rrcurveto
          -90 0 -80 1 -69 4 rrcurveto
          endchar
        </CharString>
        <CharString name="Zcaron">
          114 -3 49 626 45 73 20 154 20 hstemhm
          -3 649 -474 324 vstemhm
          hintmask 11001000
          78 717 rmoveto
          -2 -52 -3 -58 -5 -65 rrcurveto
          22 hlineto
          22 105 37 25 95 0 rrcurveto
          244 hlineto
          -491 -675 rlineto
          100 3 140 1 179 0 rrcurveto
          80 0 71 -1 63 -3 rrcurveto
          -1 26 -1 25 0 24 rrcurveto
          0 41 2 40 3 39 rrcurveto
          -22 hlineto
          -7 -52 -12 -37 -26 -25 rrcurveto
          -31 -29 -53 -3 -86 0 rrcurveto
          -240 hlineto
          490 671 rlineto
          -82 -4 -109 -1 -138 0 rrcurveto
          -90 0 -80 1 -69 4 rrcurveto
          hintmask 00110100
          94 267 rmoveto
          129 -194 rlineto
          66 hlineto
          129 194 rlineto
          -32 hlineto
          -130 -117 rlineto
          -129 117 rlineto
          endchar
        </CharString>
        <CharString name="a">
          -77 -13 66 -65 54 224 25 159 30 hstemhm
          28 94 189 84 vstemhm
          hintmask 10111100
          395 320 rmoveto
          113 -41 47 -125 vhcurveto
          -106 -63 -54 -68 hvcurveto
          -29 9 -13 26 vhcurveto
          35 15 6 23 hvcurveto
          0 18 -1 10 0 3 rrcurveto
          49 32 25 61 vhcurveto
          45 29 -28 -43 hvcurveto
          -88 vlineto
          -188 -30 -95 -64 0 -96 rrcurveto
          -68 46 -46 74 vhcurveto
          44 0 55 28 64 57 rrcurveto
          -4 vlineto
          hintmask 01000100
          -54 18 -26 39 vhcurveto
          28 0 31 18 32 37 rrcurveto
          -10 19 rlineto
          -14 -14 -14 -6 -12 0 rrcurveto
          -9 -5 9 17 hvcurveto
          hintmask 10111100
          -84 198 rmoveto
          -169 vlineto
          -40 -29 -36 -15 -34 0 rrcurveto
          -51 -28 27 47 hvcurveto
          0 62 63 44 126 33 rrcurveto
          endchar
        </CharString>
        <CharString name="aacute">
          -77 -13 66 -65 54 224 25 159 30 62 20 159 20 hstemhm
          28 94 19 255 -85 84 vstemhm
          hintmask 1011001010000000
          395 320 rmoveto
          113 -41 47 -125 vhcurveto
          -106 -63 -54 -68 hvcurveto
          -29 9 -13 26 vhcurveto
          35 15 6 23 hvcurveto
          0 18 -1 10 0 3 rrcurveto
          49 32 25 61 vhcurveto
          45 29 -28 -43 hvcurveto
          -88 vlineto
          -188 -30 -95 -64 0 -96 rrcurveto
          -68 46 -46 74 vhcurveto
          44 0 55 28 64 57 rrcurveto
          -4 vlineto
          hintmask 0100000010000000
          -54 18 -26 39 vhcurveto
          28 0 31 18 32 37 rrcurveto
          -10 19 rlineto
          -14 -14 -14 -6 -12 0 rrcurveto
          -9 -5 9 17 hvcurveto
          hintmask 1011001010000000
          -84 198 rmoveto
          -169 vlineto
          -40 -29 -36 -15 -34 0 rrcurveto
          -51 -28 27 47 hvcurveto
          0 62 63 44 126 33 rrcurveto
          hintmask 0000110100000000
          51 390 rmoveto
          23 14 11 16 0 16 rrcurveto
          23 -17 16 -23 vhcurveto
          -19 0 -16 -12 -20 -21 rrcurveto
          -160 -166 rlineto
          37 hlineto
          endchar
        </CharString>
        <CharString name="acircumflex">
          -77 -13 66 -65 54 224 25 159 30 62 20 154 20 hstemhm
          28 94 -45 324 -90 84 vstemhm
          hintmask 1011001010000000
          395 320 rmoveto
          113 -41 47 -125 vhcurveto
          -106 -63 -54 -68 hvcurveto
          -29 9 -13 26 vhcurveto
          35 15 6 23 hvcurveto
          0 18 -1 10 0 3 rrcurveto
          49 32 25 61 vhcurveto
          45 29 -28 -43 hvcurveto
          -88 vlineto
          -188 -30 -95 -64 0 -96 rrcurveto
          -68 46 -46 74 vhcurveto
          44 0 55 28 64 57 rrcurveto
          -4 vlineto
          hintmask 0100000010000000
          -54 18 -26 39 vhcurveto
          28 0 31 18 32 37 rrcurveto
          -10 19 rlineto
          -14 -14 -14 -6 -12 0 rrcurveto
          -9 -5 9 17 hvcurveto
          hintmask 1011001010000000
          -84 198 rmoveto
          -169 vlineto
          -40 -29 -36 -15 -34 0 rrcurveto
          -51 -28 27 47 hvcurveto
          0 62 63 44 126 33 rrcurveto
          hintmask 0000110100000000
          -105 470 rmoveto
          -129 -194 rlineto
          33 hlineto
          129 117 rlineto
          130 -117 rlineto
          32 hlineto
          -129 194 rlineto
          endchar
        </CharString>
        <CharString name="acute">
          -54 542 20 159 20 hstem
          152 255 vstem
          373 656 rmoveto
          23 14 11 16 0 16 rrcurveto
          23 -17 16 -23 vhcurveto
          -19 0 -16 -12 -20 -21 rrcurveto
          -160 -166 rlineto
          37 hlineto
          endchar
        </CharString>
        <CharString name="adieresis">
          -77 -13 66 -65 54 224 25 159 30 92 112 hstemhm
          28 94 -36 111 84 111 -81 84 vstemhm
          hintmask 1011010010000000
          395 320 rmoveto
          113 -41 47 -125 vhcurveto
          -106 -63 -54 -68 hvcurveto
          -29 9 -13 26 vhcurveto
          35 15 6 23 hvcurveto
          0 18 -1 10 0 3 rrcurveto
          49 32 25 61 vhcurveto
          45 29 -28 -43 hvcurveto
          -88 vlineto
          -188 -30 -95 -64 0 -96 rrcurveto
          -68 46 -46 74 vhcurveto
          44 0 55 28 64 57 rrcurveto
          -4 vlineto
          hintmask 0100000010000000
          -54 18 -26 39 vhcurveto
          28 0 31 18 32 37 rrcurveto
          -10 19 rlineto
          -14 -14 -14 -6 -12 0 rrcurveto
          -9 -5 9 17 hvcurveto
          hintmask 1011010010000000
          -84 198 rmoveto
          -169 vlineto
          -40 -29 -36 -15 -34 0 rrcurveto
          -51 -28 27 47 hvcurveto
          0 62 63 44 126 33 rrcurveto
          hintmask 0000101100000000
          -169 418 rmoveto
          -30 -26 -26 -30 hvcurveto
          -32 25 -24 31 vhcurveto
          31 24 25 31 hvcurveto
          30 -25 26 -30 vhcurveto
          195 hmoveto
          -30 -26 -26 -30 hvcurveto
          -32 25 -24 31 vhcurveto
          31 24 25 31 hvcurveto
          30 -25 26 -30 vhcurveto
          endchar
        </CharString>
        <CharString name="ae">
          153 -13 75 -70 67 229 29 131 32 -29 27 hstemhm
          28 86 176 69 222 85 vstemhm
          hintmask 10110011
          581 317 rmoveto
          -219 hlineto
          5 81 50 50 60 0 rrcurveto
          60 44 -51 -80 hvcurveto
          85 -29 rmoveto
          14 vlineto
          110 -66 68 -105 vhcurveto
          -60 0 -49 -23 -41 -46 rrcurveto
          hintmask 01001110
          -22 44 -44 23 -64 0 rrcurveto
          -104 -57 -44 -69 hvcurveto
          -26 15 -15 26 vhcurveto
          42 0 -5 21 6 51 rrcurveto
          4 38 23 17 43 0 rrcurveto
          51 31 -30 -52 hvcurveto
          -74 vlineto
          -174 -29 -88 -65 0 -96 rrcurveto
          -67 45 -46 67 vhcurveto
          55 0 64 32 66 65 rrcurveto
          hintmask 10110011
          40 -68 52 -34 61 0 rrcurveto
          86 0 68 57 46 111 rrcurveto
          -19 7 rlineto
          -35 -65 -56 -35 -54 0 rrcurveto
          -85 -70 82 131 hvcurveto
          13 vlineto
          hintmask 01001110
          -69 -19 rmoveto
          -18 vlineto
          0 -47 7 -44 15 -44 rrcurveto
          -38 -35 -41 -22 -41 0 rrcurveto
          -48 -30 30 47 hvcurveto
          0 64 59 44 117 25 rrcurveto
          endchar
        </CharString>
        <CharString name="agrave">
          -77 -13 66 -65 54 224 25 159 30 62 20 159 20 hstemhm
          28 94 -40 255 -26 84 vstemhm
          hintmask 1011001010000000
          395 320 rmoveto
          113 -41 47 -125 vhcurveto
          -106 -63 -54 -68 hvcurveto
          -29 9 -13 26 vhcurveto
          35 15 6 23 hvcurveto
          0 18 -1 10 0 3 rrcurveto
          49 32 25 61 vhcurveto
          45 29 -28 -43 hvcurveto
          -88 vlineto
          -188 -30 -95 -64 0 -96 rrcurveto
          -68 46 -46 74 vhcurveto
          44 0 55 28 64 57 rrcurveto
          -4 vlineto
          hintmask 0100000010000000
          -54 18 -26 39 vhcurveto
          28 0 31 18 32 37 rrcurveto
          -10 19 rlineto
          -14 -14 -14 -6 -12 0 rrcurveto
          -9 -5 9 17 hvcurveto
          hintmask 1011001010000000
          -84 198 rmoveto
          -169 vlineto
          -40 -29 -36 -15 -34 0 rrcurveto
          -51 -28 27 47 hvcurveto
          0 62 63 44 126 33 rrcurveto
          hintmask 0000110100000000
          -134 442 rmoveto
          -20 21 -16 12 -20 0 rrcurveto
          -22 -17 -17 -23 hvcurveto
          0 -16 12 -15 23 -14 rrcurveto
          183 -114 rlineto
          37 hlineto
          endchar
        </CharString>
        <CharString name="ampersand">
          269 -15 57 -56 63 346 21 281 31 hstemhm
          43 95 80 73 173 57 vstemhm
          hintmask 10110110
          333 437 rmoveto
          -30 69 -12 54 0 32 rrcurveto
          64 38 41 54 vhcurveto
          46 35 -37 -57 hvcurveto
          0 -59 -44 -52 -87 -55 rrcurveto
          hintmask 01011110
          14 -25 rmoveto
          118 57 56 53 0 82 rrcurveto
          74 -53 50 -83 vhcurveto
          -99 -68 -72 -111 hvcurveto
          0 -44 11 -47 22 -53 rrcurveto
          -141 -71 -67 -73 0 -105 rrcurveto
          -99 72 -67 113 vhcurveto
          82 0 76 32 63 62 rrcurveto
          hintmask 10110110
          52 -63 58 -32 63 0 rrcurveto
          53 0 54 23 57 46 rrcurveto
          -10 16 rlineto
          -27 -19 -29 -9 -34 0 rrcurveto
          -68 0 -54 33 -55 69 rrcurveto
          83 103 41 66 14 20 rrcurveto
          25 36 39 23 45 3 rrcurveto
          21 vlineto
          -32 -4 -35 -1 -39 0 rrcurveto
          -39 0 -35 1 -32 4 rrcurveto
          -21 vlineto
          35 -6 14 -8 0 -23 rrcurveto
          0 -20 -29 -74 -77 -92 rrcurveto
          hintmask 01011110
          -50 62 -47 80 -43 98 rrcurveto
          -83 -40 rmoveto
          42 -91 50 -91 71 -83 rrcurveto
          -41 -39 -45 -19 -51 0 rrcurveto
          -90 -62 65 87 hvcurveto
          0 65 43 59 83 47 rrcurveto
          endchar
        </CharString>
        <CharString name="aring">
          -77 -13 66 -65 54 224 25 159 30 37 51 166 50 hstemhm
          28 94 -14 51 152 84 -69 51 vstemhm
          hintmask 0000110101000000
          243 784 rmoveto
          -75 -60 -58 -75 hvcurveto
          -75 60 -59 75 vhcurveto
          75 59 59 75 hvcurveto
          75 -59 58 -75 vhcurveto
          -1 -50 rmoveto
          46 38 -38 -46 hvcurveto
          -45 -38 -37 -46 vhcurveto
          -46 -37 36 46 hvcurveto
          47 37 37 46 vhcurveto
          hintmask 1011001010000000
          153 -414 rmoveto
          113 -41 47 -125 vhcurveto
          -106 -63 -54 -68 hvcurveto
          -29 9 -13 26 vhcurveto
          35 15 6 23 hvcurveto
          0 18 -1 10 0 3 rrcurveto
          49 32 25 61 vhcurveto
          45 29 -28 -43 hvcurveto
          -88 vlineto
          -188 -30 -95 -64 0 -96 rrcurveto
          -68 46 -46 74 vhcurveto
          44 0 55 28 64 57 rrcurveto
          -4 vlineto
          hintmask 0100000010000000
          -54 18 -26 39 vhcurveto
          28 0 31 18 32 37 rrcurveto
          -10 19 rlineto
          -14 -14 -14 -6 -12 0 rrcurveto
          -9 -5 9 17 hvcurveto
          hintmask 1011001010000000
          -84 198 rmoveto
          -169 vlineto
          -40 -29 -36 -15 -34 0 rrcurveto
          -51 -28 27 47 hvcurveto
          0 62 63 44 126 33 rrcurveto
          endchar
        </CharString>
        <CharString name="asciicircum">
          446 438 276 hstem
          201 596 vstem
          452 714 rmoveto
          -251 -276 rlineto
          47 hlineto
          251 205 rlineto
          250 -205 rlineto
          48 hlineto
          -250 276 rlineto
          endchar
        </CharString>
        <CharString name="asciitilde">
          279 231 69 -3 69 hstemhm
          87 660 vstemhm
          hintmask 10100000
          747 376 rmoveto
          -69 -49 -58 -27 -62 0 rrcurveto
          -47 0 -44 19 -49 17 rrcurveto
          hintmask 01100000
          -45 16 -45 14 -52 0 rrcurveto
          -58 0 -62 -23 -69 -47 rrcurveto
          -76 vlineto
          71 50 58 27 59 0 rrcurveto
          50 0 44 -16 47 -16 rrcurveto
          hintmask 10100000
          46 -16 44 -18 51 0 rrcurveto
          63 0 61 23 66 46 rrcurveto
          endchar
        </CharString>
        <CharString name="asterisk">
          -149 356 20 332 20 hstem
          200 565 rmoveto
          16 62 15 40 0 22 rrcurveto
          26 -12 13 -22 vhcurveto
          -22 -11 -13 -26 hvcurveto
          0 -23 15 -40 16 -61 rrcurveto
          -11 -7 rmoveto
          -58 58 -31 38 -29 0 rrcurveto
          -16 -14 -17 -18 hvcurveto
          0 -32 50 -9 95 -25 rrcurveto
          43 hmoveto
          95 25 50 9 0 33 rrcurveto
          18 -15 16 -16 vhcurveto
          -29 0 -30 -38 -58 -58 rrcurveto
          -41 -23 rmoveto
          -95 -24 -50 -10 0 -33 rrcurveto
          -18 15 -16 16 vhcurveto
          29 0 30 38 58 58 rrcurveto
          41 5 rmoveto
          -3 -5 rlineto
          58 -58 30 -38 29 0 rrcurveto
          16 15 16 18 hvcurveto
          0 33 -50 9 -95 25 rrcurveto
          -29 -16 rmoveto
          -16 -61 -15 -40 0 -23 rrcurveto
          -26 11 -13 22 vhcurveto
          22 12 13 26 hvcurveto
          0 22 -15 40 -16 62 rrcurveto
          endchar
        </CharString>
        <CharString name="at">
          432 -137 27 171 26 382 23 191 27 hstem
          69 64 158 80 521 26 vstem
          539 469 rmoveto
          44 31 -39 -61 hvcurveto
          0 -52 -21 -79 -39 -65 rrcurveto
          -35 -58 -37 -28 -42 0 rrcurveto
          -39 -30 35 58 hvcurveto
          0 63 27 89 49 74 rrcurveto
          28 42 27 21 37 0 rrcurveto
          40 -307 rmoveto
          5 -67 35 -35 62 0 rrcurveto
          43 0 45 18 39 35 rrcurveto
          70 63 40 94 0 104 rrcurveto
          202 -147 134 -226 vhcurveto
          -119 0 -105 -37 -87 -72 rrcurveto
          -108 -89 -57 -118 0 -132 rrcurveto
          0 -128 53 -109 98 -74 rrcurveto
          77 -58 102 -30 124 0 rrcurveto
          116 0 109 36 96 72 rrcurveto
          -16 20 rlineto
          -94 -68 -102 -33 -110 0 rrcurveto
          -107 0 -97 34 -70 59 rrcurveto
          -81 68 -34 83 0 116 rrcurveto
          0 127 42 107 82 81 rrcurveto
          78 77 103 41 117 0 rrcurveto
          94 0 83 -28 58 -50 rrcurveto
          68 -58 34 -73 0 -87 rrcurveto
          0 -117 -40 -91 -77 -59 rrcurveto
          -30 -23 -34 -12 -19 0 rrcurveto
          -28 -16 19 33 hvcurveto
          0 17 5 16 4 15 rrcurveto
          84 299 rlineto
          -77 hlineto
          -25 -85 rlineto
          -13 61 -37 32 -58 0 rrcurveto
          -49 0 -53 -22 -45 -43 rrcurveto
          -60 -58 -33 -73 0 -70 rrcurveto
          -100 54 -65 84 vhcurveto
          61 0 49 33 40 68 rrcurveto
          endchar
        </CharString>
        <CharString name="atilde">
          -77 -13 66 -65 54 224 25 159 30 114 66 -42 68 hstemhm
          28 94 -43 319 -87 84 vstemhm
          hintmask 1011001010000000
          395 320 rmoveto
          113 -41 47 -125 vhcurveto
          -106 -63 -54 -68 hvcurveto
          -29 9 -13 26 vhcurveto
          35 15 6 23 hvcurveto
          0 18 -1 10 0 3 rrcurveto
          49 32 25 61 vhcurveto
          45 29 -28 -43 hvcurveto
          -88 vlineto
          -188 -30 -95 -64 0 -96 rrcurveto
          -68 46 -46 74 vhcurveto
          44 0 55 28 64 57 rrcurveto
          -4 vlineto
          hintmask 0100000010000000
          -54 18 -26 39 vhcurveto
          28 0 31 18 32 37 rrcurveto
          -10 19 rlineto
          -14 -14 -14 -6 -12 0 rrcurveto
          -9 -5 9 17 hvcurveto
          hintmask 1011001010000000
          -84 198 rmoveto
          -169 vlineto
          -40 -29 -36 -15 -34 0 rrcurveto
          -51 -28 27 47 hvcurveto
          0 62 63 44 126 33 rrcurveto
          hintmask 0000100100000000
          58 441 rmoveto
          -10 -34 -15 -13 -28 0 rrcurveto
          -8 0 -9 2 -13 3 rrcurveto
          -61 16 rlineto
          hintmask 0000010100000000
          -11 3 -12 2 -12 0 rrcurveto
          -60 0 -38 -40 -13 -78 rrcurveto
          29 hlineto
          11 36 14 14 29 0 rrcurveto
          9 0 9 -1 9 -2 rrcurveto
          60 -16 rlineto
          hintmask 0000100100000000
          14 -4 14 -1 13 0 rrcurveto
          58 0 36 37 14 76 rrcurveto
          endchar
        </CharString>
        <CharString name="b">
          -35 -14 46 384 63 201 20 34 20 hstem
          66 83 255 79 vstem
          132 754 rmoveto
          -49 -25 -44 -18 -41 -11 rrcurveto
          -20 vlineto
          55 -1 13 -5 0 -40 rrcurveto
          -647 vlineto
          15 hlineto
          56 47 rlineto
          47 -31 44 -17 41 0 rrcurveto
          57 0 60 32 42 56 rrcurveto
          36 48 19 60 0 71 rrcurveto
          143 -76 83 -103 vhcurveto
          -58 0 -48 -29 -49 -60 rrcurveto
          364 vlineto
          -658 vmoveto
          254 vlineto
          29 43 41 23 40 0 rrcurveto
          84 61 -74 -118 hvcurveto
          -119 -56 -73 -82 vhcurveto
          -42 0 -39 21 -36 43 rrcurveto
          endchar
        </CharString>
        <CharString name="backslash">
          -110 -106 20 794 20 hstem
          54 359 vstem
          54 728 rmoveto
          316 -834 rlineto
          43 hlineto
          -316 834 rlineto
          endchar
        </CharString>
        <CharString name="bar">
          -54 -236 20 960 20 hstem
          214 73 vstem
          214 764 rmoveto
          -1000 vlineto
          73 hlineto
          1000 vlineto
          endchar
        </CharString>
        <CharString name="braceleft">
          -54 -119 26 388 31 388 26 hstem
          222 77 vstem
          414 740 rmoveto
          -5 hlineto
          -145 -42 -42 -127 hvcurveto
          -101 vlineto
          0 -101 -27 -34 -108 -9 rrcurveto
          -31 vlineto
          109 -9 26 -36 0 -99 rrcurveto
          -101 vlineto
          -127 42 -42 145 vhcurveto
          5 hlineto
          26 vlineto
          -96 1 -19 32 0 95 rrcurveto
          69 vlineto
          0 127 -16 55 -119 24 rrcurveto
          119 24 16 56 0 126 rrcurveto
          69 vlineto
          0 95 20 33 95 1 rrcurveto
          endchar
        </CharString>
        <CharString name="braceright">
          -54 -119 26 388 31 388 26 hstem
          202 77 vstem
          86 740 rmoveto
          -26 vlineto
          95 -1 21 -33 0 -95 rrcurveto
          -69 vlineto
          0 -126 15 -56 119 -24 rrcurveto
          -119 -24 -15 -55 0 -127 rrcurveto
          -69 vlineto
          0 -95 -21 -32 -95 -1 rrcurveto
          -26 vlineto
          5 hlineto
          145 43 42 127 hvcurveto
          101 vlineto
          0 101 27 34 108 9 rrcurveto
          31 vlineto
          -108 9 -27 34 0 101 rrcurveto
          101 vlineto
          127 -43 42 -145 vhcurveto
          endchar
        </CharString>
        <CharString name="bracketleft">
          -149 -149 31 801 32 hstem
          131 76 vstem
          131 715 rmoveto
          -864 vlineto
          223 hlineto
          31 vlineto
          -147 hlineto
          801 vlineto
          147 hlineto
          32 vlineto
          endchar
        </CharString>
        <CharString name="bracketright">
          -149 -149 31 801 32 hstem
          198 77 vstem
          51 715 rmoveto
          -32 vlineto
          147 hlineto
          -801 vlineto
          -147 hlineto
          -31 vlineto
          224 hlineto
          864 vlineto
          endchar
        </CharString>
        <CharString name="breve">
          -54 563 73 58 20 hstem
          87 325 vstem
          87 714 rmoveto
          16 -99 57 -52 90 0 rrcurveto
          91 0 56 52 15 99 rrcurveto
          -29 hlineto
          -12 -56 -41 -22 -80 0 rrcurveto
          -79 0 -42 22 -13 56 rrcurveto
          endchar
        </CharString>
        <CharString name="brokenbar">
          -54 -171 20 350 130 350 20 hstem
          214 73 vstem
          214 699 rmoveto
          -370 vlineto
          73 hlineto
          370 vlineto
          -73 -500 rmoveto
          -370 vlineto
          73 hlineto
          370 vlineto
          endchar
        </CharString>
        <CharString name="bullet">
          36 227 289 hstem
          150 289 vstem
          150 372 rmoveto
          -80 64 -65 80 vhcurveto
          80 65 66 79 hvcurveto
          80 -65 64 -79 vhcurveto
          -80 -65 -64 -80 hvcurveto
          endchar
        </CharString>
        <CharString name="c">
          -87 -13 77 388 28 hstem
          36 75 vstem
          416 167 rmoveto
          -34 -67 -53 -36 -56 0 rrcurveto
          -93 -69 79 124 hvcurveto
          113 64 72 75 vhcurveto
          56 0 8 -32 7 -48 rrcurveto
          4 -26 11 -8 30 0 rrcurveto
          25 13 13 23 hvcurveto
          64 -53 42 -86 vhcurveto
          -138 -91 -99 -153 hvcurveto
          -146 84 -95 121 vhcurveto
          90 0 76 63 28 110 rrcurveto
          endchar
        </CharString>
        <CharString name="caron">
          -54 542 20 154 20 hstem
          88 324 vstem
          88 736 rmoveto
          129 -194 rlineto
          66 hlineto
          129 194 rlineto
          -32 hlineto
          -130 -117 rlineto
          -129 117 rlineto
          endchar
        </CharString>
        <CharString name="ccedilla">
          -87 -248 45 98 43 42 20 -13 77 388 28 hstemhm
          36 75 90 35 62 74 vstemhm
          hintmask 00011100
          416 167 rmoveto
          -34 -67 -53 -36 -56 0 rrcurveto
          -93 -69 79 124 hvcurveto
          113 64 72 75 vhcurveto
          56 0 8 -32 7 -48 rrcurveto
          4 -26 11 -8 30 0 rrcurveto
          25 13 13 23 hvcurveto
          64 -53 42 -86 vhcurveto
          -138 -91 -99 -153 hvcurveto
          -146 84 -95 121 vhcurveto
          90 0 76 63 28 110 rrcurveto
          hintmask 11100011
          -234 -160 rmoveto
          -105 vlineto
          12 2 12 2 10 0 rrcurveto
          41 22 -19 -31 hvcurveto
          -36 -22 -16 -46 vhcurveto
          -29 0 -44 13 -51 28 rrcurveto
          -19 -44 rlineto
          63 -26 52 -16 47 0 rrcurveto
          78 45 38 60 hvcurveto
          56 -38 35 -65 vhcurveto
          -10 0 -11 -1 -12 -2 rrcurveto
          62 vlineto
          endchar
        </CharString>
        <CharString name="cedilla">
          -54 -248 45 98 43 42 20 hstem
          217 35 62 74 vstem
          217 hmoveto
          -105 vlineto
          12 2 12 2 10 0 rrcurveto
          41 22 -19 -31 hvcurveto
          -36 -22 -16 -46 vhcurveto
          -29 0 -44 13 -51 28 rrcurveto
          -19 -44 rlineto
          63 -26 52 -16 47 0 rrcurveto
          78 45 38 60 hvcurveto
          56 -38 35 -65 vhcurveto
          -10 0 -11 -1 -12 -2 rrcurveto
          62 vlineto
          endchar
        </CharString>
        <CharString name="cent">
          -92 20 60 75 390 27 47 20 hstem
          77 75 vstem
          370 547 rmoveto
          -21 -72 rlineto
          -16 4 -17 1 -15 0 rrcurveto
          -131 -93 -99 -152 hvcurveto
          0 -109 46 -81 82 -37 rrcurveto
          -24 -82 rlineto
          27 -12 rlineto
          25 84 rlineto
          15 -3 15 -1 15 0 rrcurveto
          97 0 70 59 31 113 rrcurveto
          -19 7 rlineto
          -35 -68 -53 -36 -62 0 rrcurveto
          -17 0 -16 4 -16 7 rrcurveto
          99 330 rlineto
          6 -52 4 -14 38 0 rrcurveto
          26 15 13 22 hvcurveto
          0 41 -25 36 -45 18 rrcurveto
          21 70 rlineto
          -59 -102 rmoveto
          -106 -347 rlineto
          -52 33 -28 61 0 83 rrcurveto
          114 64 73 71 vhcurveto
          21 0 16 -5 14 -12 rrcurveto
          endchar
        </CharString>
        <CharString name="circumflex">
          -54 542 20 154 20 hstem
          88 324 vstem
          217 736 rmoveto
          -129 -194 rlineto
          33 hlineto
          129 117 rlineto
          130 -117 rlineto
          32 hlineto
          -129 194 rlineto
          endchar
        </CharString>
        <CharString name="colon">
          -259 -12 123 210 124 hstem
          91 114 vstem
          150 445 rmoveto
          -32 -27 -28 -35 hvcurveto
          -36 22 -25 32 vhcurveto
          37 23 25 41 hvcurveto
          36 -21 22 -34 vhcurveto
          -334 vmoveto
          -31 -28 -27 -36 hvcurveto
          -36 22 -24 32 vhcurveto
          37 23 23 42 hvcurveto
          36 -21 22 -34 vhcurveto
          endchar
        </CharString>
        <CharString name="comma">
          -277 -151 20 123 111 hstem
          66 125 vstem
          41 -151 rmoveto
          96 21 54 62 0 84 rrcurveto
          55 -26 32 -39 vhcurveto
          -37 -23 -26 -38 hvcurveto
          -29 18 -18 24 vhcurveto
          12 0 12 6 14 10 rrcurveto
          -8 vlineto
          0 -61 -35 -43 -70 -27 rrcurveto
          endchar
        </CharString>
        <CharString name="copyright">
          268 -16 43 91 30 367 23 99 42 hstem
          64 45 96 87 254 21 147 44 vstem
          412 679 rmoveto
          -93 0 -88 -37 -65 -66 rrcurveto
          -66 -67 -36 -86 0 -92 rrcurveto
          0 -95 35 -84 67 -66 rrcurveto
          67 -66 85 -36 93 0 rrcurveto
          94 0 86 36 65 66 rrcurveto
          66 67 36 87 0 91 rrcurveto
          0 93 -38 90 -64 64 rrcurveto
          -65 64 -89 37 -90 0 rrcurveto
          -42 vmoveto
          78 0 79 -33 56 -56 rrcurveto
          56 -56 33 -81 0 -80 rrcurveto
          0 -79 -32 -77 -58 -59 rrcurveto
          -57 -58 -74 -31 -82 0 rrcurveto
          -81 0 -73 31 -59 58 rrcurveto
          -58 58 -31 74 0 83 rrcurveto
          0 81 30 75 58 59 rrcurveto
          57 58 78 33 80 0 rrcurveto
          136 -101 rmoveto
          -4 -21 -9 -9 -18 0 rrcurveto
          -17 0 -33 32 -62 0 rrcurveto
          -111 -89 -90 -121 hvcurveto
          -117 88 -92 113 vhcurveto
          73 0 57 35 39 68 rrcurveto
          -19 13 rlineto
          -37 -57 -45 -29 -55 0 rrcurveto
          -83 -44 64 122 hvcurveto
          120 40 61 77 vhcurveto
          69 0 47 -45 21 -88 rrcurveto
          21 hlineto
          -1 154 rlineto
          endchar
        </CharString>
        <CharString name="currency">
          -12 57 92 20 122 28 94 29 72 20 140 37 hstem
          90 96 vstem
          28 307 rmoveto
          -10 -28 rlineto
          75 hlineto
          15 -162 85 -129 134 0 rrcurveto
          87 0 69 49 49 108 rrcurveto
          -18 12 rlineto
          -48 -78 -51 -34 -54 0 rrcurveto
          -104 0 -52 110 -14 124 rrcurveto
          199 hlineto
          10 28 rlineto
          -211 hlineto
          -2 23 -1 24 0 22 rrcurveto
          25 vlineto
          230 hlineto
          10 29 rlineto
          -239 hlineto
          10 143 51 89 93 0 rrcurveto
          67 0 65 -48 16 -112 rrcurveto
          20 hlineto
          -5 168 rlineto
          -13 -3 -10 -2 -8 0 rrcurveto
          -36 0 -44 34 -60 0 rrcurveto
          -125 0 -84 -121 -25 -148 rrcurveto
          -64 hlineto
          -10 -29 rlineto
          69 hlineto
          -2 -23 -2 -22 0 -23 rrcurveto
          0 -9 1 -8 0 -9 rrcurveto
          endchar
        </CharString>
        <CharString name="d">
          -3 -13 60 -53 20 17 22 393 33 200 21 34 20 hstemhm
          36 81 254 85 vstemhm
          hintmask 10011111
          442 754 rmoveto
          -45 -22 -44 -19 -46 -13 rrcurveto
          -21 vlineto
          5 hlineto
          56 3 -16 -53 hvcurveto
          -190 vlineto
          -32 40 -39 19 -51 0 rrcurveto
          -53 0 -55 -25 -41 -46 rrcurveto
          -43 -48 -21 -60 0 -73 rrcurveto
          -145 86 -95 113 vhcurveto
          60 0 44 26 40 56 rrcurveto
          hintmask 01100101
          -75 vlineto
          29 hlineto
          36 16 38 12 41 9 rrcurveto
          22 vlineto
          -5 0 -4 -1 -4 0 rrcurveto
          -46 -8 21 55 hvcurveto
          626 vlineto
          hintmask 10011111
          -85 -407 rmoveto
          -207 vlineto
          -48 -45 -45 -58 vhcurveto
          -80 -71 87 119 hvcurveto
          115 66 78 78 vhcurveto
          63 47 -56 -43 hvcurveto
          endchar
        </CharString>
        <CharString name="dagger">
          15 -147 20 223 21 347 21 223 20 hstem
          79 412 vstem
          295 516 rmoveto
          0 65 34 41 0 41 rrcurveto
          40 -18 25 -26 vhcurveto
          -26 -18 -24 -41 hvcurveto
          0 -41 33 -41 0 -65 rrcurveto
          -31 vlineto
          -3 hlineto
          -54 0 -36 29 -39 0 rrcurveto
          -39 -24 -18 -21 hvcurveto
          -22 24 -18 39 vhcurveto
          39 0 35 29 55 0 rrcurveto
          3 hlineto
          -57 vlineto
          0 -64 -30 -42 0 -42 rrcurveto
          0 -26 30 -116 0 -216 rrcurveto
          -48 vlineto
          21 hlineto
          47 vlineto
          0 217 31 117 0 29 rrcurveto
          0 36 -31 43 0 65 rrcurveto
          57 vlineto
          3 hlineto
          54 0 36 -29 40 0 rrcurveto
          39 24 19 21 hvcurveto
          21 -24 18 -39 vhcurveto
          -40 0 -36 -29 -54 0 rrcurveto
          -3 hlineto
          endchar
        </CharString>
        <CharString name="daggerdbl">
          15 -147 20 223 21 347 21 223 20 hstem
          79 412 vstem
          295 516 rmoveto
          0 65 34 41 0 41 rrcurveto
          40 -18 25 -26 vhcurveto
          -26 -18 -24 -41 hvcurveto
          0 -41 33 -41 0 -65 rrcurveto
          -31 vlineto
          -58 0 -40 29 -34 0 rrcurveto
          -39 -24 -18 -21 hvcurveto
          -21 24 -19 36 vhcurveto
          38 0 40 29 57 0 rrcurveto
          -30 vlineto
          0 -64 -30 -42 0 -37 rrcurveto
          0 -37 30 -42 0 -65 rrcurveto
          -30 vlineto
          -58 0 -40 29 -34 0 rrcurveto
          -39 -24 -19 -21 hvcurveto
          -21 24 -18 36 vhcurveto
          37 0 41 29 57 0 rrcurveto
          -30 vlineto
          0 -65 -33 -43 0 -40 rrcurveto
          -41 18 -24 26 vhcurveto
          26 18 25 40 hvcurveto
          0 40 -34 43 0 65 rrcurveto
          30 vlineto
          56 0 41 -29 38 0 rrcurveto
          36 25 19 20 hvcurveto
          21 -24 19 -39 vhcurveto
          -35 0 -41 -29 -57 0 rrcurveto
          30 vlineto
          0 65 31 43 0 36 rrcurveto
          0 36 -31 42 0 65 rrcurveto
          30 vlineto
          56 0 40 -29 39 0 rrcurveto
          36 25 19 21 hvcurveto
          21 -24 18 -39 vhcurveto
          -35 0 -41 -29 -57 0 rrcurveto
          endchar
        </CharString>
        <CharString name="degree">
          -225 430 45 190 46 hstem
          24 46 189 46 vstem
          165 711 rmoveto
          -77 -64 -63 -78 hvcurveto
          -78 61 -62 79 vhcurveto
          80 61 64 76 hvcurveto
          78 -63 63 -77 vhcurveto
          -46 vmoveto
          53 41 -42 -52 hvcurveto
          -52 -40 -44 -54 vhcurveto
          -53 -42 43 53 hvcurveto
          53 43 41 52 vhcurveto
          endchar
        </CharString>
        <CharString name="dieresis">
          -54 572 112 hstem
          97 111 84 111 vstem
          153 684 rmoveto
          -30 -26 -26 -30 hvcurveto
          -32 25 -24 31 vhcurveto
          31 24 25 31 hvcurveto
          30 -25 26 -30 vhcurveto
          195 hmoveto
          -30 -26 -26 -30 hvcurveto
          -32 25 -24 31 vhcurveto
          31 24 25 31 hvcurveto
          30 -25 26 -30 vhcurveto
          endchar
        </CharString>
        <CharString name="divide">
          279 57 122 85 68 85 123 hstem
          356 122 vstem
          417 540 rmoveto
          -33 -28 -28 -34 hvcurveto
          -34 27 -27 34 vhcurveto
          34 27 28 33 hvcurveto
          34 -28 28 -33 vhcurveto
          -293 -208 rmoveto
          -68 vlineto
          585 hlineto
          68 vlineto
          -292 -153 rmoveto
          -33 -28 -27 -34 hvcurveto
          -34 26 -27 35 vhcurveto
          34 27 28 33 hvcurveto
          34 -28 27 -33 vhcurveto
          endchar
        </CharString>
        <CharString name="dollar">
          -155 20 124 34 647 29 50 20 hstem
          74 65 118 31 140 63 vstem
          257 769 rmoveto
          -68 vlineto
          -112 -1 -71 -68 0 -90 rrcurveto
          0 -80 61 -62 122 -73 rrcurveto
          -301 vlineto
          -97 13 -64 71 -15 119 rrcurveto
          -18 hlineto
          -208 vlineto
          9 1 7 1 7 0 rrcurveto
          46 0 53 -30 72 -5 rrcurveto
          -143 vlineto
          31 hlineto
          144 vlineto
          126 8 77 77 0 104 rrcurveto
          0 94 -68 62 -135 79 rrcurveto
          257 vlineto
          73 -9 52 -54 18 -92 rrcurveto
          21 hlineto
          169 vlineto
          -15 -6 -13 -3 -13 0 rrcurveto
          -33 0 -40 16 -50 8 rrcurveto
          70 vlineto
          -31 -95 rmoveto
          -238 vlineto
          -79 46 -39 41 0 49 rrcurveto
          0 55 46 44 72 3 rrcurveto
          31 -370 rmoveto
          94 -53 46 -52 0 -59 rrcurveto
          0 -67 -53 -48 -87 -2 rrcurveto
          endchar
        </CharString>
        <CharString name="dotaccent">
          -54 570 117 hstem
          192 117 vstem
          250 687 rmoveto
          -31 -27 -27 -32 hvcurveto
          -32 26 -26 32 vhcurveto
          33 26 26 32 hvcurveto
          32 -27 27 -32 vhcurveto
          endchar
        </CharString>
        <CharString name="dotlessi">
          -291 -2 18 390 19 35 20 hstem
          94 85 vstem
          161 480 rmoveto
          -53 -27 -44 -20 -37 -8 rrcurveto
          -19 vlineto
          55 -1 12 -5 0 -40 rrcurveto
          -272 vlineto
          0 -57 -6 -14 -60 -1 rrcurveto
          -18 vlineto
          45 3 37 1 27 0 rrcurveto
          27 0 36 -1 45 -3 rrcurveto
          18 vlineto
          -64 2 -2 10 0 60 rrcurveto
          392 vlineto
          endchar
        </CharString>
        <CharString name="e">
          -93 -13 75 226 29 131 32 hstem
          36 69 230 87 vstem
          335 317 rmoveto
          -226 hlineto
          11 84 46 47 60 0 rrcurveto
          62 47 -52 -79 hvcurveto
          87 -29 rmoveto
          0 6 1 5 0 6 rrcurveto
          105 -73 70 -104 vhcurveto
          -122 -88 -100 -158 hvcurveto
          -144 79 -91 113 vhcurveto
          91 0 71 57 45 111 rrcurveto
          -20 7 rlineto
          -36 -67 -50 -33 -61 0 rrcurveto
          -92 -71 82 131 hvcurveto
          13 vlineto
          endchar
        </CharString>
        <CharString name="eacute">
          -93 -13 75 226 29 131 32 62 20 159 20 hstemhm
          36 69 28 255 -53 87 vstemhm
          hintmask 11100101
          335 317 rmoveto
          -226 hlineto
          11 84 46 47 60 0 rrcurveto
          62 47 -52 -79 hvcurveto
          87 -29 rmoveto
          0 6 1 5 0 6 rrcurveto
          105 -73 70 -104 vhcurveto
          -122 -88 -100 -158 hvcurveto
          -144 79 -91 113 vhcurveto
          91 0 71 57 45 111 rrcurveto
          -20 7 rlineto
          -36 -67 -50 -33 -61 0 rrcurveto
          -92 -71 82 131 hvcurveto
          13 vlineto
          hintmask 00011010
          249 368 rmoveto
          23 14 11 16 0 16 rrcurveto
          23 -17 16 -23 vhcurveto
          -19 0 -16 -12 -20 -21 rrcurveto
          -160 -166 rlineto
          37 hlineto
          endchar
        </CharString>
        <CharString name="ecircumflex">
          -93 -13 75 226 29 131 32 62 20 154 20 hstemhm
          36 69 -36 324 -58 87 vstemhm
          hintmask 11100101
          335 317 rmoveto
          -226 hlineto
          11 84 46 47 60 0 rrcurveto
          62 47 -52 -79 hvcurveto
          87 -29 rmoveto
          0 6 1 5 0 6 rrcurveto
          105 -73 70 -104 vhcurveto
          -122 -88 -100 -158 hvcurveto
          -144 79 -91 113 vhcurveto
          91 0 71 57 45 111 rrcurveto
          -20 7 rlineto
          -36 -67 -50 -33 -61 0 rrcurveto
          -92 -71 82 131 hvcurveto
          13 vlineto
          hintmask 00011010
          93 448 rmoveto
          -129 -194 rlineto
          33 hlineto
          129 117 rlineto
          130 -117 rlineto
          32 hlineto
          -129 194 rlineto
          endchar
        </CharString>
        <CharString name="edieresis">
          -93 -13 75 226 29 131 32 92 112 hstemhm
          36 69 -27 111 84 111 -49 87 vstemhm
          hintmask 11101001
          335 317 rmoveto
          -226 hlineto
          11 84 46 47 60 0 rrcurveto
          62 47 -52 -79 hvcurveto
          87 -29 rmoveto
          0 6 1 5 0 6 rrcurveto
          105 -73 70 -104 vhcurveto
          -122 -88 -100 -158 hvcurveto
          -144 79 -91 113 vhcurveto
          91 0 71 57 45 111 rrcurveto
          -20 7 rlineto
          -36 -67 -50 -33 -61 0 rrcurveto
          -92 -71 82 131 hvcurveto
          13 vlineto
          hintmask 00010110
          29 396 rmoveto
          -30 -26 -26 -30 hvcurveto
          -32 25 -24 31 vhcurveto
          31 24 25 31 hvcurveto
          30 -25 26 -30 vhcurveto
          195 hmoveto
          -30 -26 -26 -30 hvcurveto
          -32 25 -24 31 vhcurveto
          31 24 25 31 hvcurveto
          30 -25 26 -30 vhcurveto
          endchar
        </CharString>
        <CharString name="egrave">
          -93 -13 75 226 29 131 32 62 20 159 20 hstemhm
          36 69 -31 255 6 87 vstemhm
          hintmask 11100101
          335 317 rmoveto
          -226 hlineto
          11 84 46 47 60 0 rrcurveto
          62 47 -52 -79 hvcurveto
          87 -29 rmoveto
          0 6 1 5 0 6 rrcurveto
          105 -73 70 -104 vhcurveto
          -122 -88 -100 -158 hvcurveto
          -144 79 -91 113 vhcurveto
          91 0 71 57 45 111 rrcurveto
          -20 7 rlineto
          -36 -67 -50 -33 -61 0 rrcurveto
          -92 -71 82 131 hvcurveto
          13 vlineto
          hintmask 00011010
          64 420 rmoveto
          -20 21 -16 12 -20 0 rrcurveto
          -22 -17 -17 -23 hvcurveto
          0 -16 12 -15 23 -14 rrcurveto
          183 -114 rlineto
          37 hlineto
          endchar
        </CharString>
        <CharString name="eight">
          -14 48 638 29 hstemhm
          54 99 -64 81 228 77 -42 66 vstemhm
          hintmask 01011000
          309 405 rmoveto
          -97 52 -42 55 0 56 rrcurveto
          58 45 46 62 vhcurveto
          72 49 -49 -79 hvcurveto
          0 -61 -28 -41 -61 -37 rrcurveto
          22 -16 rmoveto
          96 34 48 53 0 75 rrcurveto
          89 -68 61 -112 vhcurveto
          -125 -81 -69 -96 hvcurveto
          0 -75 44 -55 93 -49 rrcurveto
          hintmask 10100100
          -116 -41 -56 -60 0 -90 rrcurveto
          -109 82 -71 130 vhcurveto
          138 95 90 115 hvcurveto
          hintmask 01011000
          0 85 -55 54 -113 59 rrcurveto
          hintmask 10100100
          -81 -48 rmoveto
          119 -78 64 -46 0 -73 rrcurveto
          -62 -53 -48 -76 vhcurveto
          -90 -61 61 92 hvcurveto
          0 63 32 50 65 41 rrcurveto
          endchar
        </CharString>
        <CharString name="ellipsis">
          446 -12 123 hstem
          111 113 220 113 221 113 vstem
          170 111 rmoveto
          -32 -27 -27 -36 hvcurveto
          -37 21 -23 32 vhcurveto
          37 23 23 42 hvcurveto
          36 -21 22 -33 vhcurveto
          333 hmoveto
          -32 -27 -27 -36 hvcurveto
          -37 21 -23 32 vhcurveto
          37 23 23 42 hvcurveto
          36 -21 22 -33 vhcurveto
          334 hmoveto
          -32 -27 -27 -36 hvcurveto
          -37 21 -23 32 vhcurveto
          37 23 23 42 hvcurveto
          36 -21 22 -33 vhcurveto
          endchar
        </CharString>
        <CharString name="emdash">
          585 214 52 hstem
          0 1139 vstem
          266 vmoveto
          -52 vlineto
          1139 hlineto
          52 vlineto
          endchar
        </CharString>
        <CharString name="endash">
          15 214 52 hstem
          0 570 vstem
          266 vmoveto
          -52 vlineto
          570 hlineto
          52 vlineto
          endchar
        </CharString>
        <CharString name="equal">
          279 167 68 126 68 hstem
          124 585 vstem
          124 429 rmoveto
          -68 vlineto
          585 hlineto
          68 vlineto
          -585 -194 rmoveto
          -68 vlineto
          585 hlineto
          68 vlineto
          endchar
        </CharString>
        <CharString name="eth">
          -16 -13 47 417 29 hstem
          37 79 307 80 vstem
          94 726 rmoveto
          -16 -18 rlineto
          53 -39 49 -38 45 -38 rrcurveto
          -151 -83 rlineto
          17 -29 rlineto
          160 88 rlineto
          22 -18 29 -32 35 -48 rrcurveto
          -26 6 -22 3 -20 0 rrcurveto
          -129 -103 -106 -152 hvcurveto
          -141 92 -94 132 vhcurveto
          146 96 100 157 hvcurveto
          0 134 -68 121 -134 100 rrcurveto
          152 85 rlineto
          -16 28 rlineto
          -165 -92 rlineto
          -58 37 -59 35 -61 34 rrcurveto
          167 -275 rmoveto
          89 73 -95 -142 hvcurveto
          -116 -50 -64 -81 vhcurveto
          -92 -84 99 135 hvcurveto
          109 63 74 82 vhcurveto
          endchar
        </CharString>
        <CharString name="exclam">
          -277 -13 124 95 20 482 20 hstemhm
          81 112 -104 106 vstemhm
          hintmask 01101000
          156 206 rmoveto
          10 197 29 150 0 103 rrcurveto
          49 -17 23 -36 vhcurveto
          -36 -17 -23 -49 hvcurveto
          0 -103 30 -149 10 -198 rrcurveto
          hintmask 10010000
          11 -95 rmoveto
          -31 -28 -27 -36 hvcurveto
          -37 23 -24 31 vhcurveto
          33 25 25 41 hvcurveto
          38 -19 20 -34 vhcurveto
          endchar
        </CharString>
        <CharString name="exclamdown">
          -277 -13 20 482 20 97 125 hstemhm
          82 112 -105 106 vstemhm
          hintmask 00110000
          82 665 rmoveto
          -37 19 -22 31 vhcurveto
          34 28 27 36 hvcurveto
          37 -24 25 -31 vhcurveto
          -33 -24 -25 -41 hvcurveto
          hintmask 11001000
          47 -156 rmoveto
          -10 -197 -30 -150 0 -103 rrcurveto
          -49 17 -23 36 vhcurveto
          36 17 23 49 hvcurveto
          0 103 -29 150 -10 197 rrcurveto
          endchar
        </CharString>
        <CharString name="f">
          -235 -2 18 418 33 257 30 hstem
          100 84 vstem
          184 585 rmoveto
          93 23 46 46 vhcurveto
          36 0 -4 -15 4 -31 rrcurveto
          3 -25 10 -10 30 0 rrcurveto
          26 12 13 24 hvcurveto
          49 -29 25 -57 vhcurveto
          -128 -56 -85 -176 hvcurveto
          -26 vlineto
          -71 hlineto
          -33 vlineto
          71 hlineto
          -346 vlineto
          -58 -6 -14 -64 vhcurveto
          -18 vlineto
          50 3 40 1 29 0 rrcurveto
          29 0 40 -1 50 -3 rrcurveto
          18 vlineto
          -77 1 -7 11 0 60 rrcurveto
          346 vlineto
          94 hlineto
          33 vlineto
          -94 hlineto
          endchar
        </CharString>
        <CharString name="fi">
          2 -2 18 411 33 266 28 hstem
          100 84 204 84 vstem
          184 519 rmoveto
          147 28 60 108 vhcurveto
          55 0 -1 -21 8 -35 rrcurveto
          7 -28 11 -6 30 0 rrcurveto
          26 13 12 24 hvcurveto
          49 -48 33 -88 vhcurveto
          -157 -76 -88 -179 hvcurveto
          -27 vlineto
          -71 hlineto
          -33 vlineto
          71 hlineto
          -339 vlineto
          -58 -6 -14 -64 vhcurveto
          -18 vlineto
          50 3 40 1 29 0 rrcurveto
          29 0 40 -1 50 -3 rrcurveto
          18 vlineto
          -77 1 -7 11 0 60 rrcurveto
          339 vlineto
          136 hlineto
          54 14 -13 -54 hvcurveto
          -272 vlineto
          0 -57 -6 -14 -60 -1 rrcurveto
          -18 vlineto
          45 3 36 1 27 0 rrcurveto
          27 0 36 -1 45 -3 rrcurveto
          18 vlineto
          -64 2 -2 10 0 60 rrcurveto
          392 vlineto
          -18 hlineto
          -45 -13 -44 -7 -45 0 rrcurveto
          -136 hlineto
          endchar
        </CharString>
        <CharString name="five">
          -14 45 377 67 128 83 hstem
          381 97 vstem
          444 695 rmoveto
          -24 -6 -25 -3 -26 0 rrcurveto
          -187 hlineto
          -12 0 -13 0 -16 1 rrcurveto
          -48 -312 rlineto
          44 22 40 11 37 0 rrcurveto
          97 70 -72 -103 hvcurveto
          -123 -78 -79 -108 vhcurveto
          -40 0 -41 15 -42 29 rrcurveto
          -16 -16 rlineto
          42 -47 60 -26 68 0 rrcurveto
          70 0 66 30 47 54 rrcurveto
          45 51 24 64 0 62 rrcurveto
          136 -86 92 -122 vhcurveto
          -45 0 -46 -12 -49 -26 rrcurveto
          26 166 rlineto
          266 hlineto
          7 28 7 30 8 34 rrcurveto
          endchar
        </CharString>
        <CharString name="fl">
          4 -2 18 411 33 264 30 hstem
          100 84 204 84 vstem
          391 722 rmoveto
          -19 22 -31 10 -47 0 rrcurveto
          -63 0 -56 -27 -34 -47 rrcurveto
          -37 -51 -4 -60 0 -76 rrcurveto
          -33 vlineto
          -71 hlineto
          -33 vlineto
          71 hlineto
          -339 vlineto
          -58 -6 -14 -64 vhcurveto
          -18 vlineto
          50 3 40 1 29 0 rrcurveto
          29 0 40 -1 50 -3 rrcurveto
          18 vlineto
          -77 1 -7 11 0 60 rrcurveto
          339 vlineto
          204 hlineto
          -339 vlineto
          0 -57 -6 -14 -60 -1 rrcurveto
          -18 vlineto
          45 3 36 1 27 0 rrcurveto
          27 0 36 -1 45 -3 rrcurveto
          18 vlineto
          -63 2 -3 10 0 60 rrcurveto
          666 vlineto
          -18 hlineto
          -66 -98 rmoveto
          -196 vlineto
          -204 hlineto
          99 vlineto
          112 17 53 74 vhcurveto
          38 0 1 -21 8 -26 rrcurveto
          7 -21 11 -8 25 0 rrcurveto
          6 0 8 3 9 5 rrcurveto
          endchar
        </CharString>
        <CharString name="florin">
          -247 27 621 30 242 26 hstem
          -11 538 vstem
          320 431 rmoveto
          29 162 28 80 54 0 rrcurveto
          13 11 -10 -11 hvcurveto
          0 -9 -3 -8 0 -6 rrcurveto
          -29 9 -13 29 vhcurveto
          24 13 15 26 hvcurveto
          43 -32 28 -51 vhcurveto
          -102 0 -71 -90 -35 -178 rrcurveto
          -93 hlineto
          -7 -30 rlineto
          95 hlineto
          -79 -412 -30 -209 -57 0 rrcurveto
          -10 -7 6 9 hvcurveto
          0 8 7 12 0 13 rrcurveto
          16 -10 10 -18 vhcurveto
          -23 -15 -16 -27 hvcurveto
          -34 25 -24 36 vhcurveto
          112 0 67 214 85 434 rrcurveto
          122 hlineto
          6 30 rlineto
          endchar
        </CharString>
        <CharString name="four">
          -5 20 194 67 403 20 hstem
          318 85 vstem
          362 699 rmoveto
          -113 -154 -107 -140 -96 -129 rrcurveto
          -67 vlineto
          272 hlineto
          -214 vlineto
          85 hlineto
          214 vlineto
          111 hlineto
          67 vlineto
          -111 hlineto
          423 vlineto
          -85 -121 rmoveto
          -302 vlineto
          -222 hlineto
          endchar
        </CharString>
        <CharString name="fraction">
          -364 -13 20 671 20 hstem
          -190 570 vstem
          348 698 rmoveto
          -538 -687 rlineto
          32 -24 rlineto
          538 687 rlineto
          endchar
        </CharString>
        <CharString name="g">
          -32 -227 50 312 47 261 36 hstemhm
          29 82 -46 74 -72 69 208 71 4 44 vstemhm
          hintmask 01101010
          344 271 rmoveto
          -53 -39 -36 -46 vhcurveto
          -43 0 -33 27 -26 57 rrcurveto
          -13 28 -5 27 0 24 rrcurveto
          59 38 39 47 vhcurveto
          56 64 -79 -93 hvcurveto
          35 145 rmoveto
          13 7 10 6 7 0 rrcurveto
          12 0 15 -27 24 0 rrcurveto
          20 15 15 22 hvcurveto
          26 -17 16 -30 vhcurveto
          -23 0 -24 -19 -35 -32 rrcurveto
          -36 33 -43 16 -52 0 rrcurveto
          -98 -72 -71 -101 hvcurveto
          0 -69 30 -51 57 -32 rrcurveto
          hintmask 01000110
          -56 -40 -29 -29 0 -26 rrcurveto
          0 -27 22 -17 44 -12 rrcurveto
          hintmask 10010001
          -69 -33 -35 -42 0 -44 rrcurveto
          -66 65 -46 116 vhcurveto
          88 0 84 36 37 40 rrcurveto
          29 32 15 34 0 36 rrcurveto
          0 46 -21 27 -46 19 rrcurveto
          -25 11 -53 3 -80 7 rrcurveto
          hintmask 01000110
          -68 6 -34 1 0 18 rrcurveto
          0 8 14 20 31 27 rrcurveto
          21 -6 20 -3 20 0 rrcurveto
          104 69 72 96 hvcurveto
          hintmask 01101010
          0 36 -12 37 -24 40 rrcurveto
          hintmask 10010001
          -212 -416 rmoveto
          173 -14 79 -2 0 -66 rrcurveto
          -46 -62 -49 -98 vhcurveto
          -88 -60 45 49 hvcurveto
          0 29 18 27 38 27 rrcurveto
          endchar
        </CharString>
        <CharString name="germandbls">
          -3 -12 27 -17 18 375 32 299 31 hstemhm
          93 84 205 80 -12 66 vstemhm
          hintmask 01111100
          324 428 rmoveto
          88 33 50 68 0 78 rrcurveto
          88 -63 58 -108 vhcurveto
          -128 -70 -72 -134 hvcurveto
          -459 vlineto
          0 -57 -6 -14 -60 -1 rrcurveto
          -18 vlineto
          45 3 36 1 27 0 rrcurveto
          29 0 33 -1 38 -3 rrcurveto
          18 vlineto
          -58 4 0 13 0 55 rrcurveto
          496 vlineto
          94 31 44 69 vhcurveto
          66 39 -48 -83 hvcurveto
          0 -95 -50 -62 -82 -11 rrcurveto
          -32 vlineto
          hintmask 10000010
          124 -21 76 -90 0 -123 rrcurveto
          -85 -40 -57 -36 vhcurveto
          -26 0 16 34 hvcurveto
          40 -2 4 -45 vhcurveto
          -24 -11 -13 -28 hvcurveto
          -46 32 -34 51 vhcurveto
          92 75 91 140 hvcurveto
          hintmask 01111100
          0 129 -69 74 -123 6 rrcurveto
          endchar
        </CharString>
        <CharString name="grave">
          -54 542 20 159 20 hstem
          93 255 vstem
          188 708 rmoveto
          -20 21 -16 12 -20 0 rrcurveto
          -22 -17 -17 -23 hvcurveto
          0 -16 12 -15 23 -14 rrcurveto
          183 -114 rlineto
          37 hlineto
          endchar
        </CharString>
        <CharString name="greater">
          279 31 535 hstem
          129 575 vstem
          129 566 rmoveto
          -75 vlineto
          474 -193 rlineto
          -474 -192 rlineto
          -75 vlineto
          575 236 rlineto
          63 vlineto
          endchar
        </CharString>
        <CharString name="guillemotleft">
          -74 44 20 339 20 hstem
          36 401 vstem
          201 423 rmoveto
          -48 -62 -55 -63 -62 -65 rrcurveto
          71 -70 57 -61 38 -58 rrcurveto
          42 hlineto
          -27 63 -42 60 -53 66 rrcurveto
          46 44 44 64 40 82 rrcurveto
          134 hmoveto
          -48 -62 -54 -63 -62 -65 rrcurveto
          71 -70 56 -61 38 -58 rrcurveto
          42 hlineto
          -26 62 -41 61 -54 66 rrcurveto
          45 43 44 64 40 83 rrcurveto
          endchar
        </CharString>
        <CharString name="guillemotright">
          -74 44 20 339 20 hstem
          36 401 vstem
          44 423 rmoveto
          26 -62 42 -62 54 -66 rrcurveto
          -47 -45 -44 -63 -39 -81 rrcurveto
          51 hlineto
          48 62 55 62 62 65 rrcurveto
          -71 69 -56 63 -39 58 rrcurveto
          144 hmoveto
          26 -62 41 -62 54 -66 rrcurveto
          -45 -43 -44 -63 -40 -83 rrcurveto
          51 hlineto
          48 62 54 62 62 65 rrcurveto
          -70 68 -56 63 -39 59 rrcurveto
          endchar
        </CharString>
        <CharString name="guilsinglleft">
          -260 44 20 359 20 hstem
          36 216 vstem
          201 423 rmoveto
          -48 -62 -55 -63 -62 -65 rrcurveto
          71 -70 57 -61 38 -58 rrcurveto
          42 hlineto
          -27 63 -42 60 -53 66 rrcurveto
          46 44 44 64 40 82 rrcurveto
          endchar
        </CharString>
        <CharString name="guilsinglright">
          -260 44 20 339 20 hstem
          36 216 vstem
          44 423 rmoveto
          26 -62 42 -62 54 -66 rrcurveto
          -47 -45 -44 -63 -39 -81 rrcurveto
          51 hlineto
          48 62 55 62 62 65 rrcurveto
          -71 69 -56 63 -39 58 rrcurveto
          endchar
        </CharString>
        <CharString name="h">
          -12 -2 18 404 60 200 20 34 20 hstem
          81 85 207 85 vstem
          147 754 rmoveto
          -34 -20 -44 -17 -55 -17 rrcurveto
          -20 vlineto
          55 -1 12 -5 0 -40 rrcurveto
          -546 vlineto
          0 -57 -6 -14 -60 -1 rrcurveto
          -18 vlineto
          45 3 36 1 27 0 rrcurveto
          27 0 36 -1 45 -3 rrcurveto
          18 vlineto
          -63 2 -2 10 0 60 rrcurveto
          273 vlineto
          44 39 43 20 41 0 rrcurveto
          56 23 -31 -68 hvcurveto
          -233 vlineto
          0 -56 -6 -15 -60 -1 rrcurveto
          -18 vlineto
          46 3 37 1 26 0 rrcurveto
          27 0 36 -1 45 -3 rrcurveto
          18 vlineto
          -63 2 -3 11 0 59 rrcurveto
          225 vlineto
          112 -40 55 -88 vhcurveto
          -58 0 -49 -29 -57 -57 rrcurveto
          360 vlineto
          endchar
        </CharString>
        <CharString name="hungarumlaut">
          -54 542 20 160 20 hstem
          143 324 vstem
          289 662 rmoveto
          15 16 7 15 0 12 rrcurveto
          21 -16 16 -21 vhcurveto
          -21 0 -14 -15 -16 -30 rrcurveto
          -80 -155 rlineto
          32 hlineto
          268 119 rmoveto
          16 14 8 18 0 13 rrcurveto
          21 -15 15 -18 vhcurveto
          -22 0 -17 -13 -17 -27 rrcurveto
          -101 -160 rlineto
          33 hlineto
          endchar
        </CharString>
        <CharString name="hyphen">
          -157 203 74 hstem
          92 213 vstem
          92 277 rmoveto
          -74 vlineto
          213 hlineto
          74 vlineto
          endchar
        </CharString>
        <CharString name="i">
          -291 -2 18 390 19 35 20 118 122 hstemhm
          75 113 -94 85 vstemhm
          hintmask 00011000
          135 720 rmoveto
          -34 -26 -26 -36 hvcurveto
          -37 22 -23 33 vhcurveto
          35 23 25 40 hvcurveto
          37 -19 20 -34 vhcurveto
          hintmask 11100100
          26 -240 rmoveto
          -53 -27 -44 -20 -37 -8 rrcurveto
          -19 vlineto
          55 -1 12 -5 0 -40 rrcurveto
          -272 vlineto
          0 -57 -6 -14 -60 -1 rrcurveto
          -18 vlineto
          45 3 37 1 27 0 rrcurveto
          27 0 36 -1 45 -3 rrcurveto
          18 vlineto
          -64 2 -2 10 0 60 rrcurveto
          392 vlineto
          endchar
        </CharString>
        <CharString name="iacute">
          -291 -2 18 390 19 35 20 62 20 159 20 hstemhm
          34 255 -195 85 vstemhm
          hintmask 11100010
          161 480 rmoveto
          -53 -27 -44 -20 -37 -8 rrcurveto
          -19 vlineto
          55 -1 12 -5 0 -40 rrcurveto
          -272 vlineto
          0 -57 -6 -14 -60 -1 rrcurveto
          -18 vlineto
          45 3 37 1 27 0 rrcurveto
          27 0 36 -1 45 -3 rrcurveto
          18 vlineto
          -64 2 -2 10 0 60 rrcurveto
          392 vlineto
          hintmask 00011100
          76 176 rmoveto
          23 14 11 16 0 16 rrcurveto
          23 -17 16 -23 vhcurveto
          -19 0 -16 -12 -20 -21 rrcurveto
          -160 -166 rlineto
          37 hlineto
          endchar
        </CharString>
        <CharString name="icircumflex">
          -291 -2 18 390 19 35 20 62 20 154 20 hstemhm
          -30 324 -200 85 vstemhm
          hintmask 11100010
          161 480 rmoveto
          -53 -27 -44 -20 -37 -8 rrcurveto
          -19 vlineto
          55 -1 12 -5 0 -40 rrcurveto
          -272 vlineto
          0 -57 -6 -14 -60 -1 rrcurveto
          -18 vlineto
          45 3 37 1 27 0 rrcurveto
          27 0 36 -1 45 -3 rrcurveto
          18 vlineto
          -64 2 -2 10 0 60 rrcurveto
          392 vlineto
          hintmask 00011100
          -80 256 rmoveto
          -129 -194 rlineto
          33 hlineto
          129 117 rlineto
          130 -117 rlineto
          32 hlineto
          -129 194 rlineto
          endchar
        </CharString>
        <CharString name="idieresis">
          -291 -2 18 390 19 35 20 92 112 hstemhm
          -21 111 4 85 -5 111 vstemhm
          hintmask 11100100
          161 480 rmoveto
          -53 -27 -44 -20 -37 -8 rrcurveto
          -19 vlineto
          55 -1 12 -5 0 -40 rrcurveto
          -272 vlineto
          0 -57 -6 -14 -60 -1 rrcurveto
          -18 vlineto
          45 3 37 1 27 0 rrcurveto
          27 0 36 -1 45 -3 rrcurveto
          18 vlineto
          -64 2 -2 10 0 60 rrcurveto
          392 vlineto
          hintmask 00011010
          -144 204 rmoveto
          -30 -26 -26 -30 hvcurveto
          -32 25 -24 31 vhcurveto
          31 24 25 31 hvcurveto
          30 -25 26 -30 vhcurveto
          195 hmoveto
          -30 -26 -26 -30 hvcurveto
          -32 25 -24 31 vhcurveto
          31 24 25 31 hvcurveto
          30 -25 26 -30 vhcurveto
          endchar
        </CharString>
        <CharString name="igrave">
          -291 -2 18 390 19 35 20 62 20 159 20 hstemhm
          -25 255 -136 85 vstemhm
          hintmask 11100010
          161 480 rmoveto
          -53 -27 -44 -20 -37 -8 rrcurveto
          -19 vlineto
          55 -1 12 -5 0 -40 rrcurveto
          -272 vlineto
          0 -57 -6 -14 -60 -1 rrcurveto
          -18 vlineto
          45 3 37 1 27 0 rrcurveto
          27 0 36 -1 45 -3 rrcurveto
          18 vlineto
          -64 2 -2 10 0 60 rrcurveto
          392 vlineto
          hintmask 00011100
          -109 228 rmoveto
          -20 21 -16 12 -20 0 rrcurveto
          -22 -17 -17 -23 hvcurveto
          0 -16 12 -15 23 -14 rrcurveto
          183 -114 rlineto
          37 hlineto
          endchar
        </CharString>
        <CharString name="j">
          -300 -228 36 598 19 35 20 118 122 hstemhm
          73 113 -94 84 vstemhm
          hintmask 00011000
          133 720 rmoveto
          -34 -26 -26 -36 hvcurveto
          -37 22 -23 33 vhcurveto
          35 23 25 40 hvcurveto
          37 -19 20 -34 vhcurveto
          hintmask 11100100
          25 -240 rmoveto
          -53 -27 -43 -20 -37 -8 rrcurveto
          -19 vlineto
          61 -1 6 -7 0 -50 rrcurveto
          -294 vlineto
          0 -95 11 -61 0 -33 rrcurveto
          -38 -9 -19 -24 vhcurveto
          -25 0 2 21 -5 26 rrcurveto
          -4 17 -5 3 -24 0 rrcurveto
          -23 -7 -6 -20 hvcurveto
          -51 24 -26 49 vhcurveto
          91 33 84 171 hvcurveto
          453 vlineto
          endchar
        </CharString>
        <CharString name="k">
          -25 -2 18 434 19 211 20 34 20 hstem
          92 84 vstem
          158 754 rmoveto
          -45 -24 -44 -18 -44 -12 rrcurveto
          -20 vlineto
          55 -1 12 -5 0 -40 rrcurveto
          -546 vlineto
          0 -57 -6 -14 -60 -1 rrcurveto
          -18 vlineto
          45 3 36 1 27 0 rrcurveto
          27 0 36 -1 45 -3 rrcurveto
          18 vlineto
          -64 2 -2 10 0 60 rrcurveto
          666 vlineto
          121 -285 rmoveto
          -19 vlineto
          24 -3 12 -11 0 -14 rrcurveto
          0 -18 -19 -20 -33 -32 rrcurveto
          -97 -96 rlineto
          157 -179 rlineto
          17 -19 9 -12 0 -10 rrcurveto
          0 -10 -11 -9 -19 -1 rrcurveto
          -18 vlineto
          40 2 31 1 25 0 rrcurveto
          28 0 32 -1 37 -2 rrcurveto
          18 vlineto
          -25 2 -36 27 -44 51 rrcurveto
          -165 190 rlineto
          68 63 rlineto
          56 52 40 42 54 7 rrcurveto
          19 vlineto
          -30 -2 -31 -1 -30 0 rrcurveto
          -31 0 -30 1 -29 2 rrcurveto
          endchar
        </CharString>
        <CharString name="l">
          -306 -2 18 664 20 34 20 hstem
          79 84 vstem
          145 754 rmoveto
          -45 -24 -44 -18 -44 -12 rrcurveto
          -20 vlineto
          55 -1 12 -5 0 -40 rrcurveto
          -546 vlineto
          0 -56 -6 -15 -60 -1 rrcurveto
          -18 vlineto
          45 3 36 1 27 0 rrcurveto
          27 0 36 -1 45 -3 rrcurveto
          18 vlineto
          -64 2 -2 10 0 60 rrcurveto
          666 vlineto
          endchar
        </CharString>
        <CharString name="less">
          279 31 535 hstem
          129 575 vstem
          704 566 rmoveto
          -575 -236 rlineto
          -63 vlineto
          575 -236 rlineto
          75 vlineto
          -473 192 rlineto
          473 193 rlineto
          endchar
        </CharString>
        <CharString name="logicalnot">
          279 352 68 hstem
          642 67 vstem
          124 420 rmoveto
          -68 vlineto
          518 hlineto
          -177 vlineto
          67 hlineto
          245 vlineto
          endchar
        </CharString>
        <CharString name="lslash">
          -293 -2 18 664 20 34 20 hstem
          92 85 vstem
          159 754 rmoveto
          -45 -24 -45 -18 -44 -12 rrcurveto
          -20 vlineto
          55 -1 12 -5 0 -40 rrcurveto
          -256 vlineto
          -92 -60 rlineto
          16 -24 rlineto
          76 49 rlineto
          -255 vlineto
          0 -56 -6 -15 -60 -1 rrcurveto
          -18 vlineto
          45 3 36 1 27 0 rrcurveto
          27 0 37 -1 45 -3 rrcurveto
          18 vlineto
          -64 2 -2 10 0 60 rrcurveto
          296 vlineto
          90 61 rlineto
          -16 24 rlineto
          -74 -50 rlineto
          335 vlineto
          endchar
        </CharString>
        <CharString name="m">
          274 -2 18 391 21 -8 60 hstemhm
          92 85 195 84 204 84 vstemhm
          hintmask 10101100
          147 480 rmoveto
          hintmask 11010000
          -43 -21 -40 -19 -40 -12 rrcurveto
          -21 vlineto
          7 0 6 1 6 0 rrcurveto
          42 7 -14 -41 hvcurveto
          -265 vlineto
          0 -56 -6 -15 -60 -1 rrcurveto
          -18 vlineto
          45 3 36 1 27 0 rrcurveto
          27 0 37 -1 45 -3 rrcurveto
          18 vlineto
          -64 2 -2 10 0 60 rrcurveto
          276 vlineto
          hintmask 10101100
          47 36 35 20 35 0 rrcurveto
          56 22 -32 -67 hvcurveto
          -233 vlineto
          0 -56 -6 -15 -60 -1 rrcurveto
          -18 vlineto
          46 3 35 1 27 0 rrcurveto
          26 0 36 -1 46 -3 rrcurveto
          18 vlineto
          -63 2 -3 11 0 59 rrcurveto
          274 vlineto
          46 37 37 21 41 0 rrcurveto
          57 23 -31 -68 hvcurveto
          -233 vlineto
          0 -56 -6 -15 -60 -1 rrcurveto
          -18 vlineto
          46 3 36 1 26 0 rrcurveto
          26 0 36 -1 46 -3 rrcurveto
          18 vlineto
          -63 2 -3 11 0 59 rrcurveto
          225 vlineto
          112 -40 55 -88 vhcurveto
          -52 0 -52 -33 -60 -63 rrcurveto
          -23 61 -42 33 -54 0 rrcurveto
          -56 0 -45 -36 -65 -61 rrcurveto
          99 vlineto
          endchar
        </CharString>
        <CharString name="macron">
          -54 593 70 hstem
          106 288 vstem
          106 663 rmoveto
          -70 vlineto
          288 hlineto
          70 vlineto
          endchar
        </CharString>
        <CharString name="minus">
          279 264 69 hstem
          124 585 vstem
          124 333 rmoveto
          -69 vlineto
          585 hlineto
          69 vlineto
          endchar
        </CharString>
        <CharString name="mu">
          17 -205 20 173 75 349 20 hstem
          -50 594 vstem
          81 95 rmoveto
          8 -70 37 -37 62 0 rrcurveto
          67 0 44 35 33 73 rrcurveto
          -6 vlineto
          -65 31 -37 52 vhcurveto
          46 0 34 26 25 50 rrcurveto
          16 34 8 39 0 19 rrcurveto
          8 -5 6 -6 vhcurveto
          -17 0 2 -28 -17 -35 rrcurveto
          -14 -29 -25 -17 -29 0 rrcurveto
          -32 -18 17 32 hvcurveto
          0 13 3 21 6 28 rrcurveto
          56 260 rlineto
          -84 hlineto
          -55 -258 rlineto
          -16 -75 -34 -36 -65 0 rrcurveto
          -51 -28 26 46 hvcurveto
          0 12 2 22 7 31 rrcurveto
          49 232 rlineto
          -82 hlineto
          -53 -250 rlineto
          -39 -183 -49 -112 0 -46 rrcurveto
          -30 16 -16 27 vhcurveto
          60 0 -18 102 46 198 rrcurveto
          endchar
        </CharString>
        <CharString name="multiply">
          279 22 553 hstem
          143 554 vstem
          191 575 rmoveto
          -48 -48 rlineto
          229 -229 rlineto
          -229 -229 rlineto
          48 -47 rlineto
          229 228 rlineto
          229 -228 rlineto
          48 47 rlineto
          -229 229 rlineto
          229 229 rlineto
          -48 48 rlineto
          -229 -229 rlineto
          endchar
        </CharString>
        <CharString name="n">
          -2 18 391 21 -8 60 hstemhm
          92 85 207 85 vstemhm
          hintmask 10101000
          147 480 rmoveto
          hintmask 11010000
          -43 -21 -40 -19 -40 -12 rrcurveto
          -21 vlineto
          7 0 6 1 6 0 rrcurveto
          42 7 -14 -41 hvcurveto
          -265 vlineto
          0 -56 -6 -15 -60 -1 rrcurveto
          -18 vlineto
          45 3 36 1 27 0 rrcurveto
          27 0 37 -1 45 -3 rrcurveto
          18 vlineto
          -64 2 -2 10 0 60 rrcurveto
          273 vlineto
          hintmask 10101000
          44 39 43 20 41 0 rrcurveto
          57 22 -31 -68 hvcurveto
          -233 vlineto
          0 -56 -5 -15 -60 -1 rrcurveto
          -18 vlineto
          46 3 36 1 26 0 rrcurveto
          27 0 36 -1 45 -3 rrcurveto
          18 vlineto
          -63 2 -3 11 0 59 rrcurveto
          225 vlineto
          112 -39 55 -89 vhcurveto
          -60 0 -52 -32 -62 -63 rrcurveto
          95 vlineto
          endchar
        </CharString>
        <CharString name="nine">
          -13 29 201 69 354 58 hstem
          47 76 284 90 vstem
          403 366 rmoveto
          -46 -53 -46 -27 -42 0 rrcurveto
          -77 -69 78 125 hvcurveto
          93 52 58 69 vhcurveto
          97 0 59 -95 3 -179 rrcurveto
          -306 -365 rmoveto
          32 -9 29 -5 28 0 rrcurveto
          174 137 158 259 hvcurveto
          188 -84 106 -134 vhcurveto
          -133 -99 -107 -157 hvcurveto
          -131 80 -86 101 vhcurveto
          71 0 53 40 55 84 rrcurveto
          -12 -211 -87 -114 -137 0 rrcurveto
          -21 0 -23 3 -23 6 rrcurveto
          endchar
        </CharString>
        <CharString name="ntilde">
          -2 18 391 21 -8 60 114 66 -42 68 hstemhm
          92 85 -60 319 -52 85 vstemhm
          hintmask 10100001
          147 480 rmoveto
          hintmask 11000100
          -43 -21 -40 -19 -40 -12 rrcurveto
          -21 vlineto
          7 0 6 1 6 0 rrcurveto
          42 7 -14 -41 hvcurveto
          -265 vlineto
          0 -56 -6 -15 -60 -1 rrcurveto
          -18 vlineto
          45 3 36 1 27 0 rrcurveto
          27 0 37 -1 45 -3 rrcurveto
          18 vlineto
          -64 2 -2 10 0 60 rrcurveto
          273 vlineto
          hintmask 10100001
          44 39 43 20 41 0 rrcurveto
          57 22 -31 -68 hvcurveto
          -233 vlineto
          0 -56 -5 -15 -60 -1 rrcurveto
          -18 vlineto
          46 3 36 1 26 0 rrcurveto
          27 0 36 -1 45 -3 rrcurveto
          18 vlineto
          -63 2 -3 11 0 59 rrcurveto
          225 vlineto
          112 -39 55 -89 vhcurveto
          -60 0 -52 -32 -62 -63 rrcurveto
          95 vlineto
          hintmask 00010010
          240 227 rmoveto
          -10 -34 -15 -13 -28 0 rrcurveto
          -8 0 -9 2 -13 3 rrcurveto
          -61 16 rlineto
          hintmask 00001010
          -11 3 -12 2 -12 0 rrcurveto
          -60 0 -38 -40 -13 -78 rrcurveto
          29 hlineto
          11 36 14 14 29 0 rrcurveto
          9 0 9 -1 9 -2 rrcurveto
          60 -16 rlineto
          hintmask 00010010
          14 -4 14 -1 13 0 rrcurveto
          58 0 36 37 14 76 rrcurveto
          endchar
        </CharString>
        <CharString name="numbersign">
          215 -2 20 201 68 135 68 202 20 hstem
          43 683 vstem
          371 712 rmoveto
          -79 -222 rlineto
          -163 hlineto
          -25 -68 rlineto
          164 hlineto
          -48 -135 rlineto
          -152 hlineto
          -25 -68 rlineto
          153 hlineto
          -78 -221 rlineto
          75 hlineto
          79 221 rlineto
          136 hlineto
          -79 -221 rlineto
          76 hlineto
          79 221 rlineto
          156 hlineto
          24 68 rlineto
          -156 hlineto
          47 135 rlineto
          147 hlineto
          24 68 rlineto
          -147 hlineto
          79 222 rlineto
          -76 hlineto
          -79 -222 rlineto
          -135 hlineto
          79 222 rlineto
          -104 -290 rmoveto
          137 hlineto
          -47 -135 rlineto
          -138 hlineto
          endchar
        </CharString>
        <CharString name="o">
          -16 -13 47 417 29 hstem
          37 79 307 78 vstem
          277 480 rmoveto
          -140 -100 -105 -153 hvcurveto
          -141 92 -94 132 vhcurveto
          144 96 100 149 hvcurveto
          144 -95 100 -129 vhcurveto
          -16 -29 rmoveto
          89 73 -95 -142 hvcurveto
          -116 -50 -64 -81 vhcurveto
          -92 -84 99 135 hvcurveto
          109 63 74 82 vhcurveto
          endchar
        </CharString>
        <CharString name="oacute">
          -16 -13 47 417 29 62 20 159 20 hstemhm
          37 79 55 255 -3 78 vstemhm
          hintmask 11001010
          277 480 rmoveto
          -140 -100 -105 -153 hvcurveto
          -141 92 -94 132 vhcurveto
          144 96 100 149 hvcurveto
          144 -95 100 -129 vhcurveto
          -16 -29 rmoveto
          89 73 -95 -142 hvcurveto
          -116 -50 -64 -81 vhcurveto
          -92 -84 99 135 hvcurveto
          109 63 74 82 vhcurveto
          hintmask 00110100
          131 205 rmoveto
          23 14 11 16 0 16 rrcurveto
          23 -17 16 -23 vhcurveto
          -19 0 -16 -12 -20 -21 rrcurveto
          -160 -166 rlineto
          37 hlineto
          endchar
        </CharString>
        <CharString name="ocircumflex">
          -16 -13 47 417 29 62 20 154 20 hstemhm
          37 79 -9 324 -8 78 vstemhm
          hintmask 11001010
          277 480 rmoveto
          -140 -100 -105 -153 hvcurveto
          -141 92 -94 132 vhcurveto
          144 96 100 149 hvcurveto
          144 -95 100 -129 vhcurveto
          -16 -29 rmoveto
          89 73 -95 -142 hvcurveto
          -116 -50 -64 -81 vhcurveto
          -92 -84 99 135 hvcurveto
          109 63 74 82 vhcurveto
          hintmask 00110100
          -25 285 rmoveto
          -129 -194 rlineto
          33 hlineto
          129 117 rlineto
          130 -117 rlineto
          32 hlineto
          -129 194 rlineto
          endchar
        </CharString>
        <CharString name="odieresis">
          -16 -13 47 417 29 92 112 hstem
          37 79 0 111 84 111 1 78 vstem
          277 480 rmoveto
          -140 -100 -105 -153 hvcurveto
          -141 92 -94 132 vhcurveto
          144 96 100 149 hvcurveto
          144 -95 100 -129 vhcurveto
          -16 -29 rmoveto
          89 73 -95 -142 hvcurveto
          -116 -50 -64 -81 vhcurveto
          -92 -84 99 135 hvcurveto
          109 63 74 82 vhcurveto
          -89 233 rmoveto
          -30 -26 -26 -30 hvcurveto
          -32 25 -24 31 vhcurveto
          31 24 25 31 hvcurveto
          30 -25 26 -30 vhcurveto
          195 hmoveto
          -30 -26 -26 -30 hvcurveto
          -32 25 -24 31 vhcurveto
          31 24 25 31 hvcurveto
          30 -25 26 -30 vhcurveto
          endchar
        </CharString>
        <CharString name="oe">
          266 -13 47 -47 75 226 29 131 32 -29 29 hstemhm
          37 79 285 72 221 86 vstemhm
          hintmask 10001110
          251 451 rmoveto
          82 68 -94 -143 hvcurveto
          -116 -46 -64 -75 vhcurveto
          -85 -79 96 138 hvcurveto
          111 59 72 76 vhcurveto
          hintmask 01110111
          190 -72 rmoveto
          -42 66 -60 35 -74 0 rrcurveto
          -132 -96 -104 -154 hvcurveto
          -142 88 -93 125 vhcurveto
          74 0 56 27 54 61 rrcurveto
          43 -61 48 -27 68 0 rrcurveto
          88 0 70 57 42 111 rrcurveto
          -19 7 rlineto
          -36 -67 -48 -33 -59 0 rrcurveto
          -89 -69 82 133 hvcurveto
          11 vlineto
          307 hlineto
          16 vlineto
          109 -68 67 -109 vhcurveto
          -65 0 -51 -33 -46 -68 rrcurveto
          253 -62 rmoveto
          -217 hlineto
          10 83 45 48 57 0 rrcurveto
          59 46 -51 -80 hvcurveto
          endchar
        </CharString>
        <CharString name="ogonek">
          -54 -250 53 194 20 hstem
          164 67 vstem
          304 17 rmoveto
          -94 -60 -46 -61 0 -66 rrcurveto
          -45 35 -35 53 vhcurveto
          48 0 41 29 28 54 rrcurveto
          -16 10 rlineto
          -16 -27 -21 -13 -29 0 rrcurveto
          -33 -23 25 40 hvcurveto
          0 48 34 48 67 53 rrcurveto
          endchar
        </CharString>
        <CharString name="ograve">
          -16 -13 47 417 29 62 20 159 20 hstemhm
          37 79 -4 255 56 78 vstemhm
          hintmask 11001010
          277 480 rmoveto
          -140 -100 -105 -153 hvcurveto
          -141 92 -94 132 vhcurveto
          144 96 100 149 hvcurveto
          144 -95 100 -129 vhcurveto
          -16 -29 rmoveto
          89 73 -95 -142 hvcurveto
          -116 -50 -64 -81 vhcurveto
          -92 -84 99 135 hvcurveto
          109 63 74 82 vhcurveto
          hintmask 00110100
          -54 257 rmoveto
          -20 21 -16 12 -20 0 rrcurveto
          -22 -17 -17 -23 hvcurveto
          0 -16 12 -15 23 -14 rrcurveto
          183 -114 rlineto
          37 hlineto
          endchar
        </CharString>
        <CharString name="one">
          -2 18 668 20 hstem
          240 87 vstem
          306 704 rmoveto
          -49 -44 -56 -43 -64 -45 rrcurveto
          13 -19 rlineto
          32 19 rlineto
          17 10 13 4 7 0 rrcurveto
          19 2 -17 -33 hvcurveto
          -448 vlineto
          -59 -7 -13 -68 vhcurveto
          -8 hlineto
          -18 vlineto
          63 2 41 2 22 0 rrcurveto
          18 0 41 -1 64 -3 rrcurveto
          18 vlineto
          -75 1 -4 8 0 63 rrcurveto
          616 vlineto
          endchar
        </CharString>
        <CharString name="onehalf">
          334 -13 20 -8 51 224 12 15 10 39 41 287 20 -13 11 hstemhm
          151 55 -47 570 -145 14 185 64 vstemhm
          hintmask 0111101101100000
          193 696 rmoveto
          -31 -24 -35 -24 -40 -26 rrcurveto
          8 -10 rlineto
          20 10 rlineto
          11 6 8 2 4 0 rrcurveto
          12 1 -9 -19 hvcurveto
          -251 vlineto
          -33 -4 -7 -43 vhcurveto
          -5 hlineto
          -10 vlineto
          40 1 26 1 14 0 rrcurveto
          11 0 26 0 40 -2 rrcurveto
          10 vlineto
          -47 1 -3 4 0 35 rrcurveto
          345 vlineto
          hintmask 1000010010000000
          491 2 rmoveto
          -538 -687 rlineto
          32 -24 rlineto
          538 687 rlineto
          hintmask 0111101101100000
          -99 -624 rmoveto
          34 29 41 27 41 32 rrcurveto
          65 50 36 40 0 52 rrcurveto
          67 -52 44 -73 vhcurveto
          -75 0 -57 -45 -6 -72 rrcurveto
          14 hlineto
          10 47 38 29 48 0 rrcurveto
          52 37 -33 -45 hvcurveto
          0 -43 -25 -35 -46 -43 rrcurveto
          -46 -45 -48 -45 -51 -45 rrcurveto
          -17 vlineto
          40 1 41 0 43 0 rrcurveto
          43 0 44 0 46 -1 rrcurveto
          9 19 10 20 12 21 rrcurveto
          -6 hlineto
          -19 -9 -19 0 -21 0 rrcurveto
          endchar
        </CharString>
        <CharString name="onequarter">
          334 -13 20 -10 11 109 38 146 10 69 11 287 20 -13 11 hstemhm
          151 55 -47 570 10 54 vstemhm
          hintmask 0111101101000000
          193 696 rmoveto
          -31 -24 -35 -24 -40 -26 rrcurveto
          8 -10 rlineto
          20 10 rlineto
          11 6 8 2 4 0 rrcurveto
          12 1 -9 -19 hvcurveto
          -251 vlineto
          -33 -4 -7 -43 vhcurveto
          -5 hlineto
          -10 vlineto
          40 1 26 1 14 0 rrcurveto
          11 0 26 0 40 -2 rrcurveto
          10 vlineto
          -47 1 -3 4 0 35 rrcurveto
          345 vlineto
          hintmask 1000010010000000
          491 2 rmoveto
          -538 -687 rlineto
          32 -24 rlineto
          538 687 rlineto
          hintmask 0111101101000000
          38 -283 rmoveto
          -71 -86 -68 -78 -60 -72 rrcurveto
          -38 vlineto
          171 hlineto
          -120 vlineto
          54 hlineto
          120 vlineto
          70 hlineto
          38 vlineto
          -70 hlineto
          236 vlineto
          -54 -67 rmoveto
          -169 vlineto
          -140 hlineto
          endchar
        </CharString>
        <CharString name="onesuperior">
          -189 273 11 400 12 hstem
          158 58 vstem
          202 696 rmoveto
          -33 -26 -36 -26 -43 -27 rrcurveto
          9 -11 rlineto
          21 11 rlineto
          11 6 9 3 4 0 rrcurveto
          13 1 -11 -19 hvcurveto
          -269 vlineto
          -36 -4 -7 -45 vhcurveto
          -6 hlineto
          -11 vlineto
          42 1 27 1 15 0 rrcurveto
          12 0 27 0 42 -2 rrcurveto
          11 vlineto
          -50 -2 5 38 hvcurveto
          369 vlineto
          endchar
        </CharString>
        <CharString name="ordfeminine">
          -196 380 46 -45 37 157 18 111 21 hstemhm
          21 71 141 63 vstemhm
          hintmask 10111100
          296 613 rmoveto
          79 -30 33 -94 vhcurveto
          -80 -47 -38 -47 hvcurveto
          -21 7 -9 19 vhcurveto
          27 11 4 16 hvcurveto
          0 13 -1 7 0 2 rrcurveto
          34 24 18 46 vhcurveto
          34 21 -20 -30 hvcurveto
          -61 vlineto
          -141 -21 -71 -45 0 -67 rrcurveto
          -48 35 -32 55 vhcurveto
          33 0 41 19 48 40 rrcurveto
          -2 vlineto
          hintmask 01000100
          -38 14 -18 29 vhcurveto
          21 0 23 12 24 26 rrcurveto
          -7 13 rlineto
          -11 -9 -10 -5 -9 0 rrcurveto
          -7 -4 7 12 hvcurveto
          hintmask 10111100
          -63 138 rmoveto
          -118 vlineto
          -30 -20 -27 -11 -25 0 rrcurveto
          -38 -21 19 33 hvcurveto
          0 43 47 31 94 23 rrcurveto
          endchar
        </CharString>
        <CharString name="ordmasculine">
          -150 380 33 292 20 hstem
          28 59 230 59 vstem
          208 725 rmoveto
          -105 -75 -74 -107 hvcurveto
          -98 69 -66 99 vhcurveto
          108 72 70 104 hvcurveto
          101 -71 70 -97 vhcurveto
          -12 -20 rmoveto
          67 54 -67 -99 hvcurveto
          -81 -37 -45 -61 vhcurveto
          -69 -63 69 95 hvcurveto
          76 47 52 62 vhcurveto
          endchar
        </CharString>
        <CharString name="oslash">
          -16 -13 47 417 29 hstem
          37 79 307 78 vstem
          458 508 rmoveto
          -53 -69 rlineto
          -38 28 -41 13 -49 0 rrcurveto
          -140 -100 -105 -153 hvcurveto
          0 -72 23 -58 44 -44 rrcurveto
          -66 -81 rlineto
          28 -21 rlineto
          64 80 rlineto
          40 -28 41 -11 50 0 rrcurveto
          144 96 100 149 hvcurveto
          0 75 -25 63 -44 42 rrcurveto
          56 73 rlineto
          -118 -97 rmoveto
          -213 -274 rlineto
          -27 45 -14 50 0 55 rrcurveto
          109 63 74 82 vhcurveto
          50 0 37 -20 22 -39 rrcurveto
          19 -33 rmoveto
          22 -39 12 -49 0 -57 rrcurveto
          -116 -51 -64 -80 vhcurveto
          -42 0 -40 19 -30 36 rrcurveto
          endchar
        </CharString>
        <CharString name="otilde">
          -16 -13 47 417 29 114 66 -42 68 hstemhm
          37 79 -7 319 -5 78 vstemhm
          hintmask 11001010
          277 480 rmoveto
          -140 -100 -105 -153 hvcurveto
          -141 92 -94 132 vhcurveto
          144 96 100 149 hvcurveto
          144 -95 100 -129 vhcurveto
          -16 -29 rmoveto
          89 73 -95 -142 hvcurveto
          -116 -50 -64 -81 vhcurveto
          -92 -84 99 135 hvcurveto
          109 63 74 82 vhcurveto
          hintmask 00100100
          138 256 rmoveto
          -10 -34 -15 -13 -28 0 rrcurveto
          -8 0 -9 2 -13 3 rrcurveto
          -61 16 rlineto
          hintmask 00010100
          -11 3 -12 2 -12 0 rrcurveto
          -60 0 -38 -40 -13 -78 rrcurveto
          29 hlineto
          11 36 14 14 29 0 rrcurveto
          9 0 9 -1 9 -2 rrcurveto
          60 -16 rlineto
          hintmask 00100100
          14 -4 14 -1 13 0 rrcurveto
          58 0 36 37 14 76 rrcurveto
          endchar
        </CharString>
        <CharString name="p">
          -13 -222 19 203 32 377 20 -13 64 hstemhm
          91 84 254 75 vstemhm
          hintmask 01010100
          145 480 rmoveto
          hintmask 11101100
          -44 -22 -41 -17 -39 -12 rrcurveto
          -20 vlineto
          7 0 6 1 6 0 rrcurveto
          43 8 -14 -41 hvcurveto
          -486 vlineto
          -63 -5 -9 -74 vhcurveto
          -19 vlineto
          46 2 40 2 35 0 rrcurveto
          27 0 39 -2 51 -2 rrcurveto
          19 vlineto
          -72 1 -3 8 0 63 rrcurveto
          190 vlineto
          31 -39 40 -20 52 0 rrcurveto
          112 94 104 162 hvcurveto
          hintmask 01010100
          130 -73 84 -99 vhcurveto
          -66 0 -49 -32 -53 -68 rrcurveto
          100 vlineto
          10 -377 rmoveto
          247 vlineto
          29 43 41 23 40 0 rrcurveto
          84 61 -74 -118 hvcurveto
          -118 -58 -74 -79 vhcurveto
          -45 0 -40 24 -33 47 rrcurveto
          endchar
        </CharString>
        <CharString name="paragraph">
          -54 0 20 660 42 hstem
          214 54 87 54 vstem
          468 722 rmoveto
          -244 hlineto
          -118 -74 -70 -100 hvcurveto
          0 -97 69 -68 113 -5 rrcurveto
          -382 vlineto
          54 hlineto
          680 vlineto
          87 hlineto
          -680 vlineto
          54 hlineto
          680 vlineto
          59 hlineto
          endchar
        </CharString>
        <CharString name="parenleft">
          -149 -166 20 854 20 hstem
          126 88 vstem
          344 728 rmoveto
          -146 -128 -72 -154 0 -181 rrcurveto
          0 -180 74 -134 158 -117 rrcurveto
          13 19 rlineto
          -114 119 -43 140 0 192 rrcurveto
          0 168 42 130 99 112 rrcurveto
          endchar
        </CharString>
        <CharString name="parenright">
          -149 -166 20 854 20 hstem
          189 88 vstem
          44 728 rmoveto
          -12 -18 rlineto
          113 -119 44 -140 0 -192 rrcurveto
          0 -168 -43 -131 -99 -111 rrcurveto
          11 -15 rlineto
          146 128 73 153 0 182 rrcurveto
          0 180 -75 134 -158 117 rrcurveto
          endchar
        </CharString>
        <CharString name="percent">
          255 620 710 rmoveto
          -461 -716 rlineto
          34 -19 rlineto
          459 714 rlineto
          -13 40 274 40 12 32 282 32 hstem
          0 76 225 46 13 76 225 46 43 76 225 46 vstem
          -378 10 rmoveto
          -57 0 -65 -36 -48 -67 rrcurveto
          -34 -47 -18 -54 0 -54 rrcurveto
          -87 50 -53 77 vhcurveto
          64 0 58 34 47 66 rrcurveto
          33 47 18 56 0 53 rrcurveto
          88 -48 54 -77 vhcurveto
          79 -132 rmoveto
          0 -46 -13 -50 -23 -43 rrcurveto
          -32 -58 -38 -29 -42 0 rrcurveto
          -49 -28 35 66 hvcurveto
          126 75 99 71 vhcurveto
          49 30 -36 -64 hvcurveto
          280 -182 rmoveto
          -57 0 -63 -36 -49 -67 rrcurveto
          -34 -47 -18 -53 0 -54 rrcurveto
          -87 51 -54 76 vhcurveto
          65 0 56 33 47 67 rrcurveto
          34 48 18 54 0 54 rrcurveto
          89 -49 53 -77 vhcurveto
          80 -132 rmoveto
          0 -46 -14 -51 -23 -42 rrcurveto
          -32 -58 -38 -29 -42 0 rrcurveto
          -49 -27 35 66 hvcurveto
          126 75 99 71 vhcurveto
          49 30 -36 -64 hvcurveto
          endchar
        </CharString>
        <CharString name="period">
          -277 -12 123 hstem
          83 113 vstem
          142 111 rmoveto
          -32 -27 -27 -36 hvcurveto
          -37 21 -23 32 vhcurveto
          37 23 23 42 hvcurveto
          36 -21 22 -33 vhcurveto
          endchar
        </CharString>
        <CharString name="periodcentered">
          -277 286 113 hstem
          82 113 vstem
          138 399 rmoveto
          -31 -25 -25 -31 hvcurveto
          -31 25 -26 31 vhcurveto
          31 26 25 32 hvcurveto
          32 -25 24 -32 vhcurveto
          endchar
        </CharString>
        <CharString name="perthousand">
          646 620 710 rmoveto
          -461 -716 rlineto
          34 -19 rlineto
          459 714 rlineto
          -13 40 274 40 12 32 282 32 hstem
          0 76 225 46 13 76 225 46 43 76 225 46 vstem
          -378 10 rmoveto
          -57 0 -65 -36 -48 -67 rrcurveto
          -34 -47 -18 -54 0 -54 rrcurveto
          -87 50 -53 77 vhcurveto
          64 0 58 34 47 66 rrcurveto
          33 47 18 56 0 53 rrcurveto
          88 -48 54 -77 vhcurveto
          79 -132 rmoveto
          0 -46 -13 -50 -23 -43 rrcurveto
          -32 -58 -38 -29 -42 0 rrcurveto
          -49 -28 35 66 hvcurveto
          126 75 99 71 vhcurveto
          49 30 -36 -64 hvcurveto
          280 -182 rmoveto
          -57 0 -63 -36 -49 -67 rrcurveto
          -34 -47 -18 -53 0 -54 rrcurveto
          -87 51 -54 76 vhcurveto
          65 0 56 33 47 67 rrcurveto
          34 48 18 54 0 54 rrcurveto
          89 -49 53 -77 vhcurveto
          390 hmoveto
          -57 0 -63 -36 -49 -67 rrcurveto
          -34 -47 -18 -53 0 -54 rrcurveto
          -87 51 -54 76 vhcurveto
          65 0 57 33 47 67 rrcurveto
          34 48 17 54 0 54 rrcurveto
          89 -49 53 -77 vhcurveto
          -310 -132 rmoveto
          0 -46 -14 -51 -23 -42 rrcurveto
          -32 -58 -38 -29 -42 0 rrcurveto
          -49 -27 35 66 hvcurveto
          126 75 99 71 vhcurveto
          49 30 -36 -64 hvcurveto
          390 hmoveto
          0 -46 -13 -51 -23 -42 rrcurveto
          -32 -58 -38 -29 -42 0 rrcurveto
          -49 -28 35 66 hvcurveto
          126 76 99 71 vhcurveto
          49 29 -36 -64 hvcurveto
          endchar
        </CharString>
        <CharString name="plus">
          279 264 68 hstem
          382 69 vstem
          382 596 rmoveto
          -264 vlineto
          -258 hlineto
          -68 vlineto
          258 hlineto
          -264 vlineto
          69 hlineto
          264 vlineto
          258 hlineto
          68 vlineto
          -258 hlineto
          264 vlineto
          endchar
        </CharString>
        <CharString name="plusminus">
          279 14 69 265 68 hstem
          382 69 vstem
          382 582 rmoveto
          -166 vlineto
          -258 hlineto
          -68 vlineto
          258 hlineto
          -166 vlineto
          69 hlineto
          166 vlineto
          258 hlineto
          68 vlineto
          -258 hlineto
          166 vlineto
          -327 -499 rmoveto
          -69 vlineto
          585 hlineto
          69 vlineto
          endchar
        </CharString>
        <CharString name="q">
          -13 -222 19 202 62 388 31 hstem
          36 81 263 84 vstem
          392 442 rmoveto
          -43 25 -39 13 -46 0 rrcurveto
          -63 0 -60 -28 -41 -50 rrcurveto
          -43 -53 -21 -63 0 -76 rrcurveto
          -127 75 -84 106 vhcurveto
          66 0 48 25 49 56 rrcurveto
          -211 vlineto
          -63 -5 -9 -74 vhcurveto
          -19 vlineto
          46 2 40 2 35 0 rrcurveto
          27 0 40 -2 51 -2 rrcurveto
          19 vlineto
          -73 1 -3 8 0 63 rrcurveto
          608 vlineto
          -85 -143 rmoveto
          -158 vlineto
          -70 -46 -45 -65 vhcurveto
          -82 -69 78 117 hvcurveto
          115 68 78 84 vhcurveto
          62 48 -46 -69 hvcurveto
          endchar
        </CharString>
        <CharString name="question">
          -13 124 81 20 489 28 hstemhm
          184 112 -67 19 111 97 vstemhm
          hintmask 01101100
          248 192 rmoveto
          0 45 14 37 30 36 rrcurveto
          36 43 46 37 37 48 rrcurveto
          29 38 16 44 0 43 rrcurveto
          102 -76 64 -122 vhcurveto
          -123 -69 -56 -86 hvcurveto
          -34 16 -13 39 vhcurveto
          31 12 12 31 hvcurveto
          24 vlineto
          64 18 30 53 vhcurveto
          67 57 -64 -78 hvcurveto
          0 -37 -9 -34 -19 -31 rrcurveto
          -27 -44 -26 -34 -15 -30 rrcurveto
          -22 -43 -13 -40 0 -49 rrcurveto
          0 -8 0 -8 1 -9 rrcurveto
          hintmask 10010000
          14 -81 rmoveto
          -31 -28 -27 -36 hvcurveto
          -36 24 -25 31 vhcurveto
          33 24 25 41 hvcurveto
          38 -19 20 -34 vhcurveto
          endchar
        </CharString>
        <CharString name="questiondown">
          -13 28 488 20 82 124 hstemhm
          66 97 63 112 -64 19 vstemhm
          hintmask 00101000
          226 663 rmoveto
          -38 19 -20 34 vhcurveto
          32 27 27 36 hvcurveto
          37 -23 24 -31 vhcurveto
          -33 -25 -26 -40 hvcurveto
          hintmask 11010100
          48 -140 rmoveto
          0 -57 -23 -39 -43 -46 rrcurveto
          -51 -54 -46 -38 -20 -40 rrcurveto
          -17 -33 -8 -33 0 -35 rrcurveto
          -97 77 -64 121 vhcurveto
          123 69 57 81 hvcurveto
          37 -14 14 -41 vhcurveto
          -31 -12 -12 -31 hvcurveto
          -24 vlineto
          -64 -19 -30 -52 vhcurveto
          -67 -57 63 82 hvcurveto
          0 82 60 55 36 70 rrcurveto
          22 43 13 39 0 49 rrcurveto
          0 8 0 8 -1 9 rrcurveto
          endchar
        </CharString>
        <CharString name="quotedbl">
          -219 420 294 hstem
          42 88 75 87 vstem
          95 420 rmoveto
          34 224 rlineto
          1 6 0 5 0 7 rrcurveto
          34 -16 18 -28 vhcurveto
          -27 -17 -18 -32 hvcurveto
          0 -6 1 -7 1 -7 rrcurveto
          34 -224 rlineto
          179 hmoveto
          34 224 rlineto
          1 7 0 7 0 6 rrcurveto
          32 -17 18 -27 vhcurveto
          -28 -15 -19 -33 hvcurveto
          0 -6 0 -5 1 -7 rrcurveto
          34 -224 rlineto
          endchar
        </CharString>
        <CharString name="quotedblbase">
          -87 -151 20 123 111 hstem
          55 125 64 125 vstem
          30 -151 rmoveto
          96 21 54 62 0 84 rrcurveto
          55 -25 32 -39 vhcurveto
          -37 -24 -26 -38 hvcurveto
          -29 18 -18 24 vhcurveto
          12 0 12 6 14 10 rrcurveto
          -8 vlineto
          0 -61 -35 -43 -70 -27 rrcurveto
          189 -20 rmoveto
          96 21 54 62 0 84 rrcurveto
          55 -26 32 -39 vhcurveto
          -36 -24 -26 -35 hvcurveto
          -32 17 -18 25 vhcurveto
          12 0 12 6 14 10 rrcurveto
          -8 vlineto
          0 -61 -35 -43 -70 -27 rrcurveto
          endchar
        </CharString>
        <CharString name="quotedblleft">
          -87 474 111 123 20 hstem
          77 125 64 125 vstem
          227 728 rmoveto
          -95 -20 -55 -63 0 -84 rrcurveto
          -55 26 -32 39 vhcurveto
          36 24 27 34 hvcurveto
          32 -17 18 -25 vhcurveto
          -12 0 -13 -5 -13 -11 rrcurveto
          7 vlineto
          0 62 36 43 69 26 rrcurveto
          189 21 rmoveto
          -95 -20 -55 -63 0 -84 rrcurveto
          -55 25 -32 39 vhcurveto
          36 25 26 35 hvcurveto
          32 -17 18 -25 vhcurveto
          -12 0 -12 -5 -14 -11 rrcurveto
          5 vlineto
          0 63 35 44 70 26 rrcurveto
          endchar
        </CharString>
        <CharString name="quotedblright">
          -87 474 20 123 111 hstem
          72 126 63 125 vstem
          48 474 rmoveto
          96 21 54 62 0 84 rrcurveto
          55 -26 32 -39 vhcurveto
          -36 -25 -26 -37 hvcurveto
          -29 18 -19 24 vhcurveto
          13 0 12 6 13 10 rrcurveto
          -8 vlineto
          0 -61 -35 -44 -69 -26 rrcurveto
          188 -20 rmoveto
          96 21 54 62 0 84 rrcurveto
          55 -25 32 -39 vhcurveto
          -37 -24 -26 -38 hvcurveto
          -29 18 -18 24 vhcurveto
          12 0 13 6 13 10 rrcurveto
          -7 vlineto
          0 -62 -36 -44 -69 -26 rrcurveto
          endchar
        </CharString>
        <CharString name="quoteleft">
          -277 474 111 123 20 hstem
          59 125 vstem
          209 728 rmoveto
          -95 -20 -55 -63 0 -84 rrcurveto
          -55 26 -32 39 vhcurveto
          36 24 27 34 hvcurveto
          32 -17 18 -25 vhcurveto
          -12 0 -12 -5 -14 -11 rrcurveto
          8 vlineto
          0 61 35 43 70 26 rrcurveto
          endchar
        </CharString>
        <CharString name="quoteright">
          -277 474 20 123 111 hstem
          74 125 vstem
          49 474 rmoveto
          96 21 54 62 0 84 rrcurveto
          55 -26 32 -39 vhcurveto
          -37 -23 -26 -38 hvcurveto
          -29 18 -18 24 vhcurveto
          12 0 13 6 13 10 rrcurveto
          -7 vlineto
          0 -62 -36 -44 -69 -26 rrcurveto
          endchar
        </CharString>
        <CharString name="quotesinglbase">
          -277 -151 20 123 111 hstem
          66 125 vstem
          41 -151 rmoveto
          96 21 54 62 0 84 rrcurveto
          55 -26 32 -39 vhcurveto
          -37 -23 -26 -38 hvcurveto
          -29 18 -18 24 vhcurveto
          12 0 12 6 14 10 rrcurveto
          -8 vlineto
          0 -61 -35 -43 -70 -27 rrcurveto
          endchar
        </CharString>
        <CharString name="quotesingle">
          -382 420 294 hstem
          42 88 75 87 vstem
          95 420 rmoveto
          33 224 rlineto
          1 7 1 7 0 6 rrcurveto
          32 -17 18 -27 vhcurveto
          -28 -16 -19 -33 hvcurveto
          0 -6 1 -5 1 -7 rrcurveto
          34 -224 rlineto
          endchar
        </CharString>
        <CharString name="r">
          -167 -2 18 389 62 -59 20 32 20 hstemhm
          92 84 vstemhm
          hintmask 10111000
          147 480 rmoveto
          -36 -17 -39 -20 -49 -15 rrcurveto
          -21 vlineto
          7 0 6 1 6 0 rrcurveto
          42 8 -14 -41 hvcurveto
          -265 vlineto
          0 -57 -6 -14 -60 -1 rrcurveto
          -18 vlineto
          40 3 40 1 38 0 rrcurveto
          21 0 37 -1 55 -3 rrcurveto
          18 vlineto
          -78 2 -3 5 0 65 rrcurveto
          230 vlineto
          hintmask 01000000
          45 59 31 28 10 0 rrcurveto
          9 0 4 -11 5 -18 rrcurveto
          5 -21 3 -4 34 0 rrcurveto
          27 7 13 32 hvcurveto
          48 -14 23 -35 vhcurveto
          -51 0 -32 -39 -57 -73 rrcurveto
          hintmask 10111000
          125 vlineto
          endchar
        </CharString>
        <CharString name="registered">
          268 -16 43 114 22 168 20 162 21 103 42 hstem
          64 45 178 73 139 78 136 45 vstem
          412 679 rmoveto
          -93 0 -89 -37 -65 -66 rrcurveto
          -66 -67 -35 -86 0 -95 rrcurveto
          0 -91 35 -85 67 -66 rrcurveto
          66 -65 86 -37 88 0 rrcurveto
          97 0 84 34 65 64 rrcurveto
          69 68 37 89 0 89 rrcurveto
          0 94 -36 89 -63 64 rrcurveto
          -65 66 -91 38 -91 0 rrcurveto
          -42 vmoveto
          78 0 79 -33 56 -56 rrcurveto
          56 -56 32 -80 0 -84 rrcurveto
          0 -77 -31 -76 -58 -59 rrcurveto
          -57 -58 -75 -31 -81 0 rrcurveto
          -81 0 -73 30 -59 59 rrcurveto
          -58 58 -31 74 0 80 rrcurveto
          0 84 30 75 58 59 rrcurveto
          57 58 78 33 80 0 rrcurveto
          -184 -103 rmoveto
          -22 vlineto
          44 -3 15 -11 0 -35 rrcurveto
          -252 vlineto
          0 -35 -15 -11 -44 -2 rrcurveto
          -22 vlineto
          190 hlineto
          22 vlineto
          -43 3 -15 11 0 34 rrcurveto
          120 vlineto
          14 hlineto
          53 0 31 -21 12 -47 rrcurveto
          8 -31 -10 -39 17 -31 rrcurveto
          10 -19 24 -11 32 0 rrcurveto
          50 28 30 55 hvcurveto
          9 vlineto
          -22 hlineto
          -42 -11 -22 -20 vhcurveto
          -31 0 8 35 -10 40 rrcurveto
          -13 54 -31 29 -61 18 rrcurveto
          96 17 43 28 0 56 rrcurveto
          53 -56 42 -99 vhcurveto
          -62 -182 rmoveto
          127 vlineto
          23 16 11 33 vhcurveto
          57 33 -33 -45 hvcurveto
          -52 -38 -32 -70 vhcurveto
          -6 0 -11 0 -14 1 rrcurveto
          endchar
        </CharString>
        <CharString name="ring">
          -54 531 51 166 51 hstem
          116 51 166 51 vstem
          250 799 rmoveto
          -75 -59 -59 -75 hvcurveto
          -75 59 -59 75 vhcurveto
          75 59 59 75 hvcurveto
          75 -59 59 -75 vhcurveto
          -51 vmoveto
          46 37 -37 -46 hvcurveto
          -46 -37 -37 -46 vhcurveto
          -46 -37 37 46 hvcurveto
          47 37 36 46 vhcurveto
          endchar
        </CharString>
        <CharString name="s">
          -145 -10 38 425 26 hstem
          54 61 180 60 vstem
          324 467 rmoveto
          -11 -1 -7 0 -2 0 rrcurveto
          -40 0 -37 13 -34 0 rrcurveto
          -86 -53 -50 -74 hvcurveto
          0 -86 69 -34 125 -57 rrcurveto
          31 -14 16 -26 0 -35 rrcurveto
          -46 -31 -29 -52 vhcurveto
          -80 0 -47 50 -10 98 rrcurveto
          -22 hlineto
          -1 -52 -1 -53 -1 -54 rrcurveto
          10 hlineto
          50 0 49 -27 54 0 rrcurveto
          80 62 61 80 hvcurveto
          0 52 -17 30 -41 33 rrcurveto
          -19 15 -37 17 -52 27 rrcurveto
          -50 25 -24 27 0 33 rrcurveto
          36 30 27 46 vhcurveto
          62 0 44 -40 10 -68 rrcurveto
          21 hlineto
          -2 62 -2 41 0 19 rrcurveto
          endchar
        </CharString>
        <CharString name="scaron">
          -145 -10 38 425 26 63 20 154 20 hstemhm
          43 324 -313 61 180 60 vstemhm
          hintmask 11000110
          324 467 rmoveto
          -11 -1 -7 0 -2 0 rrcurveto
          -40 0 -37 13 -34 0 rrcurveto
          -86 -53 -50 -74 hvcurveto
          0 -86 69 -34 125 -57 rrcurveto
          31 -14 16 -26 0 -35 rrcurveto
          -46 -31 -29 -52 vhcurveto
          -80 0 -47 50 -10 98 rrcurveto
          -22 hlineto
          -1 -52 -1 -53 -1 -54 rrcurveto
          10 hlineto
          50 0 49 -27 54 0 rrcurveto
          80 62 61 80 hvcurveto
          0 52 -17 30 -41 33 rrcurveto
          -19 15 -37 17 -52 27 rrcurveto
          -50 25 -24 27 0 33 rrcurveto
          36 30 27 46 vhcurveto
          62 0 44 -40 10 -68 rrcurveto
          21 hlineto
          -2 62 -2 41 0 19 rrcurveto
          hintmask 00111000
          -281 269 rmoveto
          129 -194 rlineto
          66 hlineto
          129 194 rlineto
          -32 hlineto
          -130 -117 rlineto
          -129 117 rlineto
          endchar
        </CharString>
        <CharString name="section">
          -29 -147 29 281 19 247 18 252 29 hstemhm
          77 53 -14 62 206 59 -20 55 vstemhm
          hintmask 00110100
          286 505 rmoveto
          -64 41 -44 27 0 51 rrcurveto
          43 36 32 56 vhcurveto
          51 0 23 -19 2 -43 rrcurveto
          3 -52 -6 -16 43 0 rrcurveto
          32 12 9 32 hvcurveto
          72 -55 46 -94 vhcurveto
          -102 -63 -55 -75 hvcurveto
          0 -52 34 -52 69 -47 rrcurveto
          hintmask 11001010
          -88 -5 -54 -53 0 -77 rrcurveto
          0 -59 38 -46 73 -49 rrcurveto
          92 -61 rlineto
          66 -44 38 -32 0 -47 rrcurveto
          -49 -46 -43 -52 vhcurveto
          -55 0 -25 27 -7 60 rrcurveto
          -4 35 -1 8 -35 0 rrcurveto
          -32 -8 -7 -31 hvcurveto
          -71 57 -50 94 vhcurveto
          109 64 60 93 hvcurveto
          0 65 -36 44 -76 48 rrcurveto
          hintmask 01101001
          91 2 56 56 0 75 rrcurveto
          0 60 -40 50 -82 53 rrcurveto
          hintmask 01111101
          -109 -30 rmoveto
          112 -78 64 -38 0 -57 rrcurveto
          -43 -40 -31 -69 vhcurveto
          -13 hlineto
          -109 78 -62 42 0 49 rrcurveto
          41 43 37 64 vhcurveto
          endchar
        </CharString>
        <CharString name="semicolon">
          -259 -151 20 119 123 -119 111 218 124 hstemhm
          64 114 -89 125 vstemhm
          hintmask 01011000
          150 445 rmoveto
          -32 -27 -28 -35 hvcurveto
          -36 22 -25 32 vhcurveto
          37 23 25 41 hvcurveto
          36 -21 22 -34 vhcurveto
          hintmask 10100100
          -86 -596 rmoveto
          96 21 54 62 0 84 rrcurveto
          55 -25 32 -39 vhcurveto
          -37 -24 -26 -38 hvcurveto
          -29 18 -18 24 vhcurveto
          12 0 12 6 14 10 rrcurveto
          -8 vlineto
          0 -61 -35 -43 -70 -27 rrcurveto
          endchar
        </CharString>
        <CharString name="seven">
          0 20 578 88 hstem
          83 419 vstem
          122 689 rmoveto
          -17 -51 -13 -38 -9 -25 rrcurveto
          38 21 50 2 64 0 rrcurveto
          177 hlineto
          -70 -158 -75 -199 -82 -241 rrcurveto
          79 hlineto
          97 307 80 226 61 147 rrcurveto
          9 vlineto
          -42 -3 -81 0 -117 0 rrcurveto
          -45 hlineto
          -31 0 -31 0 -33 3 rrcurveto
          endchar
        </CharString>
        <CharString name="six">
          -14 58 353 70 200 30 hstem
          53 90 283 77 vstem
          453 683 rmoveto
          -31 9 -29 5 -29 0 rrcurveto
          -176 -135 -159 -258 hvcurveto
          -188 84 -106 134 vhcurveto
          133 99 109 151 hvcurveto
          135 -79 86 -102 vhcurveto
          -72 0 -52 -41 -55 -84 rrcurveto
          11 208 91 117 129 0 rrcurveto
          24 0 24 -3 24 -6 rrcurveto
          -301 -340 rmoveto
          45 53 46 26 47 0 rrcurveto
          78 65 -78 -123 hvcurveto
          -93 -52 -59 -69 vhcurveto
          -97 0 -61 95 -2 179 rrcurveto
          endchar
        </CharString>
        <CharString name="slash">
          -110 -106 20 794 20 hstem
          22 360 vstem
          339 728 rmoveto
          -317 -834 rlineto
          44 hlineto
          316 834 rlineto
          endchar
        </CharString>
        <CharString name="space">
          -277 endchar
        </CharString>
        <CharString name="sterling">
          -12 68 -65 24 94 39 171 28 324 28 hstemhm
          44 27 49 78 19 67 95 86 vstemhm
          hintmask 0111111110000000
          259 347 rmoveto
          -40 108 -21 70 0 34 rrcurveto
          71 38 41 66 vhcurveto
          53 0 23 -29 1 -62 rrcurveto
          1 -38 3 -12 39 0 rrcurveto
          36 7 9 30 hvcurveto
          82 -56 48 -104 vhcurveto
          -115 -70 -65 -107 hvcurveto
          0 -45 16 -58 26 -77 rrcurveto
          -101 hlineto
          -28 vlineto
          111 hlineto
          27 -73 18 -55 0 -44 rrcurveto
          0 -8 -1 -8 -1 -7 rrcurveto
          -29 14 -24 10 -30 0 rrcurveto
          -51 -37 -33 -46 hvcurveto
          -45 34 -33 49 vhcurveto
          41 0 34 22 35 45 rrcurveto
          hintmask 1001000100000000
          46 -47 48 -23 50 0 rrcurveto
          69 0 56 45 40 91 rrcurveto
          -20 10 rlineto
          -35 -52 -38 -26 -48 0 rrcurveto
          -33 0 -48 16 -64 31 rrcurveto
          16 31 8 35 0 40 rrcurveto
          0 28 -5 36 -9 46 rrcurveto
          135 hlineto
          28 vlineto
          hintmask 0111111110000000
          -200 -269 rmoveto
          -17 -41 -30 -22 -33 0 rrcurveto
          -32 -22 20 27 hvcurveto
          27 22 20 34 vhcurveto
          24 0 25 -11 29 -20 rrcurveto
          endchar
        </CharString>
        <CharString name="t">
          -240 -14 59 386 36 133 20 hstem
          86 84 vstem
          151 620 rmoveto
          -17 -85 -46 -58 -64 -23 rrcurveto
          -23 vlineto
          62 hlineto
          -295 vlineto
          -99 6 -51 78 vhcurveto
          42 0 41 23 41 47 rrcurveto
          -13 18 rlineto
          -23 -19 -20 -10 -18 0 rrcurveto
          -37 -13 25 55 hvcurveto
          306 vlineto
          117 hlineto
          36 vlineto
          -117 hlineto
          153 vlineto
          endchar
        </CharString>
        <CharString name="thorn">
          -24 -222 19 203 32 384 64 200 20 34 20 hstem
          67 84 254 75 vstem
          132 754 rmoveto
          -45 -24 -45 -18 -44 -12 rrcurveto
          -20 vlineto
          57 12 -7 -46 hvcurveto
          -758 vlineto
          0 -63 -5 -8 -74 -1 rrcurveto
          -19 vlineto
          46 2 40 2 35 0 rrcurveto
          27 0 40 -2 51 -2 rrcurveto
          19 vlineto
          -73 1 -3 8 0 63 rrcurveto
          190 vlineto
          31 -40 40 -19 52 0 rrcurveto
          112 94 104 162 hvcurveto
          130 -73 84 -99 vhcurveto
          -64 0 -47 -29 -47 -61 rrcurveto
          364 vlineto
          -651 vmoveto
          247 vlineto
          29 43 42 23 40 0 rrcurveto
          84 60 -74 -118 hvcurveto
          -118 -58 -74 -79 vhcurveto
          -45 0 -39 24 -34 47 rrcurveto
          endchar
        </CharString>
        <CharString name="three">
          -13 44 336 55 181 83 hstem
          360 99 vstem
          110 687 rmoveto
          -11 -38 -10 -31 -11 -28 rrcurveto
          16 9 24 4 32 0 rrcurveto
          206 hlineto
          -172 -230 rlineto
          -7 vlineto
          8 1 7 0 7 0 rrcurveto
          94 60 -65 -95 hvcurveto
          -99 -72 -77 -88 vhcurveto
          -52 0 -51 21 -43 40 rrcurveto
          -16 -18 rlineto
          57 -57 66 -30 67 0 rrcurveto
          128 103 114 133 hvcurveto
          112 -75 76 -116 vhcurveto
          -9 hlineto
          195 253 rlineto
          11 vlineto
          -175 hlineto
          -57 0 -56 1 -56 0 rrcurveto
          endchar
        </CharString>
        <CharString name="threequarters">
          334 -13 20 -10 11 109 38 140 24 61 11 117 30 102 46 -8 20 hstemhm
          96 570 -439 62 450 54 vstemhm
          hintmask 0111111001100000
          69 687 rmoveto
          -7 -22 -6 -17 -7 -16 rrcurveto
          10 5 15 3 20 0 rrcurveto
          130 hlineto
          -108 -129 rlineto
          -4 vlineto
          5 1 4 0 5 0 rrcurveto
          59 38 -37 -53 hvcurveto
          -56 -46 -43 -55 vhcurveto
          -33 0 -32 12 -27 23 rrcurveto
          -10 -11 rlineto
          36 -31 41 -17 43 0 rrcurveto
          80 65 64 74 hvcurveto
          63 -47 42 -73 vhcurveto
          -6 hlineto
          123 142 rlineto
          6 vlineto
          -110 hlineto
          -36 0 -35 1 -36 0 rrcurveto
          hintmask 1000000110000000
          628 11 rmoveto
          -538 -687 rlineto
          32 -24 rlineto
          538 687 rlineto
          hintmask 0111111001100000
          38 -283 rmoveto
          -71 -86 -68 -78 -60 -72 rrcurveto
          -38 vlineto
          171 hlineto
          -120 vlineto
          54 hlineto
          120 vlineto
          70 hlineto
          38 vlineto
          -70 hlineto
          236 vlineto
          -54 -67 rmoveto
          -169 vlineto
          -140 hlineto
          endchar
        </CharString>
        <CharString name="threesuperior">
          -188 266 27 201 33 109 50 hstem
          238 65 vstem
          73 686 rmoveto
          -8 -23 -6 -18 -8 -17 rrcurveto
          11 5 16 3 21 0 rrcurveto
          136 hlineto
          -114 -138 rlineto
          -4 vlineto
          15 hlineto
          62 40 -39 -57 hvcurveto
          -59 -48 -46 -58 vhcurveto
          -34 0 -34 12 -28 24 rrcurveto
          -11 -11 rlineto
          38 -34 43 -18 44 0 rrcurveto
          85 68 69 79 hvcurveto
          68 -50 45 -76 vhcurveto
          -6 hlineto
          129 152 rlineto
          7 vlineto
          endchar
        </CharString>
        <CharString name="tilde">
          -54 594 66 -42 68 hstemhm
          90 319 vstemhm
          hintmask 10100000
          380 707 rmoveto
          -10 -34 -15 -13 -28 0 rrcurveto
          -8 0 -9 2 -13 3 rrcurveto
          -61 16 rlineto
          hintmask 01100000
          -11 3 -12 2 -12 0 rrcurveto
          -60 0 -38 -40 -13 -78 rrcurveto
          29 hlineto
          11 36 14 14 29 0 rrcurveto
          9 0 9 -1 9 -2 rrcurveto
          60 -16 rlineto
          hintmask 10100000
          14 -4 14 -1 13 0 rrcurveto
          58 0 36 37 14 76 rrcurveto
          endchar
        </CharString>
        <CharString name="trademark">
          268 441 14 234 15 hstem
          205 52 161 22 178 46 vstem
          122 704 rmoveto
          -5 -89 rlineto
          13 hlineto
          5 52 20 22 42 0 rrcurveto
          8 hlineto
          -207 vlineto
          0 -16 -8 -9 -13 -1 rrcurveto
          -15 -1 rlineto
          -14 vlineto
          124 hlineto
          14 vlineto
          -16 1 rlineto
          -13 1 -7 9 0 16 rrcurveto
          207 vlineto
          8 hlineto
          41 0 20 -23 5 -51 rrcurveto
          13 hlineto
          -5 89 rlineto
          42 hmoveto
          -13 vlineto
          16 -2 rlineto
          13 -1 8 -9 0 -16 rrcurveto
          -181 vlineto
          0 -16 -8 -9 -13 -1 rrcurveto
          -16 -1 rlineto
          -14 vlineto
          96 hlineto
          14 vlineto
          -16 1 rlineto
          -13 1 -8 9 0 16 rrcurveto
          190 vlineto
          84 -232 rlineto
          10 hlineto
          84 231 rlineto
          -189 vlineto
          0 -16 -8 -9 -13 -1 rrcurveto
          -15 -1 rlineto
          -14 vlineto
          117 hlineto
          14 vlineto
          -14 1 rlineto
          -14 1 -7 9 0 16 rrcurveto
          183 vlineto
          0 16 7 9 14 1 rrcurveto
          14 1 rlineto
          12 vlineto
          -88 hlineto
          -70 -191 rlineto
          -67 191 rlineto
          endchar
        </CharString>
        <CharString name="two">
          -1 90 401 20 115 74 hstem
          72 22 294 101 vstem
          144 89 rmoveto
          54 52 65 49 65 56 rrcurveto
          103 89 58 73 0 92 rrcurveto
          119 -83 80 -116 vhcurveto
          -118 0 -91 -82 -9 -127 rrcurveto
          22 hlineto
          15 83 61 52 76 0 rrcurveto
          83 59 -59 -80 hvcurveto
          0 -77 -41 -62 -72 -78 rrcurveto
          -73 -79 -77 -81 -80 -80 rrcurveto
          -30 vlineto
          63 1 65 0 68 0 rrcurveto
          68 0 71 0 73 -1 rrcurveto
          14 33 16 35 19 39 rrcurveto
          -10 hlineto
          -30 -16 -30 -1 -34 0 rrcurveto
          endchar
        </CharString>
        <CharString name="twosuperior">
          -188 273 54 241 12 69 44 hstem
          48 14 194 67 vstem
          95 327 rmoveto
          36 32 43 29 42 34 rrcurveto
          68 53 39 44 0 55 rrcurveto
          71 -55 48 -77 vhcurveto
          -77 0 -61 -49 -5 -76 rrcurveto
          14 hlineto
          10 50 40 31 50 0 rrcurveto
          55 39 -35 -48 hvcurveto
          0 -47 -27 -37 -47 -47 rrcurveto
          -49 -47 -50 -49 -53 -48 rrcurveto
          -18 vlineto
          41 1 43 0 45 0 rrcurveto
          45 0 47 0 48 -1 rrcurveto
          9 20 11 21 12 24 rrcurveto
          -6 hlineto
          -20 -10 -20 -1 -22 0 rrcurveto
          endchar
        </CharString>
        <CharString name="u">
          2 -13 60 -51 20 20 20 349 20 35 20 hstemhm
          84 85 206 85 vstemhm
          hintmask 10011100
          155 480 rmoveto
          -50 -26 -45 -19 -41 -10 rrcurveto
          -20 vlineto
          63 2 -15 -54 hvcurveto
          -199 vlineto
          -101 45 -49 95 vhcurveto
          57 0 54 28 47 57 rrcurveto
          hintmask 01111010
          -76 vlineto
          30 hlineto
          37 16 38 14 38 10 rrcurveto
          20 vlineto
          -11 hlineto
          -44 -10 12 40 hvcurveto
          372 vlineto
          -14 hlineto
          -49 -26 -45 -19 -41 -10 rrcurveto
          -20 vlineto
          63 1 -15 -54 hvcurveto
          -232 vlineto
          hintmask 10011100
          -32 -37 -38 -20 -40 0 rrcurveto
          -64 -32 42 84 hvcurveto
          307 vlineto
          endchar
        </CharString>
        <CharString name="uacute">
          2 -13 60 -51 20 20 20 349 20 35 20 62 20 159 20 hstemhm
          84 85 8 255 -57 85 vstemhm
          hintmask 1001100100000000
          155 480 rmoveto
          -50 -26 -45 -19 -41 -10 rrcurveto
          -20 vlineto
          63 2 -15 -54 hvcurveto
          -199 vlineto
          -101 45 -49 95 vhcurveto
          57 0 54 28 47 57 rrcurveto
          hintmask 0111100001000000
          -76 vlineto
          30 hlineto
          37 16 38 14 38 10 rrcurveto
          20 vlineto
          -11 hlineto
          -44 -10 12 40 hvcurveto
          372 vlineto
          -14 hlineto
          -49 -26 -45 -19 -41 -10 rrcurveto
          -20 vlineto
          63 1 -15 -54 hvcurveto
          -232 vlineto
          hintmask 1001100100000000
          -32 -37 -38 -20 -40 0 rrcurveto
          -64 -32 42 84 hvcurveto
          307 vlineto
          hintmask 0000011010000000
          229 176 rmoveto
          23 14 11 16 0 16 rrcurveto
          23 -17 16 -23 vhcurveto
          -19 0 -16 -12 -20 -21 rrcurveto
          -160 -166 rlineto
          37 hlineto
          endchar
        </CharString>
        <CharString name="ucircumflex">
          2 -13 60 -51 20 20 20 349 20 35 20 62 20 154 20 hstemhm
          84 85 -56 324 -62 85 vstemhm
          hintmask 1001100100000000
          155 480 rmoveto
          -50 -26 -45 -19 -41 -10 rrcurveto
          -20 vlineto
          63 2 -15 -54 hvcurveto
          -199 vlineto
          -101 45 -49 95 vhcurveto
          57 0 54 28 47 57 rrcurveto
          hintmask 0111100001000000
          -76 vlineto
          30 hlineto
          37 16 38 14 38 10 rrcurveto
          20 vlineto
          -11 hlineto
          -44 -10 12 40 hvcurveto
          372 vlineto
          -14 hlineto
          -49 -26 -45 -19 -41 -10 rrcurveto
          -20 vlineto
          63 1 -15 -54 hvcurveto
          -232 vlineto
          hintmask 1001100100000000
          -32 -37 -38 -20 -40 0 rrcurveto
          -64 -32 42 84 hvcurveto
          307 vlineto
          hintmask 0000011010000000
          73 256 rmoveto
          -129 -194 rlineto
          33 hlineto
          129 117 rlineto
          130 -117 rlineto
          32 hlineto
          -129 194 rlineto
          endchar
        </CharString>
        <CharString name="udieresis">
          2 -13 60 -51 20 20 20 349 20 35 20 92 112 hstemhm
          84 85 -47 111 84 111 -53 85 vstemhm
          hintmask 1001101000000000
          155 480 rmoveto
          -50 -26 -45 -19 -41 -10 rrcurveto
          -20 vlineto
          63 2 -15 -54 hvcurveto
          -199 vlineto
          -101 45 -49 95 vhcurveto
          57 0 54 28 47 57 rrcurveto
          hintmask 0111100001000000
          -76 vlineto
          30 hlineto
          37 16 38 14 38 10 rrcurveto
          20 vlineto
          -11 hlineto
          -44 -10 12 40 hvcurveto
          372 vlineto
          -14 hlineto
          -49 -26 -45 -19 -41 -10 rrcurveto
          -20 vlineto
          63 1 -15 -54 hvcurveto
          -232 vlineto
          hintmask 1001101000000000
          -32 -37 -38 -20 -40 0 rrcurveto
          -64 -32 42 84 hvcurveto
          307 vlineto
          hintmask 0000010110000000
          9 204 rmoveto
          -30 -26 -26 -30 hvcurveto
          -32 25 -24 31 vhcurveto
          31 24 25 31 hvcurveto
          30 -25 26 -30 vhcurveto
          195 hmoveto
          -30 -26 -26 -30 hvcurveto
          -32 25 -24 31 vhcurveto
          31 24 25 31 hvcurveto
          30 -25 26 -30 vhcurveto
          endchar
        </CharString>
        <CharString name="ugrave">
          2 -13 60 -51 20 20 20 349 20 35 20 62 20 159 20 hstemhm
          84 85 -51 255 2 85 vstemhm
          hintmask 1001100100000000
          155 480 rmoveto
          -50 -26 -45 -19 -41 -10 rrcurveto
          -20 vlineto
          63 2 -15 -54 hvcurveto
          -199 vlineto
          -101 45 -49 95 vhcurveto
          57 0 54 28 47 57 rrcurveto
          hintmask 0111100001000000
          -76 vlineto
          30 hlineto
          37 16 38 14 38 10 rrcurveto
          20 vlineto
          -11 hlineto
          -44 -10 12 40 hvcurveto
          372 vlineto
          -14 hlineto
          -49 -26 -45 -19 -41 -10 rrcurveto
          -20 vlineto
          63 1 -15 -54 hvcurveto
          -232 vlineto
          hintmask 1001100100000000
          -32 -37 -38 -20 -40 0 rrcurveto
          -64 -32 42 84 hvcurveto
          307 vlineto
          hintmask 0000011010000000
          44 228 rmoveto
          -20 21 -16 12 -20 0 rrcurveto
          -22 -17 -17 -23 hvcurveto
          0 -16 12 -15 23 -14 rrcurveto
          183 -114 rlineto
          37 hlineto
          endchar
        </CharString>
        <CharString name="underscore">
          -54 -236 70 hstem
          0 500 vstem
          -166 vmoveto
          -70 vlineto
          500 hlineto
          70 vlineto
          endchar
        </CharString>
        <CharString name="v">
          -103 -13 20 444 18 hstem
          -15 480 vstem
          -15 469 rmoveto
          -18 vlineto
          61 -5 5 -35 21 -53 rrcurveto
          148 -371 rlineto
          7 hlineto
          157 371 rlineto
          22 53 20 31 39 9 rrcurveto
          18 vlineto
          -26 -2 -24 -2 -20 0 rrcurveto
          -20 0 -23 1 -27 3 rrcurveto
          -18 vlineto
          26 -5 12 -8 0 -14 rrcurveto
          0 -6 -2 -9 -5 -12 rrcurveto
          -106 -270 rlineto
          -97 252 rlineto
          -5 14 -4 12 0 13 rrcurveto
          0 18 18 13 34 2 rrcurveto
          18 vlineto
          -40 -3 -35 -1 -30 0 rrcurveto
          -30 0 -36 1 -40 3 rrcurveto
          endchar
        </CharString>
        <CharString name="w">
          166 -13 20 443 18 hstem
          -13 743 vstem
          -13 468 rmoveto
          -18 vlineto
          49 -4 9 -29 24 -57 rrcurveto
          158 -373 rlineto
          10 hlineto
          128 285 rlineto
          116 -285 rlineto
          11 hlineto
          174 396 rlineto
          16 36 12 23 36 8 rrcurveto
          18 vlineto
          -23 -3 -24 0 -26 0 rrcurveto
          -29 0 -25 0 -21 3 rrcurveto
          -18 vlineto
          31 -2 16 -12 0 -19 rrcurveto
          0 -12 -6 -13 -7 -16 rrcurveto
          -107 -260 rlineto
          -99 264 rlineto
          -5 14 -4 12 0 11 rrcurveto
          0 19 17 8 38 6 rrcurveto
          18 vlineto
          -34 -2 -33 -1 -33 0 rrcurveto
          -33 0 -34 1 -34 2 rrcurveto
          -18 vlineto
          32 -4 15 -14 13 -32 rrcurveto
          29 -73 rlineto
          -90 -215 rlineto
          -110 267 rlineto
          -8 21 -3 14 0 6 rrcurveto
          0 16 19 12 35 2 rrcurveto
          18 vlineto
          -34 -2 -33 -1 -33 0 rrcurveto
          -33 0 -33 1 -34 2 rrcurveto
          endchar
        </CharString>
        <CharString name="x">
          -74 -2 18 435 18 hstem
          1 479 vstem
          8 469 rmoveto
          -18 vlineto
          42 -2 13 -22 21 -29 rrcurveto
          114 -157 rlineto
          -102 -148 rlineto
          -28 -42 -21 -29 -46 -6 rrcurveto
          -18 vlineto
          33 3 26 1 16 0 rrcurveto
          16 0 26 -1 34 -3 rrcurveto
          18 vlineto
          -27 3 -14 9 0 11 rrcurveto
          0 6 4 13 11 15 rrcurveto
          94 137 rlineto
          82 -130 rlineto
          13 -20 6 -13 0 -4 rrcurveto
          0 -21 -16 -3 -38 -3 rrcurveto
          -18 vlineto
          47 3 35 1 24 0 rrcurveto
          24 0 36 -1 47 -3 rrcurveto
          18 vlineto
          -42 3 -16 30 -26 38 rrcurveto
          -130 188 rlineto
          75 107 rlineto
          32 46 33 23 36 0 rrcurveto
          5 hlineto
          18 vlineto
          -36 -2 -30 -2 -22 0 rrcurveto
          -22 0 -29 2 -37 2 rrcurveto
          -18 vlineto
          33 -2 17 -9 0 -13 rrcurveto
          0 -6 -5 -16 -14 -19 rrcurveto
          -55 -77 rlineto
          -63 86 rlineto
          -8 12 -4 10 0 7 rrcurveto
          0 15 16 8 32 4 rrcurveto
          18 vlineto
          -44 -2 -35 -2 -27 0 rrcurveto
          -26 0 -35 2 -45 2 rrcurveto
          endchar
        </CharString>
        <CharString name="y">
          -87 -227 49 628 18 hstem
          7 452 vstem
          7 468 rmoveto
          -18 vlineto
          35 -2 15 -26 20 -49 rrcurveto
          150 -370 rlineto
          -39 -121 -29 -60 -34 0 rrcurveto
          -29 0 11 29 -7 22 rrcurveto
          -6 17 -9 5 -23 0 rrcurveto
          -29 -10 -11 -30 hvcurveto
          -52 29 -29 49 vhcurveto
          79 0 29 71 48 136 rrcurveto
          139 395 rlineto
          17 48 14 24 32 3 rrcurveto
          18 vlineto
          -23 -2 -24 -2 -24 0 rrcurveto
          -24 0 -24 2 -25 2 rrcurveto
          -18 vlineto
          33 -3 14 -6 0 -20 rrcurveto
          0 -5 -2 -15 -7 -22 rrcurveto
          -83 -259 rlineto
          -103 254 rlineto
          -11 26 -4 16 0 5 rrcurveto
          0 19 16 7 35 3 rrcurveto
          18 vlineto
          -33 -2 -33 -2 -32 0 rrcurveto
          -33 0 -32 2 -33 2 rrcurveto
          endchar
        </CharString>
        <CharString name="yacute">
          -87 -227 49 628 18 74 20 159 20 hstemhm
          7 452 -323 255 vstemhm
          hintmask 11001000
          7 468 rmoveto
          -18 vlineto
          35 -2 15 -26 20 -49 rrcurveto
          150 -370 rlineto
          -39 -121 -29 -60 -34 0 rrcurveto
          -29 0 11 29 -7 22 rrcurveto
          -6 17 -9 5 -23 0 rrcurveto
          -29 -10 -11 -30 hvcurveto
          -52 29 -29 49 vhcurveto
          79 0 29 71 48 136 rrcurveto
          139 395 rlineto
          17 48 14 24 32 3 rrcurveto
          18 vlineto
          -23 -2 -24 -2 -24 0 rrcurveto
          -24 0 -24 2 -25 2 rrcurveto
          -18 vlineto
          33 -3 14 -6 0 -20 rrcurveto
          0 -5 -2 -15 -7 -22 rrcurveto
          -83 -259 rlineto
          -103 254 rlineto
          -11 26 -4 16 0 5 rrcurveto
          0 19 16 7 35 3 rrcurveto
          18 vlineto
          -33 -2 -33 -2 -32 0 rrcurveto
          -33 0 -32 2 -33 2 rrcurveto
          hintmask 00110100
          350 188 rmoveto
          23 14 11 16 0 16 rrcurveto
          23 -17 16 -23 vhcurveto
          -19 0 -16 -12 -20 -21 rrcurveto
          -160 -166 rlineto
          37 hlineto
          endchar
        </CharString>
        <CharString name="ydieresis">
          -87 -227 49 628 18 104 112 hstemhm
          7 452 -378 111 84 111 vstemhm
          hintmask 11010000
          7 468 rmoveto
          -18 vlineto
          35 -2 15 -26 20 -49 rrcurveto
          150 -370 rlineto
          -39 -121 -29 -60 -34 0 rrcurveto
          -29 0 11 29 -7 22 rrcurveto
          -6 17 -9 5 -23 0 rrcurveto
          -29 -10 -11 -30 hvcurveto
          -52 29 -29 49 vhcurveto
          79 0 29 71 48 136 rrcurveto
          139 395 rlineto
          17 48 14 24 32 3 rrcurveto
          18 vlineto
          -23 -2 -24 -2 -24 0 rrcurveto
          -24 0 -24 2 -25 2 rrcurveto
          -18 vlineto
          33 -3 14 -6 0 -20 rrcurveto
          0 -5 -2 -15 -7 -22 rrcurveto
          -83 -259 rlineto
          -103 254 rlineto
          -11 26 -4 16 0 5 rrcurveto
          0 19 16 7 35 3 rrcurveto
          18 vlineto
          -33 -2 -33 -2 -32 0 rrcurveto
          -33 0 -32 2 -33 2 rrcurveto
          hintmask 00101100
          130 216 rmoveto
          -30 -26 -26 -30 hvcurveto
          -32 25 -24 31 vhcurveto
          31 24 25 31 hvcurveto
          30 -25 26 -30 vhcurveto
          195 hmoveto
          -30 -26 -26 -30 hvcurveto
          -32 25 -24 31 vhcurveto
          31 24 25 31 hvcurveto
          30 -25 26 -30 vhcurveto
          endchar
        </CharString>
        <CharString name="yen">
          -3 21 283 29 95 28 215 20 hstem
          237 84 vstem
          -21 688 rmoveto
          -20 vlineto
          40 -7 25 -18 19 -33 rrcurveto
          89 -157 rlineto
          -139 hlineto
          -28 vlineto
          157 hlineto
          57 -95 rlineto
          -214 hlineto
          -29 vlineto
          224 hlineto
          -203 vlineto
          0 -69 -1 -10 -86 -1 rrcurveto
          -21 vlineto
          31 4 43 1 55 0 rrcurveto
          53 0 43 -2 33 -3 rrcurveto
          21 vlineto
          -86 1 -1 10 0 69 rrcurveto
          203 vlineto
          221 hlineto
          29 vlineto
          -221 hlineto
          57 95 rlineto
          164 hlineto
          28 vlineto
          -144 hlineto
          74 115 rlineto
          40 62 34 34 42 4 rrcurveto
          20 vlineto
          -36 -3 -34 -2 -31 0 rrcurveto
          -31 0 -31 2 -30 3 rrcurveto
          -20 vlineto
          42 -4 21 -10 0 -18 rrcurveto
          0 -6 -6 -18 -16 -25 rrcurveto
          -142 -226 rlineto
          -129 233 rlineto
          -11 20 -7 13 0 9 rrcurveto
          0 20 19 7 41 5 rrcurveto
          20 vlineto
          -40 -3 -39 -2 -39 0 rrcurveto
          -37 0 -37 2 -36 3 rrcurveto
          endchar
        </CharString>
        <CharString name="z">
          -87 -2 40 392 38 hstem
          19 412 vstem
          59 469 rmoveto
          -1 -30 -1 -45 -3 -57 rrcurveto
          15 hlineto
          11 74 45 19 102 0 rrcurveto
          82 hlineto
          -290 -432 rlineto
          400 hlineto
          3 48 4 45 3 42 rrcurveto
          -18 hlineto
          -26 -90 -50 -5 -98 0 rrcurveto
          -93 hlineto
          287 431 rlineto
          -67 -1 -65 0 -62 0 rrcurveto
          -62 0 -59 0 -57 1 rrcurveto
          endchar
        </CharString>
        <CharString name="zcaron">
          -87 -2 40 392 38 74 20 154 20 hstemhm
          19 412 -359 324 vstemhm
          hintmask 11001000
          59 469 rmoveto
          -1 -30 -1 -45 -3 -57 rrcurveto
          15 hlineto
          11 74 45 19 102 0 rrcurveto
          82 hlineto
          -290 -432 rlineto
          400 hlineto
          3 48 4 45 3 42 rrcurveto
          -18 hlineto
          -26 -90 -50 -5 -98 0 rrcurveto
          -93 hlineto
          287 431 rlineto
          -67 -1 -65 0 -62 0 rrcurveto
          -62 0 -59 0 -57 1 rrcurveto
          hintmask 00110100
          13 267 rmoveto
          129 -194 rlineto
          66 hlineto
          129 194 rlineto
          -32 hlineto
          -130 -117 rlineto
          -129 117 rlineto
          endchar
        </CharString>
        <CharString name="zero">
          -13 57 625 30 hstem
          42 95 289 86 vstem
          284 699 rmoveto
          -138 -104 -137 -230 hvcurveto
          -221 94 -124 133 vhcurveto
          147 96 129 230 hvcurveto
          227 -92 126 -136 vhcurveto
          -13 -30 rmoveto
          89 66 -130 -226 hvcurveto
          -179 -44 -90 -85 vhcurveto
          -94 -66 116 217 hvcurveto
          193 47 99 87 vhcurveto
          endchar
        </CharString>
</ttFont>
